<svg width="368" height="171" viewBox="0 0 368 171" fill="none" xmlns="http://www.w3.org/2000/svg">
<path d="M320.873 49.5263L321.286 115.152L67.1706 154.576L16.1931 9.62219L320.873 49.5263Z" stroke="#00FF38" stroke-width="16"/>
<path d="M3.6875 70.5938C3.6875 63.4062 5.5625 57.6979 9.3125 53.4688C13.0625 49.2396 18.375 47.125 25.25 47.125C29.3958 47.125 32.6458 47.6562 35 48.7188C37.375 49.7812 39.4583 51.4271 41.25 53.6562C42.3333 55.0104 42.3021 56.0625 41.1562 56.8125L37.5938 59.125C36.5521 59.8125 35.4375 59.5104 34.25 58.2188C33.2708 57.1562 32.0312 56.2708 30.5312 55.5625C29.0312 54.8542 27.375 54.5 25.5625 54.5C21.1875 54.5 18.0729 55.8854 16.2188 58.6562C14.3646 61.4062 13.4375 65.3854 13.4375 70.5938C13.4375 75.8021 14.3646 79.7917 16.2188 82.5625C18.0729 85.3125 21.1875 86.6875 25.5625 86.6875C27.6875 86.6875 29.5208 86.4792 31.0625 86.0625C32.6042 85.625 34.0625 84.8438 35.4375 83.7188V78.125H28.6562C27.0938 78.125 26.3125 77.4479 26.3125 76.0938V72.4062C26.3125 71.0521 27.0938 70.375 28.6562 70.375H42.2188C43.7812 70.375 44.5625 71.0521 44.5625 72.4062V88.2812C41.6458 90.4271 38.6979 91.9271 35.7188 92.7812C32.7604 93.6354 29.2708 94.0625 25.25 94.0625C18.4792 94.0625 13.1875 91.9479 9.375 87.7188C5.58333 83.4896 3.6875 77.7812 3.6875 70.5938ZM50.5625 84.25C50.5625 80.0833 52.5521 77.0625 56.5312 75.1875C60.5104 73.3125 65.0521 72.3125 70.1562 72.1875V70.9375C70.1562 69.0208 69.6771 67.6667 68.7188 66.875C67.7604 66.0833 66.4271 65.6875 64.7188 65.6875C63.5104 65.6875 62.4375 65.8646 61.5 66.2188C60.5833 66.5521 59.7812 66.9479 59.0938 67.4062C58.4271 67.8438 57.8229 68.2917 57.2812 68.75C56.3229 69.5833 55.5312 69.625 54.9062 68.875L52.3125 65.6875C51.6667 64.8958 51.8229 64.0833 52.7812 63.25C53.5104 62.6042 54.3542 62.0417 55.3125 61.5625C56.2917 61.0833 57.5833 60.6354 59.1875 60.2188C60.7917 59.7812 62.875 59.5625 65.4375 59.5625C69.7708 59.5625 73.0938 60.5625 75.4062 62.5625C77.7396 64.5625 78.9062 67.5104 78.9062 71.4062V91.125C78.9062 92.375 78.2812 93 77.0312 93H71.9062C70.7812 93 70.2188 92.375 70.2188 91.125V90.1875H70.1562C68.9271 91.375 67.4479 92.25 65.7188 92.8125C64.0104 93.3542 62.4375 93.625 61 93.625C57.5833 93.625 54.9896 92.7917 53.2188 91.125C51.4479 89.4375 50.5625 87.1458 50.5625 84.25ZM59.8125 84.0625C59.8125 84.7917 59.9583 85.4271 60.25 85.9688C60.5417 86.4896 61 86.875 61.625 87.125C62.25 87.375 62.9479 87.5 63.7188 87.5C64.7812 87.5 65.8125 87.3542 66.8125 87.0625C67.8125 86.7708 68.9271 86.0833 70.1562 85V78.2188C66.6562 78.6146 64.3125 79.125 63.125 79.75C61.9375 80.375 61.0833 81.0208 60.5625 81.6875C60.0625 82.3542 59.8125 83.1458 59.8125 84.0625ZM89.3125 93C88.0625 93 87.4375 92.375 87.4375 91.125V62.0625C87.4375 60.8125 88.0625 60.1875 89.3125 60.1875H94.25C95.5 60.1875 96.125 60.8125 96.125 62.0625V63.875H96.25C96.8542 62.5417 97.875 61.4896 99.3125 60.7188C100.75 59.9479 102.094 59.5625 103.344 59.5625C105.844 59.5625 107.781 60.1458 109.156 61.3125C110.552 62.4792 111.51 63.7812 112.031 65.2188H112.156C113.969 62.8646 115.604 61.3333 117.062 60.625C118.542 59.9167 120.427 59.5625 122.719 59.5625C125.802 59.5625 128.396 60.5833 130.5 62.625C132.625 64.6667 133.688 68.3958 133.688 73.8125V91.125C133.688 92.375 133.062 93 131.812 93H126.812C125.562 93 124.938 92.375 124.938 91.125V76.0625C124.938 71.5208 124.625 68.6562 124 67.4688C123.396 66.2812 122.312 65.6875 120.75 65.6875C119.292 65.6875 117.958 66.5417 116.75 68.25C115.542 69.9583 114.938 73.4792 114.938 78.8125V91.125C114.938 92.375 114.312 93 113.062 93H108.062C106.812 93 106.188 92.375 106.188 91.125V76.0625C106.188 71.5208 105.875 68.6562 105.25 67.4688C104.646 66.2812 103.562 65.6875 102 65.6875C100.542 65.6875 99.2083 66.5417 98 68.25C96.7917 69.9375 96.1875 73.4583 96.1875 78.8125V91.125C96.1875 92.375 95.5625 93 94.3125 93H89.3125ZM140.375 76.5938C140.375 71.3229 141.688 67.1667 144.312 64.125C146.958 61.0833 150.688 59.5625 155.5 59.5625C161.083 59.5625 165.229 61 167.938 63.875C170.646 66.75 172 71.375 172 77.75C172 79 171.417 79.625 170.25 79.625H149.625C149.958 83.0833 150.812 85.2604 152.188 86.1562C153.562 87.0521 155.156 87.5 156.969 87.5C158.698 87.5 160.021 87.2708 160.938 86.8125C161.854 86.3542 162.625 85.7292 163.25 84.9375C163.958 84.0208 164.833 83.875 165.875 84.5L169 86.4062C170.229 87.1562 170.406 88.0521 169.531 89.0938C168.26 90.6146 166.771 91.75 165.062 92.5C163.354 93.25 160.656 93.625 156.969 93.625C150.99 93.625 146.729 92.1042 144.188 89.0625C141.646 86.0208 140.375 81.8646 140.375 76.5938ZM149.656 73.375H163.25C163.25 71.125 162.688 69.2917 161.562 67.875C160.438 66.4375 158.646 65.7188 156.188 65.7188C154.229 65.7188 152.677 66.4062 151.531 67.7812C150.385 69.1354 149.76 71 149.656 73.375ZM178.156 90.8125C177.135 90.0833 176.854 89.3021 177.312 88.4688L178.906 85.5625C179.469 84.5208 180.344 84.3958 181.531 85.1875C182.719 85.9792 184.115 86.5625 185.719 86.9375C187.344 87.3125 188.823 87.5 190.156 87.5C191.094 87.5 191.969 87.4062 192.781 87.2188C193.594 87.0312 194.281 86.6667 194.844 86.125C195.406 85.5833 195.688 84.7917 195.688 83.75C195.688 83.125 195.521 82.5938 195.188 82.1562C194.854 81.7188 194.427 81.3854 193.906 81.1562C193.385 80.9271 192.833 80.7396 192.25 80.5938C191.479 80.4062 190.365 80.0938 188.906 79.6562C187.469 79.2188 186.083 78.7083 184.75 78.125C183.646 77.6458 182.562 76.9792 181.5 76.125C180.458 75.25 179.688 74.2812 179.188 73.2188C178.708 72.1562 178.469 70.8438 178.469 69.2812C178.469 67.1771 179.073 65.3333 180.281 63.75C181.51 62.1667 183.094 61.0729 185.031 60.4688C186.969 59.8646 189.385 59.5625 192.281 59.5625C194.24 59.5625 196.146 59.8438 198 60.4062C199.854 60.9688 201.177 61.5 201.969 62C203.219 62.7917 203.531 63.6354 202.906 64.5312L201 67.3125C200.417 68.1458 199.479 68.2083 198.188 67.5C197.208 66.9583 196.24 66.5208 195.281 66.1875C194.344 65.8542 193.292 65.6875 192.125 65.6875C191.333 65.6875 190.573 65.7708 189.844 65.9375C189.115 66.1042 188.49 66.4167 187.969 66.875C187.469 67.3333 187.219 67.9375 187.219 68.6875C187.219 69.4792 187.448 70.1042 187.906 70.5625C188.385 71 188.927 71.3229 189.531 71.5312C190.156 71.7396 190.75 71.9375 191.312 72.125C192.479 72.5 193.656 72.8646 194.844 73.2188C196.031 73.5521 197.24 73.9583 198.469 74.4375C199.531 74.8542 200.562 75.4479 201.562 76.2188C202.562 76.9896 203.292 77.9688 203.75 79.1562C204.208 80.3438 204.438 81.6979 204.438 83.2188C204.438 85.2396 203.833 87.1146 202.625 88.8438C201.417 90.5729 199.823 91.8021 197.844 92.5312C195.865 93.2604 193.562 93.625 190.938 93.625C188 93.625 185.5 93.4167 183.438 93C181.375 92.5833 179.615 91.8542 178.156 90.8125ZM231.375 93C230.125 93 229.5 92.4792 229.5 91.4375V89.0625C229.5 87.9792 229.927 86.8542 230.781 85.6875L244.781 66.4375V66.3125C243.948 66.3958 243.115 66.4375 242.281 66.4375H232.125C230.875 66.4375 230.25 65.9167 230.25 64.875V63.875C230.25 61.4167 230.875 60.1875 232.125 60.1875H253.75C255 60.1875 255.625 60.7083 255.625 61.75V63.9375C255.625 64.9583 255.177 66.0833 254.281 67.3125L240.188 86.75V86.875C241.292 86.7917 242.125 86.75 242.688 86.75H254.5C255.75 86.75 256.375 87.2708 256.375 88.3125V91.4375C256.375 92.4792 255.75 93 254.5 93H231.375ZM260.5 76.5938C260.5 71.2812 261.865 67.1146 264.594 64.0938C267.344 61.0729 271.427 59.5625 276.844 59.5625C282.26 59.5625 286.333 61.0729 289.062 64.0938C291.812 67.1146 293.188 71.2812 293.188 76.5938C293.188 81.9062 291.812 86.0729 289.062 89.0938C286.333 92.1146 282.26 93.625 276.844 93.625C271.427 93.625 267.344 92.1146 264.594 89.0938C261.865 86.0729 260.5 81.9062 260.5 76.5938ZM269.75 76.5938C269.75 80.5521 270.354 83.3646 271.562 85.0312C272.792 86.6771 274.552 87.5 276.844 87.5C279.135 87.5 280.885 86.6771 282.094 85.0312C283.323 83.3646 283.938 80.5521 283.938 76.5938C283.938 72.6354 283.323 69.8333 282.094 68.1875C280.885 66.5208 279.135 65.6875 276.844 65.6875C274.552 65.6875 272.792 66.5208 271.562 68.1875C270.354 69.8333 269.75 72.6354 269.75 76.5938ZM301.812 93C300.562 93 299.938 92.375 299.938 91.125V62.0625C299.938 60.8125 300.562 60.1875 301.812 60.1875H306.75C308 60.1875 308.625 60.8125 308.625 62.0625V63.875H308.75C309.708 62.2292 310.927 61.1042 312.406 60.5C313.885 59.875 315.667 59.5625 317.75 59.5625C321 59.5625 323.688 60.5833 325.812 62.625C327.938 64.6667 329 68.3958 329 73.8125V91.125C329 92.375 328.375 93 327.125 93H322.125C320.875 93 320.25 92.375 320.25 91.125V76.0625C320.25 71.5208 319.938 68.6562 319.312 67.4688C318.688 66.2812 317.344 65.6875 315.281 65.6875C313.094 65.6875 311.448 66.5417 310.344 68.25C309.24 69.9375 308.688 73.4583 308.688 78.8125V91.125C308.688 92.375 308.062 93 306.812 93H301.812ZM335.688 76.5938C335.688 71.3229 337 67.1667 339.625 64.125C342.271 61.0833 346 59.5625 350.812 59.5625C356.396 59.5625 360.542 61 363.25 63.875C365.958 66.75 367.312 71.375 367.312 77.75C367.312 79 366.729 79.625 365.562 79.625H344.938C345.271 83.0833 346.125 85.2604 347.5 86.1562C348.875 87.0521 350.469 87.5 352.281 87.5C354.01 87.5 355.333 87.2708 356.25 86.8125C357.167 86.3542 357.938 85.7292 358.562 84.9375C359.271 84.0208 360.146 83.875 361.188 84.5L364.312 86.4062C365.542 87.1562 365.719 88.0521 364.844 89.0938C363.573 90.6146 362.083 91.75 360.375 92.5C358.667 93.25 355.969 93.625 352.281 93.625C346.302 93.625 342.042 92.1042 339.5 89.0625C336.958 86.0208 335.688 81.8646 335.688 76.5938ZM344.969 73.375H358.562C358.562 71.125 358 69.2917 356.875 67.875C355.75 66.4375 353.958 65.7188 351.5 65.7188C349.542 65.7188 347.99 66.4062 346.844 67.7812C345.698 69.1354 345.073 71 344.969 73.375Z" fill="black"/>
</svg>
