<svg width="344" height="215" viewBox="0 0 344 215" fill="none" xmlns="http://www.w3.org/2000/svg">
<path d="M317.85 59.5957L318.309 132.462L63.15 172.065L9.4068 19.1813L317.85 59.5957Z" stroke="#FF0000" stroke-width="5"/>
<path d="M28.1655 82.6724L26.3515 76.7395H17.2815L15.4675 82.6724H9.78134L18.5722 57.6494H25.0259L33.8517 82.6724H28.1655ZM25.0956 72.3072L23.2816 66.5139C23.1654 66.1184 23.0142 65.6181 22.8281 65.0132C22.6421 64.4083 22.456 63.7917 22.27 63.1635C22.0839 62.5353 21.9328 61.9886 21.8165 61.5233C21.7002 61.9886 21.5374 62.5703 21.3281 63.2682C21.1421 63.943 20.956 64.5944 20.77 65.2226C20.6072 65.8275 20.4793 66.258 20.3862 66.5139L18.6071 72.3072H25.0956ZM44.3319 83.0214C41.4947 83.0214 39.2969 82.242 37.7388 80.6831C36.2038 79.101 35.4364 76.6231 35.4364 73.2495C35.4364 70.9229 35.8317 69.0267 36.6224 67.5609C37.4132 66.0951 38.5062 65.0132 39.9016 64.3152C41.3202 63.6172 42.9482 63.2682 44.7854 63.2682C46.0878 63.2682 47.2157 63.3962 48.1692 63.6521C49.146 63.9081 49.9948 64.2105 50.7158 64.5595L49.1809 68.573C48.3669 68.2472 47.5994 67.9797 46.8785 67.7703C46.1808 67.5609 45.4831 67.4562 44.7854 67.4562C42.0877 67.4562 40.7388 69.3757 40.7388 73.2146C40.7388 75.1225 41.0877 76.5301 41.7854 77.4375C42.5063 78.3449 43.5063 78.7985 44.7854 78.7985C45.8785 78.7985 46.8436 78.6589 47.6808 78.3798C48.5181 78.0773 49.332 77.6701 50.1227 77.1583V81.5905C49.332 82.1024 48.4948 82.463 47.6111 82.6724C46.7506 82.9051 45.6575 83.0214 44.3319 83.0214ZM62.2511 83.0214C59.4139 83.0214 57.2161 82.242 55.658 80.6831C54.123 79.101 53.3556 76.6231 53.3556 73.2495C53.3556 70.9229 53.7509 69.0267 54.5417 67.5609C55.3324 66.0951 56.4254 65.0132 57.8208 64.3152C59.2394 63.6172 60.8674 63.2682 62.7046 63.2682C64.007 63.2682 65.1349 63.3962 66.0884 63.6521C67.0652 63.9081 67.914 64.2105 68.635 64.5595L67.1001 68.573C66.2861 68.2472 65.5186 67.9797 64.7977 67.7703C64.1 67.5609 63.4023 67.4562 62.7046 67.4562C60.0069 67.4562 58.658 69.3757 58.658 73.2146C58.658 75.1225 59.0069 76.5301 59.7046 77.4375C60.4255 78.3449 61.4255 78.7985 62.7046 78.7985C63.7977 78.7985 64.7628 78.6589 65.6 78.3798C66.4373 78.0773 67.2512 77.6701 68.0419 77.1583V81.5905C67.2512 82.1024 66.414 82.463 65.5303 82.6724C64.6698 82.9051 63.5767 83.0214 62.2511 83.0214ZM89.7287 73.1099C89.7287 76.2741 88.8914 78.7171 87.217 80.4388C85.5658 82.1605 83.3099 83.0214 80.4494 83.0214C78.6819 83.0214 77.1005 82.6375 75.7051 81.8697C74.333 81.1019 73.2516 79.9851 72.4609 78.5194C71.6701 77.0303 71.2748 75.2272 71.2748 73.1099C71.2748 69.9457 72.1004 67.5144 73.7516 65.8159C75.4028 64.1175 77.6703 63.2682 80.5541 63.2682C82.3448 63.2682 83.9262 63.6521 85.2983 64.4199C86.6705 65.1877 87.7519 66.3045 88.5426 67.7703C89.3333 69.2128 89.7287 70.9927 89.7287 73.1099ZM76.5772 73.1099C76.5772 74.9945 76.8796 76.4254 77.4842 77.4026C78.1121 78.3565 79.1238 78.8334 80.5192 78.8334C81.8913 78.8334 82.8797 78.3565 83.4844 77.4026C84.1123 76.4254 84.4262 74.9945 84.4262 73.1099C84.4262 71.2253 84.1123 69.8177 83.4844 68.8871C82.8797 67.9331 81.8797 67.4562 80.4843 67.4562C79.1122 67.4562 78.1121 67.9331 77.4842 68.8871C76.8796 69.8177 76.5772 71.2253 76.5772 73.1099ZM114.816 89.5127H110.141V82.6724H94.0244V63.6172H99.2222V78.7636H106.827V63.6172H112.025V78.8683H114.816V89.5127ZM123.065 63.6172V71.1555C123.065 71.5511 123.042 72.0397 122.995 72.6213C122.972 73.203 122.937 73.7963 122.89 74.4012C122.867 75.0061 122.832 75.5413 122.786 76.0066C122.739 76.4719 122.704 76.7976 122.681 76.9838L131.472 63.6172H137.716V82.6724H132.693V75.0643C132.693 74.4361 132.716 73.7497 132.763 73.0052C132.809 72.2374 132.856 71.5278 132.902 70.8763C132.972 70.2016 133.019 69.6898 133.042 69.3408L124.286 82.6724H118.041V63.6172H123.065ZM150.963 63.2333C153.521 63.2333 155.474 63.7917 156.823 64.9085C158.195 66.002 158.881 67.6889 158.881 69.969V82.6724H155.254L154.242 80.0898H154.102C153.288 81.1135 152.428 81.8581 151.521 82.3234C150.614 82.7887 149.37 83.0214 147.788 83.0214C146.091 83.0214 144.684 82.5328 143.567 81.5556C142.451 80.5552 141.893 79.0312 141.893 76.9838C141.893 74.9596 142.602 73.4705 144.021 72.5166C145.439 71.5394 147.567 71.0043 150.405 70.9112L153.719 70.8065V69.969C153.719 68.9685 153.451 68.2356 152.916 67.7703C152.405 67.305 151.684 67.0723 150.753 67.0723C149.823 67.0723 148.916 67.2119 148.032 67.4911C147.149 67.747 146.265 68.0727 145.381 68.4683L143.672 64.9434C144.695 64.4083 145.823 63.9895 147.056 63.687C148.311 63.3846 149.614 63.2333 150.963 63.2333ZM153.719 73.8428L151.695 73.9126C150.021 73.9591 148.858 74.2616 148.207 74.82C147.556 75.3784 147.23 76.1113 147.23 77.0187C147.23 77.8097 147.463 78.3798 147.928 78.7287C148.393 79.0545 148.998 79.2173 149.742 79.2173C150.858 79.2173 151.8 78.8916 152.567 78.2402C153.335 77.5654 153.719 76.6231 153.719 75.4133V73.8428ZM184.994 89.5127H180.319V82.6724H164.202V63.6172H169.4V78.7636H177.005V63.6172H182.203V78.8683H184.994V89.5127ZM193.243 63.6172V71.1555C193.243 71.5511 193.219 72.0397 193.173 72.6213C193.15 73.203 193.115 73.7963 193.068 74.4012C193.045 75.0061 193.01 75.5413 192.964 76.0066C192.917 76.4719 192.882 76.7976 192.859 76.9838L201.65 63.6172H207.894V82.6724H202.871V75.0643C202.871 74.4361 202.894 73.7497 202.941 73.0052C202.987 72.2374 203.034 71.5278 203.08 70.8763C203.15 70.2016 203.196 69.6898 203.22 69.3408L194.464 82.6724H188.219V63.6172H193.243ZM216.222 82.6724H210.606L215.734 75.1341C214.757 74.7386 213.885 74.0987 213.117 73.2146C212.373 72.3072 212.001 71.0741 212.001 69.5153C212.001 67.6074 212.722 66.1533 214.164 65.1528C215.606 64.1291 217.455 63.6172 219.71 63.6172H228.571V82.6724H223.373V75.5878H220.513L216.222 82.6724ZM217.094 69.5502C217.094 70.3412 217.408 70.9694 218.036 71.4347C218.664 71.8768 219.478 72.0978 220.478 72.0978H223.373V67.2817H219.815C218.885 67.2817 218.199 67.5144 217.757 67.9797C217.315 68.4217 217.094 68.9452 217.094 69.5502ZM268.694 73.1099C268.694 76.2741 267.892 78.7171 266.287 80.4388C264.706 82.1605 262.531 83.0214 259.764 83.0214C257.415 83.0214 255.45 82.3583 253.868 81.0321C252.287 79.6827 251.333 77.612 251.008 74.82H247.589V82.6724H242.391V63.6172H247.589V70.9461H251.077C251.426 68.4566 252.38 66.5604 253.938 65.2575C255.496 63.9313 257.473 63.2682 259.868 63.2682C261.589 63.2682 263.113 63.6521 264.438 64.4199C265.764 65.1877 266.799 66.3045 267.543 67.7703C268.31 69.2128 268.694 70.9927 268.694 73.1099ZM256.24 73.1099C256.24 74.9945 256.519 76.4254 257.077 77.4026C257.636 78.3565 258.554 78.8334 259.833 78.8334C261.089 78.8334 261.996 78.3565 262.554 77.4026C263.113 76.4254 263.392 74.9945 263.392 73.1099C263.392 71.2253 263.113 69.8177 262.554 68.8871C261.996 67.9331 261.078 67.4562 259.798 67.4562C258.543 67.4562 257.636 67.9331 257.077 68.8871C256.519 69.8177 256.24 71.2253 256.24 73.1099ZM278.181 63.6172V70.9461H285.437V63.6172H290.634V82.6724H285.437V74.82H278.181V82.6724H272.983V63.6172H278.181ZM296.08 82.6724V63.6172H301.278V70.981H303.79C306.697 70.981 308.848 71.4464 310.243 72.377C311.639 73.3077 312.336 74.7153 312.336 76.5999C312.336 78.4379 311.685 79.9153 310.383 81.0321C309.081 82.1256 306.941 82.6724 303.964 82.6724H296.08ZM315.092 82.6724V63.6172H320.29V82.6724H315.092ZM301.278 79.0777H303.685C304.708 79.0777 305.534 78.8916 306.162 78.5194C306.813 78.1471 307.139 77.5305 307.139 76.6697C307.139 75.2737 305.964 74.5757 303.615 74.5757H301.278V79.0777ZM329.626 72.9354L323.486 63.6172H329.381L333.079 69.6898L336.812 63.6172H342.707L336.498 72.9354L342.986 82.6724H337.091L333.079 76.1462L329.067 82.6724H323.172L329.626 72.9354ZM20.0237 106.272V125.327H14.8259V110.181H7.9188V125.327H2.72101V106.272H20.0237ZM36.0826 105.923C38.2222 105.923 39.9548 106.761 41.2804 108.436C42.606 110.088 43.2688 112.531 43.2688 115.765C43.2688 118.999 42.5828 121.465 41.2106 123.164C39.8385 124.839 38.0827 125.676 35.9431 125.676C34.5709 125.676 33.4779 125.432 32.6639 124.944C31.85 124.432 31.1872 123.862 30.6755 123.233H30.3964C30.5825 124.211 30.6755 125.141 30.6755 126.025V133.703H25.4777V106.272H29.6987L30.4313 108.75H30.6755C31.1872 107.982 31.8732 107.319 32.7337 106.761C33.5942 106.202 34.7105 105.923 36.0826 105.923ZM34.4082 110.076C33.0593 110.076 32.1058 110.495 31.5476 111.333C31.0127 112.17 30.722 113.45 30.6755 115.172V115.73C30.6755 117.568 30.943 118.987 31.4779 119.988C32.036 120.965 33.036 121.454 34.4779 121.454C35.664 121.454 36.5361 120.965 37.0943 119.988C37.6757 118.987 37.9664 117.556 37.9664 115.695C37.9664 111.949 36.7803 110.076 34.4082 110.076ZM64.8557 115.765C64.8557 118.929 64.0185 121.372 62.3441 123.094C60.6929 124.816 58.437 125.676 55.5765 125.676C53.809 125.676 52.2275 125.293 50.8322 124.525C49.46 123.757 48.3786 122.64 47.5879 121.174C46.7972 119.685 46.4018 117.882 46.4018 115.765C46.4018 112.601 47.2274 110.169 48.8786 108.471C50.5298 106.772 52.7973 105.923 55.6811 105.923C57.4719 105.923 59.0533 106.307 60.4254 107.075C61.7975 107.843 62.8789 108.96 63.6697 110.425C64.4604 111.868 64.8557 113.648 64.8557 115.765ZM51.7043 115.765C51.7043 117.65 52.0066 119.08 52.6113 120.058C53.2392 121.012 54.2508 121.488 55.6462 121.488C57.0184 121.488 58.0067 121.012 58.6114 120.058C59.2393 119.08 59.5533 117.65 59.5533 115.765C59.5533 113.88 59.2393 112.473 58.6114 111.542C58.0067 110.588 57.0067 110.111 55.6113 110.111C54.2392 110.111 53.2392 110.588 52.6113 111.542C52.0066 112.473 51.7043 113.88 51.7043 115.765ZM82.3029 106.272V110.181H74.3493V125.327H69.1515V106.272H82.3029ZM96.4151 105.923C98.5546 105.923 100.287 106.761 101.613 108.436C102.938 110.088 103.601 112.531 103.601 115.765C103.601 118.999 102.915 121.465 101.543 123.164C100.171 124.839 98.415 125.676 96.2755 125.676C94.9034 125.676 93.8104 125.432 92.9964 124.944C92.1824 124.432 91.5196 123.862 91.008 123.233H90.7289C90.9149 124.211 91.008 125.141 91.008 126.025V133.703H85.8102V106.272H90.0312L90.7638 108.75H91.008C91.5196 107.982 92.2057 107.319 93.0662 106.761C93.9266 106.202 95.0429 105.923 96.4151 105.923ZM94.7406 110.076C93.3917 110.076 92.4382 110.495 91.8801 111.333C91.3452 112.17 91.0545 113.45 91.008 115.172V115.73C91.008 117.568 91.2754 118.987 91.8103 119.988C92.3685 120.965 93.3685 121.454 94.8104 121.454C95.9965 121.454 96.8686 120.965 97.4266 119.988C98.008 118.987 98.2987 117.556 98.2987 115.695C98.2987 111.949 97.1127 110.076 94.7406 110.076ZM115.699 105.888C118.258 105.888 120.211 106.447 121.56 107.564C122.932 108.657 123.618 110.344 123.618 112.624V125.327H119.99L118.978 122.745H118.839C118.025 123.769 117.164 124.513 116.257 124.978C115.35 125.444 114.106 125.676 112.525 125.676C110.827 125.676 109.42 125.188 108.304 124.211C107.187 123.21 106.629 121.686 106.629 119.639C106.629 117.615 107.339 116.126 108.757 115.172C110.176 114.194 112.304 113.659 115.141 113.566L118.455 113.462V112.624C118.455 111.624 118.188 110.891 117.653 110.425C117.141 109.96 116.42 109.727 115.49 109.727C114.56 109.727 113.653 109.867 112.769 110.146C111.885 110.402 111.002 110.728 110.118 111.123L108.408 107.598C109.432 107.063 110.56 106.645 111.792 106.342C113.048 106.04 114.35 105.888 115.699 105.888ZM118.455 116.498L116.432 116.568C114.757 116.614 113.595 116.917 112.943 117.475C112.292 118.033 111.967 118.766 111.967 119.674C111.967 120.465 112.199 121.035 112.664 121.384C113.129 121.71 113.734 121.872 114.478 121.872C115.595 121.872 116.537 121.547 117.304 120.895C118.071 120.22 118.455 119.278 118.455 118.068V116.498ZM152.939 106.272V125.327H148.091V115.974C148.091 115.044 148.102 114.136 148.125 113.252C148.172 112.368 148.23 111.554 148.3 110.809H148.195L142.928 125.327H139.021L133.683 110.774H133.544C133.637 111.542 133.695 112.368 133.718 113.252C133.765 114.113 133.788 115.067 133.788 116.114V125.327H128.939V106.272H136.3L141.044 119.185L145.858 106.272H152.939ZM182.373 106.272V125.327H177.524V115.974C177.524 115.044 177.536 114.136 177.559 113.252C177.606 112.368 177.664 111.554 177.734 110.809H177.629L172.361 125.327H168.454L163.117 110.774H162.978C163.071 111.542 163.129 112.368 163.152 113.252C163.198 114.113 163.222 115.067 163.222 116.114V125.327H158.373V106.272H165.733L170.478 119.185L175.292 106.272H182.373ZM192.83 106.272V113.811C192.83 114.206 192.807 114.695 192.76 115.276C192.737 115.858 192.702 116.451 192.655 117.056C192.632 117.661 192.597 118.196 192.551 118.662C192.504 119.127 192.469 119.453 192.446 119.639L201.237 106.272H207.481V125.327H202.458V117.719C202.458 117.091 202.481 116.405 202.528 115.66C202.574 114.892 202.621 114.183 202.667 113.531C202.737 112.857 202.784 112.345 202.807 111.996L194.051 125.327H187.807V106.272H192.83ZM220.658 125.676C217.821 125.676 215.623 124.897 214.065 123.338C212.53 121.756 211.763 119.278 211.763 115.905C211.763 113.578 212.158 111.682 212.949 110.216C213.739 108.75 214.832 107.668 216.228 106.97C217.646 106.272 219.274 105.923 221.112 105.923C222.414 105.923 223.542 106.051 224.495 106.307C225.472 106.563 226.321 106.866 227.042 107.215L225.507 111.228C224.693 110.902 223.926 110.635 223.205 110.425C222.507 110.216 221.809 110.111 221.112 110.111C218.414 110.111 217.065 112.031 217.065 115.87C217.065 117.777 217.414 119.185 218.111 120.092C218.832 121 219.832 121.454 221.112 121.454C222.205 121.454 223.17 121.314 224.007 121.035C224.844 120.732 225.658 120.325 226.449 119.813V124.246C225.658 124.757 224.821 125.118 223.937 125.327C223.077 125.56 221.984 125.676 220.658 125.676ZM246.601 110.181H240.356V125.327H235.158V110.181H228.914V106.272H246.601V110.181ZM267.077 115.765C267.077 118.929 266.239 121.372 264.565 123.094C262.914 124.816 260.658 125.676 257.797 125.676C256.03 125.676 254.449 125.293 253.053 124.525C251.681 123.757 250.6 122.64 249.809 121.174C249.018 119.685 248.623 117.882 248.623 115.765C248.623 112.601 249.448 110.169 251.1 108.471C252.751 106.772 255.018 105.923 257.902 105.923C259.693 105.923 261.274 106.307 262.646 107.075C264.019 107.843 265.1 108.96 265.891 110.425C266.681 111.868 267.077 113.648 267.077 115.765ZM253.925 115.765C253.925 117.65 254.228 119.08 254.832 120.058C255.46 121.012 256.472 121.488 257.867 121.488C259.239 121.488 260.228 121.012 260.832 120.058C261.46 119.08 261.774 117.65 261.774 115.765C261.774 113.88 261.46 112.473 260.832 111.542C260.228 110.588 259.228 110.111 257.832 110.111C256.46 110.111 255.46 110.588 254.832 111.542C254.228 112.473 253.925 113.88 253.925 115.765ZM288.256 111.263C288.256 112.287 287.931 113.159 287.28 113.88C286.652 114.602 285.71 115.067 284.454 115.276V115.416C285.78 115.579 286.838 116.033 287.629 116.777C288.443 117.522 288.85 118.475 288.85 119.639C288.85 120.732 288.559 121.71 287.977 122.57C287.419 123.431 286.524 124.106 285.291 124.595C284.059 125.083 282.442 125.327 280.442 125.327H271.372V106.272H280.442C281.931 106.272 283.256 106.435 284.419 106.761C285.605 107.063 286.536 107.575 287.21 108.296C287.908 109.018 288.256 110.007 288.256 111.263ZM282.989 111.682C282.989 110.518 282.07 109.937 280.233 109.937H276.57V113.706H279.64C280.733 113.706 281.559 113.555 282.117 113.252C282.698 112.926 282.989 112.403 282.989 111.682ZM283.477 119.36C283.477 118.615 283.187 118.08 282.605 117.754C282.024 117.405 281.152 117.231 279.989 117.231H276.57V121.733H280.093C281.07 121.733 281.873 121.558 282.501 121.209C283.152 120.837 283.477 120.22 283.477 119.36Z" fill="black"/>
</svg>
