<svg width="549" height="318" viewBox="0 0 549 318" fill="none" xmlns="http://www.w3.org/2000/svg">
<rect x="1.5" y="1.5" width="546" height="315" rx="41.5" fill="white" stroke="black" stroke-width="3"/>
<rect x="37.8403" y="243.5" width="472.021" height="53" rx="26.5" stroke="black" stroke-width="3"/>
<path d="M217.891 270.112C217.891 272.776 217.435 275.104 216.523 277.096C215.635 279.064 214.315 280.6 212.563 281.704C210.811 282.808 208.639 283.36 206.047 283.36C203.383 283.36 201.163 282.808 199.387 281.704C197.635 280.6 196.327 279.052 195.463 277.06C194.599 275.068 194.167 272.74 194.167 270.076C194.167 267.436 194.599 265.132 195.463 263.164C196.327 261.196 197.635 259.66 199.387 258.556C201.163 257.452 203.395 256.9 206.083 256.9C208.651 256.9 210.811 257.452 212.563 258.556C214.315 259.636 215.635 261.172 216.523 263.164C217.435 265.132 217.891 267.448 217.891 270.112ZM197.587 270.112C197.587 273.352 198.271 275.908 199.639 277.78C201.007 279.628 203.143 280.552 206.047 280.552C208.975 280.552 211.111 279.628 212.455 277.78C213.799 275.908 214.471 273.352 214.471 270.112C214.471 266.872 213.799 264.34 212.455 262.516C211.111 260.668 208.987 259.744 206.083 259.744C203.179 259.744 201.031 260.668 199.639 262.516C198.271 264.34 197.587 266.872 197.587 270.112ZM236.476 266.368H230.176V283H227.044V266.368H220.816V263.704H236.476V266.368ZM255.793 268.564C255.793 269.764 255.433 270.7 254.713 271.372C253.993 272.044 253.069 272.5 251.941 272.74V272.884C253.141 273.052 254.185 273.484 255.073 274.18C255.961 274.852 256.405 275.908 256.405 277.348C256.405 278.98 255.793 280.336 254.569 281.416C253.369 282.472 251.377 283 248.593 283H240.277V263.704H248.557C249.925 263.704 251.149 263.86 252.229 264.172C253.333 264.46 254.197 264.964 254.821 265.684C255.469 266.38 255.793 267.34 255.793 268.564ZM252.589 268.96C252.589 268.048 252.253 267.388 251.581 266.98C250.933 266.548 249.865 266.332 248.377 266.332H243.445V271.624H247.801C250.993 271.624 252.589 270.736 252.589 268.96ZM253.129 277.348C253.129 276.244 252.709 275.452 251.869 274.972C251.029 274.492 249.793 274.252 248.161 274.252H243.445V280.444H248.233C249.817 280.444 251.029 280.216 251.869 279.76C252.709 279.28 253.129 278.476 253.129 277.348ZM268.471 263.344C270.127 263.344 271.543 263.704 272.719 264.424C273.919 265.144 274.831 266.164 275.455 267.484C276.103 268.78 276.427 270.304 276.427 272.056V273.964H263.215C263.263 276.148 263.815 277.816 264.871 278.968C265.951 280.096 267.451 280.66 269.371 280.66C270.595 280.66 271.675 280.552 272.611 280.336C273.571 280.096 274.555 279.76 275.563 279.328V282.1C274.579 282.532 273.607 282.844 272.647 283.036C271.687 283.252 270.547 283.36 269.227 283.36C267.403 283.36 265.783 282.988 264.367 282.244C262.975 281.5 261.883 280.396 261.091 278.932C260.323 277.444 259.939 275.632 259.939 273.496C259.939 271.384 260.287 269.572 260.983 268.06C261.703 266.548 262.699 265.384 263.971 264.568C265.267 263.752 266.767 263.344 268.471 263.344ZM268.435 265.936C266.923 265.936 265.723 266.428 264.835 267.412C263.971 268.372 263.455 269.716 263.287 271.444H273.115C273.091 269.812 272.707 268.492 271.963 267.484C271.219 266.452 270.043 265.936 268.435 265.936ZM294.659 266.368H288.359V283H285.227V266.368H278.999V263.704H294.659V266.368ZM301.448 263.704V275.476C301.448 275.764 301.436 276.196 301.412 276.772C301.388 277.348 301.352 277.924 301.304 278.5C301.28 279.076 301.256 279.532 301.232 279.868L311.564 263.704H315.452V283H312.5V271.624C312.5 271.24 312.5 270.736 312.5 270.112C312.524 269.488 312.548 268.876 312.572 268.276C312.596 267.652 312.62 267.184 312.644 266.872L302.384 283H298.46V263.704H301.448ZM334.913 266.368H328.613V283H325.481V266.368H319.253V263.704H334.913V266.368ZM341.882 271.624H347.606C352.622 271.624 355.13 273.448 355.13 277.096C355.13 278.896 354.518 280.336 353.294 281.416C352.07 282.472 350.126 283 347.462 283H338.714V263.704H341.882V271.624ZM351.962 277.276C351.962 276.1 351.542 275.308 350.702 274.9C349.886 274.468 348.734 274.252 347.246 274.252H341.882V280.444H347.318C348.662 280.444 349.766 280.204 350.63 279.724C351.518 279.244 351.962 278.428 351.962 277.276Z" fill="black"/>
<path d="M44.3143 54H40.8943V30.78L40.2643 27.18C40.6243 27.12 41.0443 27.066 41.5243 27.018C42.0163 26.97 42.5323 26.928 43.0723 26.892C43.6123 26.856 44.1583 26.832 44.7103 26.82C45.2623 26.796 45.7723 26.784 46.2403 26.784C48.2803 26.784 50.0383 26.97 51.5143 27.342C53.0023 27.702 54.2263 28.212 55.1863 28.872C56.1463 29.52 56.8543 30.3 57.3103 31.212C57.7783 32.124 58.0123 33.126 58.0123 34.218C58.0123 35.838 57.7243 37.194 57.1483 38.286C56.5723 39.378 55.7143 40.26 54.5743 40.932C53.4343 41.592 52.0063 42.066 50.2903 42.354C48.5743 42.63 46.5823 42.768 44.3143 42.768V54ZM44.3143 33.354V40.23C46.1383 40.23 47.6983 40.128 48.9943 39.924C50.2903 39.72 51.3523 39.39 52.1803 38.934C53.0083 38.466 53.6143 37.854 53.9983 37.098C54.3823 36.342 54.5743 35.406 54.5743 34.29C54.5743 33.486 54.3403 32.778 53.8723 32.166C53.4163 31.542 52.8223 31.026 52.0903 30.618C51.3583 30.198 50.5483 29.88 49.6603 29.664C48.7723 29.448 47.9023 29.34 47.0503 29.34C46.8463 29.34 46.6003 29.346 46.3123 29.358C46.0363 29.358 45.7543 29.37 45.4663 29.394C45.1783 29.406 44.8963 29.424 44.6203 29.448C44.3563 29.472 44.1343 29.502 43.9543 29.538L44.3143 33.354ZM72.5704 47.448L77.4124 34.2L80.6524 33.84L73.3804 54.306C73.0204 55.314 72.6304 56.316 72.2104 57.312C71.8024 58.308 71.3344 59.202 70.8064 59.994C70.2904 60.786 69.7024 61.422 69.0424 61.902C68.3944 62.394 67.6504 62.64 66.8104 62.64C66.1384 62.64 65.5204 62.508 64.9564 62.244C64.3924 61.98 63.8584 61.632 63.3544 61.2L64.6684 59.094C64.7404 59.166 64.8304 59.25 64.9384 59.346C65.0584 59.442 65.1844 59.532 65.3164 59.616C65.4604 59.712 65.6104 59.79 65.7664 59.85C65.9344 59.91 66.1024 59.94 66.2704 59.94C66.7024 59.94 67.0924 59.784 67.4404 59.472C67.8004 59.172 68.1304 58.776 68.4304 58.284C68.7424 57.792 69.0244 57.246 69.2764 56.646C69.5404 56.046 69.7924 55.446 70.0324 54.846L62.7064 34.2L66.1264 33.84L70.8784 47.448L71.8144 51.624L72.5704 47.448ZM93.4465 47.232C93.4465 48.024 93.4885 48.69 93.5725 49.23C93.6685 49.758 93.8005 50.19 93.9685 50.526C94.1485 50.85 94.3645 51.084 94.6165 51.228C94.8805 51.36 95.1805 51.426 95.5165 51.426C96.0805 51.426 96.6385 51.36 97.1905 51.228C97.7425 51.096 98.2585 50.946 98.7385 50.778C99.2185 50.598 99.6445 50.424 100.016 50.256C100.388 50.076 100.676 49.944 100.88 49.86L102.122 52.038C102.014 52.134 101.75 52.308 101.33 52.56C100.922 52.8 100.4 53.052 99.7645 53.316C99.1405 53.58 98.4325 53.808 97.6405 54C96.8485 54.204 96.0205 54.306 95.1565 54.306C94.0765 54.306 93.2065 54.108 92.5465 53.712C91.8985 53.316 91.4005 52.776 91.0525 52.092C90.7045 51.408 90.4765 50.616 90.3685 49.716C90.2605 48.804 90.2065 47.832 90.2065 46.8V37.08H84.9685V34.2H90.2065V30.438L93.3565 28.44V34.2H102.068L101.708 37.08H93.4465V47.232ZM113.621 54H110.381V28.8L110.021 25.2L113.621 24.84V36.9L115.223 34.83C115.691 34.566 116.363 34.344 117.239 34.164C118.115 33.984 119.243 33.894 120.623 33.894C122.435 33.894 123.815 34.494 124.763 35.694C125.723 36.882 126.203 38.604 126.203 40.86V54H122.783V41.238C122.783 40.434 122.711 39.75 122.567 39.186C122.435 38.622 122.243 38.16 121.991 37.8C121.739 37.44 121.427 37.182 121.055 37.026C120.683 36.858 120.263 36.774 119.795 36.774C119.075 36.774 118.385 36.846 117.725 36.99C117.077 37.134 116.483 37.32 115.943 37.548C115.403 37.764 114.929 38.004 114.521 38.268C114.125 38.532 113.825 38.778 113.621 39.006V54ZM141.679 54.306C140.347 54.306 139.123 54.048 138.007 53.532C136.903 53.004 135.949 52.284 135.145 51.372C134.341 50.448 133.711 49.362 133.255 48.114C132.811 46.866 132.589 45.51 132.589 44.046C132.589 42.594 132.805 41.25 133.237 40.014C133.669 38.766 134.281 37.692 135.073 36.792C135.865 35.88 136.819 35.172 137.935 34.668C139.063 34.152 140.311 33.894 141.679 33.894C143.011 33.894 144.223 34.152 145.315 34.668C146.407 35.172 147.343 35.88 148.123 36.792C148.915 37.692 149.527 38.766 149.959 40.014C150.391 41.25 150.607 42.594 150.607 44.046C150.607 45.51 150.397 46.866 149.977 48.114C149.569 49.362 148.975 50.448 148.195 51.372C147.427 52.284 146.491 53.004 145.387 53.532C144.283 54.048 143.047 54.306 141.679 54.306ZM147.187 44.532C147.187 43.56 147.085 42.606 146.881 41.67C146.677 40.734 146.353 39.9 145.909 39.168C145.465 38.424 144.889 37.824 144.181 37.368C143.473 36.912 142.615 36.684 141.607 36.684C140.647 36.684 139.813 36.882 139.105 37.278C138.397 37.674 137.815 38.202 137.359 38.862C136.903 39.522 136.561 40.272 136.333 41.112C136.117 41.952 136.009 42.816 136.009 43.704C136.009 44.676 136.117 45.63 136.333 46.566C136.561 47.502 136.903 48.336 137.359 49.068C137.827 49.8 138.421 50.394 139.141 50.85C139.873 51.294 140.743 51.516 141.751 51.516C142.699 51.516 143.515 51.318 144.199 50.922C144.895 50.526 145.459 50.004 145.891 49.356C146.335 48.696 146.659 47.952 146.863 47.124C147.079 46.284 147.187 45.42 147.187 44.532ZM160.449 54H157.209V34.2L160.449 33.84V37.314L161.547 35.208C161.763 35.064 162.015 34.914 162.303 34.758C162.603 34.602 162.963 34.464 163.383 34.344C163.803 34.212 164.301 34.104 164.877 34.02C165.453 33.936 166.131 33.894 166.911 33.894C167.859 33.894 168.711 34.05 169.467 34.362C170.235 34.662 170.877 35.1 171.393 35.676C171.921 36.252 172.323 36.948 172.599 37.764C172.887 38.58 173.031 39.492 173.031 40.5V54H169.791V40.5C169.791 39.852 169.683 39.294 169.467 38.826C169.263 38.358 168.975 37.974 168.603 37.674C168.231 37.362 167.799 37.134 167.307 36.99C166.815 36.846 166.293 36.774 165.741 36.774C165.165 36.774 164.607 36.846 164.067 36.99C163.539 37.134 163.047 37.32 162.591 37.548C162.135 37.764 161.721 38.004 161.349 38.268C160.989 38.52 160.689 38.76 160.449 38.988V54ZM42.0603 63.72C43.927 63.72 45.287 64.0867 46.1403 64.82C46.9937 65.5533 47.4203 66.5867 47.4203 67.92C47.4203 68.7067 47.2403 69.4467 46.8803 70.14C46.5337 70.82 45.9403 71.3733 45.1003 71.8C44.2737 72.2267 43.147 72.44 41.7203 72.44H40.0803V78H38.2803V63.72H42.0603ZM41.9003 65.26H40.0803V70.9H41.5203C42.8803 70.9 43.8937 70.68 44.5603 70.24C45.227 69.8 45.5603 69.0533 45.5603 68C45.5603 67.08 45.267 66.3933 44.6803 65.94C44.0937 65.4867 43.167 65.26 41.9003 65.26ZM54.2897 67.08C55.2097 67.08 55.9964 67.28 56.6497 67.68C57.3164 68.08 57.823 68.6467 58.1697 69.38C58.5297 70.1 58.7097 70.9467 58.7097 71.92V72.98H51.3697C51.3964 74.1933 51.703 75.12 52.2897 75.76C52.8897 76.3867 53.723 76.7 54.7897 76.7C55.4697 76.7 56.0697 76.64 56.5897 76.52C57.123 76.3867 57.6697 76.2 58.2297 75.96V77.5C57.683 77.74 57.143 77.9133 56.6097 78.02C56.0764 78.14 55.443 78.2 54.7097 78.2C53.6964 78.2 52.7964 77.9933 52.0097 77.58C51.2364 77.1667 50.6297 76.5533 50.1897 75.74C49.763 74.9133 49.5497 73.9067 49.5497 72.72C49.5497 71.5467 49.743 70.54 50.1297 69.7C50.5297 68.86 51.083 68.2133 51.7897 67.76C52.5097 67.3067 53.343 67.08 54.2897 67.08ZM54.2697 68.52C53.4297 68.52 52.763 68.7933 52.2697 69.34C51.7897 69.8733 51.503 70.62 51.4097 71.58H56.8697C56.8564 70.6733 56.643 69.94 56.2297 69.38C55.8164 68.8067 55.163 68.52 54.2697 68.52ZM67.9788 67.28V68.76H63.1988V78H61.4388V67.28H67.9788ZM68.4111 67.28H70.2911L72.6111 73.38C72.8111 73.9133 72.9911 74.4267 73.1511 74.92C73.3111 75.4 73.4311 75.86 73.5111 76.3H73.5911C73.6711 75.9667 73.7978 75.5333 73.9711 75C74.1444 74.4533 74.3244 73.9067 74.5111 73.36L76.6911 67.28H78.5911L73.9711 79.48C73.5978 80.4933 73.1111 81.3 72.5111 81.9C71.9244 82.5 71.1111 82.8 70.0711 82.8C69.7511 82.8 69.4711 82.78 69.2311 82.74C68.9911 82.7133 68.7844 82.68 68.6111 82.64V81.24C68.7578 81.2667 68.9311 81.2933 69.1311 81.32C69.3444 81.3467 69.5644 81.36 69.7911 81.36C70.4044 81.36 70.8978 81.1867 71.2711 80.84C71.6578 80.4933 71.9578 80.0333 72.1711 79.46L72.7311 78.04L68.4111 67.28ZM88.0558 78H86.2758V68.74H83.1158C82.9425 70.9933 82.7025 72.8133 82.3958 74.2C82.0891 75.5733 81.6825 76.5733 81.1758 77.2C80.6691 77.8267 80.0291 78.14 79.2558 78.14C79.0825 78.14 78.9091 78.1267 78.7358 78.1C78.5758 78.0867 78.4425 78.0533 78.3358 78V76.68C78.4158 76.7067 78.5025 76.7267 78.5958 76.74C78.6891 76.7533 78.7825 76.76 78.8758 76.76C79.5958 76.76 80.1691 75.9933 80.5958 74.46C81.0358 72.9267 81.3691 70.5333 81.5958 67.28H88.0558V78ZM92.1183 78H90.0783L93.1383 73.5C92.725 73.3933 92.325 73.2267 91.9383 73C91.5516 72.76 91.2383 72.4333 90.9983 72.02C90.7583 71.5933 90.6383 71.0667 90.6383 70.44C90.6383 69.4133 90.985 68.6333 91.6783 68.1C92.3716 67.5533 93.2916 67.28 94.4383 67.28H99.2383V78H97.4783V73.74H94.8783L92.1183 78ZM92.3383 70.46C92.3383 71.0733 92.565 71.5333 93.0183 71.84C93.485 72.1333 94.1316 72.28 94.9583 72.28H97.4783V68.74H94.6183C93.805 68.74 93.2183 68.9 92.8583 69.22C92.5116 69.54 92.3383 69.9533 92.3383 70.46ZM107.73 67.08C109.05 67.08 110.11 67.54 110.91 68.46C111.724 69.38 112.13 70.7667 112.13 72.62C112.13 74.4467 111.724 75.8333 110.91 76.78C110.11 77.7267 109.044 78.2 107.71 78.2C106.884 78.2 106.197 78.0467 105.65 77.74C105.117 77.42 104.697 77.0533 104.39 76.64H104.27C104.297 76.8667 104.324 77.1533 104.35 77.5C104.377 77.8467 104.39 78.1467 104.39 78.4V82.8H102.63V67.28H104.07L104.31 68.74H104.39C104.71 68.2733 105.13 67.88 105.65 67.56C106.17 67.24 106.864 67.08 107.73 67.08ZM107.41 68.56C106.317 68.56 105.544 68.8667 105.09 69.48C104.65 70.0933 104.417 71.0267 104.39 72.28V72.62C104.39 73.94 104.604 74.96 105.03 75.68C105.47 76.3867 106.277 76.74 107.45 76.74C108.104 76.74 108.637 76.56 109.05 76.2C109.477 75.84 109.79 75.3533 109.99 74.74C110.204 74.1133 110.31 73.4 110.31 72.6C110.31 71.3733 110.07 70.3933 109.59 69.66C109.124 68.9267 108.397 68.56 107.41 68.56ZM116.695 67.28V71.74H122.515V67.28H124.275V78H122.515V73.22H116.695V78H114.935V67.28H116.695ZM127.669 78V67.28H129.429V71.68H132.209C133.596 71.68 134.623 71.9333 135.289 72.44C135.956 72.9467 136.289 73.7067 136.289 74.72C136.289 75.72 135.963 76.52 135.309 77.12C134.656 77.7067 133.596 78 132.129 78H127.669ZM138.069 78V67.28H139.829V78H138.069ZM129.429 76.58H131.969C132.729 76.58 133.349 76.4533 133.829 76.2C134.309 75.9333 134.549 75.4733 134.549 74.82C134.549 74.1667 134.329 73.7267 133.889 73.5C133.449 73.26 132.816 73.14 131.989 73.14H129.429V76.58ZM147.376 67.08C148.296 67.08 149.082 67.28 149.736 67.68C150.402 68.08 150.909 68.6467 151.256 69.38C151.616 70.1 151.796 70.9467 151.796 71.92V72.98H144.456C144.482 74.1933 144.789 75.12 145.376 75.76C145.976 76.3867 146.809 76.7 147.876 76.7C148.556 76.7 149.156 76.64 149.676 76.52C150.209 76.3867 150.756 76.2 151.316 75.96V77.5C150.769 77.74 150.229 77.9133 149.696 78.02C149.162 78.14 148.529 78.2 147.796 78.2C146.782 78.2 145.882 77.9933 145.096 77.58C144.322 77.1667 143.716 76.5533 143.276 75.74C142.849 74.9133 142.636 73.9067 142.636 72.72C142.636 71.5467 142.829 70.54 143.216 69.7C143.616 68.86 144.169 68.2133 144.876 67.76C145.596 67.3067 146.429 67.08 147.376 67.08ZM147.356 68.52C146.516 68.52 145.849 68.7933 145.356 69.34C144.876 69.8733 144.589 70.62 144.496 71.58H149.956C149.942 70.6733 149.729 69.94 149.316 69.38C148.902 68.8067 148.249 68.52 147.356 68.52ZM176.153 69.98C176.153 70.6467 175.953 71.1667 175.553 71.54C175.153 71.9133 174.639 72.1667 174.013 72.3V72.38C174.679 72.4733 175.259 72.7133 175.753 73.1C176.246 73.4733 176.493 74.06 176.493 74.86C176.493 75.7667 176.153 76.52 175.473 77.12C174.806 77.7067 173.699 78 172.153 78H167.533V67.28H172.133C172.893 67.28 173.573 67.3667 174.173 67.54C174.786 67.7 175.266 67.98 175.613 68.38C175.973 68.7667 176.153 69.3 176.153 69.98ZM174.373 70.2C174.373 69.6933 174.186 69.3267 173.813 69.1C173.453 68.86 172.859 68.74 172.033 68.74H169.293V71.68H171.713C173.486 71.68 174.373 71.1867 174.373 70.2ZM174.673 74.86C174.673 74.2467 174.439 73.8067 173.973 73.54C173.506 73.2733 172.819 73.14 171.913 73.14H169.293V76.58H171.953C172.833 76.58 173.506 76.4533 173.973 76.2C174.439 75.9333 174.673 75.4867 174.673 74.86ZM179.056 78V67.28H180.816V71.68H183.596C184.983 71.68 186.009 71.9333 186.676 72.44C187.343 72.9467 187.676 73.7067 187.676 74.72C187.676 75.72 187.349 76.52 186.696 77.12C186.043 77.7067 184.983 78 183.516 78H179.056ZM189.456 78V67.28H191.216V78H189.456ZM180.816 76.58H183.356C184.116 76.58 184.736 76.4533 185.216 76.2C185.696 75.9333 185.936 75.4733 185.936 74.82C185.936 74.1667 185.716 73.7267 185.276 73.5C184.836 73.26 184.203 73.14 183.376 73.14H180.816V76.58ZM199.722 67.08C201.042 67.08 202.102 67.54 202.902 68.46C203.716 69.38 204.122 70.7667 204.122 72.62C204.122 74.4467 203.716 75.8333 202.902 76.78C202.102 77.7267 201.036 78.2 199.702 78.2C198.876 78.2 198.189 78.0467 197.642 77.74C197.109 77.42 196.689 77.0533 196.382 76.64H196.262C196.289 76.8667 196.316 77.1533 196.342 77.5C196.369 77.8467 196.382 78.1467 196.382 78.4V82.8H194.622V67.28H196.062L196.302 68.74H196.382C196.702 68.2733 197.122 67.88 197.642 67.56C198.162 67.24 198.856 67.08 199.722 67.08ZM199.402 68.56C198.309 68.56 197.536 68.8667 197.082 69.48C196.642 70.0933 196.409 71.0267 196.382 72.28V72.62C196.382 73.94 196.596 74.96 197.022 75.68C197.462 76.3867 198.269 76.74 199.442 76.74C200.096 76.74 200.629 76.56 201.042 76.2C201.469 75.84 201.782 75.3533 201.982 74.74C202.196 74.1133 202.302 73.4 202.302 72.6C202.302 71.3733 202.062 70.3933 201.582 69.66C201.116 68.9267 200.389 68.56 199.402 68.56ZM210.987 67.1C212.294 67.1 213.26 67.3867 213.887 67.96C214.514 68.5333 214.827 69.4467 214.827 70.7V78H213.547L213.207 76.48H213.127C212.66 77.0667 212.167 77.5 211.647 77.78C211.14 78.06 210.434 78.2 209.527 78.2C208.554 78.2 207.747 77.9467 207.107 77.44C206.467 76.92 206.147 76.1133 206.147 75.02C206.147 73.9533 206.567 73.1333 207.407 72.56C208.247 71.9733 209.54 71.6533 211.287 71.6L213.107 71.54V70.9C213.107 70.0067 212.914 69.3867 212.527 69.04C212.14 68.6933 211.594 68.52 210.887 68.52C210.327 68.52 209.794 68.6067 209.287 68.78C208.78 68.94 208.307 69.1267 207.867 69.34L207.327 68.02C207.794 67.7667 208.347 67.5533 208.987 67.38C209.627 67.1933 210.294 67.1 210.987 67.1ZM213.087 72.76L211.507 72.82C210.174 72.8733 209.247 73.0867 208.727 73.46C208.22 73.8333 207.967 74.36 207.967 75.04C207.967 75.64 208.147 76.08 208.507 76.36C208.88 76.64 209.354 76.78 209.927 76.78C210.834 76.78 211.587 76.5333 212.187 76.04C212.787 75.5333 213.087 74.76 213.087 73.72V72.76ZM230.998 67.28L226.578 72.48L231.378 78H229.378L224.738 72.56V78H223.098V72.56L218.458 78H216.458L221.258 72.48L216.838 67.28H218.758L223.098 72.48V67.28H224.738V72.48L229.098 67.28H230.998ZM236.887 67.08C237.807 67.08 238.594 67.28 239.247 67.68C239.914 68.08 240.421 68.6467 240.767 69.38C241.127 70.1 241.307 70.9467 241.307 71.92V72.98H233.967C233.994 74.1933 234.301 75.12 234.887 75.76C235.487 76.3867 236.321 76.7 237.387 76.7C238.067 76.7 238.667 76.64 239.187 76.52C239.721 76.3867 240.267 76.2 240.827 75.96V77.5C240.281 77.74 239.741 77.9133 239.207 78.02C238.674 78.14 238.041 78.2 237.307 78.2C236.294 78.2 235.394 77.9933 234.607 77.58C233.834 77.1667 233.227 76.5533 232.787 75.74C232.361 74.9133 232.147 73.9067 232.147 72.72C232.147 71.5467 232.341 70.54 232.727 69.7C233.127 68.86 233.681 68.2133 234.387 67.76C235.107 67.3067 235.941 67.08 236.887 67.08ZM236.867 68.52C236.027 68.52 235.361 68.7933 234.867 69.34C234.387 69.8733 234.101 70.62 234.007 71.58H239.467C239.454 70.6733 239.241 69.94 238.827 69.38C238.414 68.8067 237.761 68.52 236.867 68.52ZM245.796 67.28V71.74H251.616V67.28H253.376V78H251.616V73.22H245.796V78H244.036V67.28H245.796ZM258.431 67.28V73.82C258.431 73.98 258.424 74.22 258.411 74.54C258.397 74.86 258.377 75.18 258.351 75.5C258.337 75.82 258.324 76.0733 258.311 76.26L264.051 67.28H266.211V78H264.571V71.68C264.571 71.4667 264.571 71.1867 264.571 70.84C264.584 70.4933 264.597 70.1533 264.611 69.82C264.624 69.4733 264.637 69.2133 264.651 69.04L258.951 78H256.771V67.28H258.431ZM270.282 78H268.242L271.302 73.5C270.889 73.3933 270.489 73.2267 270.102 73C269.716 72.76 269.402 72.4333 269.162 72.02C268.922 71.5933 268.802 71.0667 268.802 70.44C268.802 69.4133 269.149 68.6333 269.842 68.1C270.536 67.5533 271.456 67.28 272.602 67.28H277.402V78H275.642V73.74H273.042L270.282 78ZM270.502 70.46C270.502 71.0733 270.729 71.5333 271.182 71.84C271.649 72.1333 272.296 72.28 273.122 72.28H275.642V68.74H272.782C271.969 68.74 271.382 68.9 271.022 69.22C270.676 69.54 270.502 69.9533 270.502 70.46Z" fill="black"/>
<path d="M38.4888 136C38.1632 136 38.0005 135.821 38.0005 135.463V122.533C38.0005 122.175 38.1632 121.996 38.4888 121.996H39.3872C39.7127 121.996 39.8755 122.175 39.8755 122.533V127.914H46.6919V122.533C46.6919 122.175 46.8547 121.996 47.1802 121.996H48.0786C48.4041 121.996 48.5669 122.175 48.5669 122.533V135.463C48.5669 135.821 48.4041 136 48.0786 136H47.1802C46.8547 136 46.6919 135.821 46.6919 135.463V129.516H39.8755V135.463C39.8755 135.821 39.7127 136 39.3872 136H38.4888ZM50.9009 126.225C50.7837 125.906 50.8716 125.746 51.1646 125.746H52.229C52.4438 125.746 52.5903 125.873 52.6685 126.127L54.7192 132.572C54.7778 132.748 54.8657 133.025 54.9829 133.402C55.1066 133.773 55.1945 134.105 55.2466 134.398H55.2661C55.3182 134.105 55.38 133.842 55.4517 133.607C55.5298 133.367 55.6437 133.021 55.7935 132.572L57.8638 126.127C57.9484 125.873 58.0949 125.746 58.3032 125.746H59.3677C59.6606 125.746 59.7485 125.906 59.6313 126.225L56.3403 135.404C55.7218 137.13 55.1685 138.337 54.6802 139.027C54.1919 139.724 53.4627 140.072 52.4927 140.072C51.9849 140.072 51.5812 139.997 51.2817 139.848C51.145 139.783 51.0994 139.682 51.145 139.545L51.3989 138.754C51.4445 138.617 51.5324 138.578 51.6626 138.637C51.9295 138.747 52.1867 138.803 52.4341 138.803C52.8898 138.803 53.2609 138.555 53.5474 138.061C53.8338 137.572 54.0617 137.081 54.231 136.586L54.4263 136.01L50.9009 126.225ZM68.3813 136C68.0884 136 67.9419 135.854 67.9419 135.561V126.186C67.9419 125.893 68.0884 125.746 68.3813 125.746H69.2212C69.5142 125.746 69.6606 125.893 69.6606 126.186V130.004H74.3872V126.186C74.3872 125.893 74.5337 125.746 74.8267 125.746H75.6665C75.9595 125.746 76.106 125.893 76.106 126.186V135.561C76.106 135.854 75.9595 136 75.6665 136H74.8267C74.5337 136 74.3872 135.854 74.3872 135.561V131.293H69.6606V135.561C69.6606 135.854 69.5142 136 69.2212 136H68.3813ZM78.3228 130.873C78.3228 129.258 78.7264 127.973 79.5337 127.016C80.341 126.059 81.4966 125.58 83.0005 125.58C84.2505 125.58 85.2856 126.02 86.106 126.898C86.9328 127.771 87.3462 129.167 87.3462 131.088C87.3462 131.381 87.2127 131.527 86.9458 131.527H80.1392C80.2498 132.784 80.5884 133.66 81.1548 134.154C81.7212 134.643 82.3625 134.887 83.0786 134.887C83.8338 134.887 84.4132 134.76 84.8169 134.506C85.2205 134.252 85.5168 134.001 85.7056 133.754C85.9139 133.48 86.1157 133.428 86.311 133.598L86.8872 134.096C87.0369 134.226 87.0369 134.405 86.8872 134.633C86.7635 134.822 86.4087 135.124 85.8228 135.541C85.2433 135.958 84.3286 136.166 83.0786 136.166C81.451 136.166 80.2498 135.688 79.4751 134.73C78.7069 133.773 78.3228 132.488 78.3228 130.873ZM80.1001 130.258H85.6177C85.5916 129.346 85.3573 128.549 84.9146 127.865C84.4718 127.175 83.8208 126.83 82.9614 126.83C82.2062 126.83 81.5649 127.084 81.0376 127.592C80.5103 128.093 80.1978 128.982 80.1001 130.258ZM88.8892 126.225C88.772 125.906 88.8599 125.746 89.1528 125.746H90.2173C90.4321 125.746 90.5786 125.873 90.6567 126.127L92.7075 132.572C92.7661 132.748 92.854 133.025 92.9712 133.402C93.0949 133.773 93.1828 134.105 93.2349 134.398H93.2544C93.3065 134.105 93.3683 133.842 93.4399 133.607C93.5181 133.367 93.632 133.021 93.7817 132.572L95.8521 126.127C95.9367 125.873 96.0832 125.746 96.2915 125.746H97.356C97.6489 125.746 97.7368 125.906 97.6196 126.225L94.3286 135.404C93.7101 137.13 93.1567 138.337 92.6685 139.027C92.1802 139.724 91.451 140.072 90.481 140.072C89.9731 140.072 89.5695 139.997 89.27 139.848C89.1333 139.783 89.0877 139.682 89.1333 139.545L89.3872 138.754C89.4328 138.617 89.5207 138.578 89.6509 138.637C89.9178 138.747 90.175 138.803 90.4224 138.803C90.8781 138.803 91.2492 138.555 91.5356 138.061C91.8221 137.572 92.05 137.081 92.2192 136.586L92.4146 136.01L88.8892 126.225ZM99.1235 136C98.7199 136 98.6353 135.808 98.8696 135.424L100.784 132.25C101.122 131.697 101.415 131.319 101.663 131.117C101.91 130.909 102.196 130.74 102.522 130.609V130.59C102.236 130.512 101.969 130.336 101.721 130.062C101.474 129.789 101.226 129.47 100.979 129.105L99.0942 126.322C98.8338 125.938 98.9185 125.746 99.3481 125.746H100.237C100.478 125.746 100.65 125.831 100.754 126L102.366 128.578C102.515 128.819 102.756 129.118 103.088 129.477C103.42 129.828 103.808 130.004 104.25 130.004H104.495V126.186C104.495 125.893 104.641 125.746 104.934 125.746H105.774C106.067 125.746 106.213 125.893 106.213 126.186V130.004H106.458C106.9 130.004 107.288 129.828 107.62 129.477C107.952 129.118 108.193 128.819 108.342 128.578L109.954 126C110.058 125.831 110.23 125.746 110.471 125.746H111.36C111.79 125.746 111.874 125.938 111.614 126.322L109.729 129.105C109.482 129.47 109.234 129.789 108.987 130.062C108.739 130.336 108.472 130.512 108.186 130.59V130.609C108.512 130.74 108.798 130.909 109.045 131.117C109.293 131.319 109.586 131.697 109.924 132.25L111.838 135.424C112.073 135.808 111.988 136 111.584 136H110.637C110.403 136 110.217 135.88 110.081 135.639L108.284 132.504C108.069 132.133 107.802 131.84 107.483 131.625C107.164 131.404 106.825 131.293 106.467 131.293H106.213V135.561C106.213 135.854 106.067 136 105.774 136H104.934C104.641 136 104.495 135.854 104.495 135.561V131.293H104.241C103.883 131.293 103.544 131.404 103.225 131.625C102.906 131.84 102.639 132.133 102.424 132.504L100.627 135.639C100.491 135.88 100.305 136 100.071 136H99.1235ZM112.659 130.873C112.659 129.258 113.062 127.973 113.87 127.016C114.677 126.059 115.833 125.58 117.336 125.58C118.586 125.58 119.622 126.02 120.442 126.898C121.269 127.771 121.682 129.167 121.682 131.088C121.682 131.381 121.549 131.527 121.282 131.527H114.475C114.586 132.784 114.924 133.66 115.491 134.154C116.057 134.643 116.698 134.887 117.415 134.887C118.17 134.887 118.749 134.76 119.153 134.506C119.556 134.252 119.853 134.001 120.042 133.754C120.25 133.48 120.452 133.428 120.647 133.598L121.223 134.096C121.373 134.226 121.373 134.405 121.223 134.633C121.099 134.822 120.745 135.124 120.159 135.541C119.579 135.958 118.665 136.166 117.415 136.166C115.787 136.166 114.586 135.688 113.811 134.73C113.043 133.773 112.659 132.488 112.659 130.873ZM114.436 130.258H119.954C119.928 129.346 119.693 128.549 119.25 127.865C118.808 127.175 118.157 126.83 117.297 126.83C116.542 126.83 115.901 127.084 115.374 127.592C114.846 128.093 114.534 128.982 114.436 130.258ZM122.375 136.078C122.232 136.02 122.177 135.922 122.209 135.785L122.385 134.975C122.411 134.851 122.496 134.805 122.639 134.838C122.789 134.877 122.919 134.896 123.03 134.896C123.616 134.896 124.081 134.451 124.426 133.559C124.778 132.66 124.954 130.993 124.954 128.559V126.186C124.954 125.893 125.159 125.746 125.569 125.746H131.086C131.379 125.746 131.526 125.893 131.526 126.186V135.561C131.526 135.854 131.379 136 131.086 136H130.247C129.954 136 129.807 135.854 129.807 135.561V127.035H126.458V129.057C126.458 131.465 126.194 133.253 125.667 134.418C125.146 135.583 124.338 136.166 123.245 136.166C122.802 136.166 122.512 136.137 122.375 136.078ZM134.69 136C134.397 136 134.25 135.854 134.25 135.561V126.186C134.25 125.893 134.397 125.746 134.69 125.746H135.53C135.823 125.746 135.969 125.893 135.969 126.186V133.393C135.969 133.588 135.963 133.783 135.95 133.979H135.969L140.442 126.225C140.624 125.906 140.904 125.746 141.282 125.746H142.463C142.756 125.746 142.903 125.893 142.903 126.186V135.561C142.903 135.854 142.756 136 142.463 136H141.624C141.331 136 141.184 135.854 141.184 135.561V128.354C141.184 128.158 141.191 127.963 141.204 127.768H141.184L136.711 135.521C136.529 135.84 136.249 136 135.872 136H134.69ZM152.776 136C152.483 136 152.336 135.854 152.336 135.561V126.186C152.336 125.893 152.483 125.746 152.776 125.746H160.002C160.295 125.746 160.442 125.893 160.442 126.186V135.561C160.442 135.854 160.295 136 160.002 136H159.163C158.87 136 158.723 135.854 158.723 135.561V127.035H154.055V135.561C154.055 135.854 153.909 136 153.616 136H152.776ZM162.659 130.873C162.659 129.343 163.062 128.08 163.87 127.084C164.683 126.081 165.872 125.58 167.434 125.58C168.997 125.58 170.181 126.081 170.989 127.084C171.803 128.08 172.209 129.343 172.209 130.873C172.209 132.403 171.803 133.669 170.989 134.672C170.181 135.668 168.997 136.166 167.434 136.166C165.872 136.166 164.683 135.668 163.87 134.672C163.062 133.669 162.659 132.403 162.659 130.873ZM164.475 130.873C164.475 132.24 164.745 133.253 165.286 133.91C165.826 134.568 166.542 134.896 167.434 134.896C168.326 134.896 169.042 134.568 169.583 133.91C170.123 133.253 170.393 132.24 170.393 130.873C170.393 129.506 170.123 128.493 169.583 127.836C169.042 127.178 168.326 126.85 167.434 126.85C166.542 126.85 165.826 127.178 165.286 127.836C164.745 128.493 164.475 129.506 164.475 130.873ZM174.866 136C174.573 136 174.426 135.854 174.426 135.561V126.186C174.426 125.893 174.573 125.746 174.866 125.746H175.706C175.999 125.746 176.145 125.893 176.145 126.186V133.393C176.145 133.588 176.139 133.783 176.125 133.979H176.145L180.618 126.225C180.8 125.906 181.08 125.746 181.458 125.746H182.639C182.932 125.746 183.079 125.893 183.079 126.186V135.561C183.079 135.854 182.932 136 182.639 136H181.799C181.506 136 181.36 135.854 181.36 135.561V128.354C181.36 128.158 181.366 127.963 181.379 127.768H181.36L176.887 135.521C176.705 135.84 176.425 136 176.047 136H174.866ZM185.295 130.873C185.295 129.343 185.673 128.08 186.428 127.084C187.19 126.081 188.352 125.58 189.915 125.58C190.969 125.58 191.773 125.769 192.327 126.146C192.887 126.518 193.29 126.898 193.538 127.289C193.674 127.504 193.645 127.676 193.45 127.807L192.834 128.207C192.639 128.344 192.444 128.256 192.249 127.943C192.06 127.644 191.793 127.387 191.448 127.172C191.109 126.957 190.598 126.85 189.915 126.85C189.023 126.85 188.333 127.178 187.844 127.836C187.356 128.493 187.112 129.506 187.112 130.873C187.112 132.24 187.356 133.253 187.844 133.91C188.333 134.568 189.023 134.896 189.915 134.896C190.637 134.896 191.191 134.76 191.575 134.486C191.959 134.206 192.239 133.904 192.415 133.578C192.584 133.272 192.776 133.184 192.991 133.314L193.645 133.705C193.84 133.822 193.87 133.998 193.733 134.232C193.57 134.512 193.199 134.906 192.62 135.414C192.047 135.915 191.145 136.166 189.915 136.166C188.352 136.166 187.19 135.668 186.428 134.672C185.673 133.669 185.295 132.403 185.295 130.873ZM196.311 136C196.018 136 195.872 135.854 195.872 135.561V126.186C195.872 125.893 196.018 125.746 196.311 125.746H197.151C197.444 125.746 197.59 125.893 197.59 126.186V130.004H197.991C198.446 130.004 198.847 129.831 199.192 129.486C199.543 129.141 199.804 128.839 199.973 128.578L201.624 126C201.734 125.831 201.907 125.746 202.141 125.746H203.03C203.466 125.746 203.551 125.938 203.284 126.322L201.301 129.164C201.171 129.353 200.94 129.62 200.608 129.965C200.282 130.31 199.976 130.518 199.69 130.59V130.609C200.061 130.733 200.377 130.896 200.637 131.098C200.898 131.299 201.204 131.684 201.555 132.25L203.508 135.424C203.743 135.808 203.658 136 203.254 136H202.297C202.069 136 201.884 135.88 201.741 135.639L199.915 132.504C199.7 132.133 199.417 131.84 199.065 131.625C198.713 131.404 198.359 131.293 198 131.293H197.59V135.561C197.59 135.854 197.444 136 197.151 136H196.311ZM212.961 136C212.636 136 212.473 135.821 212.473 135.463V122.533C212.473 122.175 212.636 121.996 212.961 121.996H213.86C214.185 121.996 214.348 122.175 214.348 122.533V135.463C214.348 135.821 214.185 136 213.86 136H212.961ZM218.157 136C217.831 136 217.668 135.821 217.668 135.463V122.533C217.668 122.175 217.831 121.996 218.157 121.996H222.258C224.472 121.996 225.966 122.37 226.741 123.119C227.515 123.861 227.903 124.883 227.903 126.186C227.903 127.488 227.515 128.513 226.741 129.262C225.966 130.004 224.472 130.375 222.258 130.375H219.543V135.463C219.543 135.821 219.381 136 219.055 136H218.157ZM219.543 128.773H222.288C223.72 128.773 224.696 128.572 225.217 128.168C225.738 127.758 225.999 127.097 225.999 126.186C225.999 125.274 225.738 124.617 225.217 124.213C224.696 123.803 223.72 123.598 222.288 123.598H219.543V128.773ZM229.768 131.283C229.475 131.283 229.329 131.169 229.329 130.941V130.258C229.329 130.03 229.475 129.916 229.768 129.916H234.436C234.729 129.916 234.875 130.03 234.875 130.258V130.941C234.875 131.169 234.729 131.283 234.436 131.283H229.768ZM236.252 133.266C236.252 132.107 236.793 131.257 237.874 130.717C238.961 130.176 240.582 129.861 242.737 129.77V129.105C242.737 128.493 242.597 127.966 242.317 127.523C242.043 127.074 241.497 126.85 240.676 126.85C240.155 126.85 239.739 126.902 239.426 127.006C239.114 127.104 238.827 127.237 238.567 127.406C238.313 127.569 238.069 127.781 237.834 128.041C237.659 128.236 237.493 128.246 237.336 128.07L236.829 127.484C236.685 127.322 236.734 127.126 236.975 126.898C237.32 126.573 237.655 126.329 237.981 126.166C238.306 126.003 238.71 125.867 239.192 125.756C239.68 125.639 240.175 125.58 240.676 125.58C242.037 125.58 243.007 125.932 243.586 126.635C244.166 127.331 244.456 128.288 244.456 129.506V135.561C244.456 135.854 244.309 136 244.016 136H243.137C242.883 136 242.756 135.854 242.756 135.561V135.082H242.737C242.222 135.486 241.718 135.769 241.223 135.932C240.735 136.088 240.188 136.166 239.583 136.166C238.515 136.166 237.691 135.912 237.112 135.404C236.539 134.89 236.252 134.177 236.252 133.266ZM238.03 133.305C238.03 133.708 238.114 134.034 238.284 134.281C238.453 134.522 238.687 134.678 238.987 134.75C239.286 134.815 239.599 134.848 239.924 134.848C240.426 134.848 240.901 134.799 241.35 134.701C241.799 134.604 242.262 134.346 242.737 133.93V131.049C241.422 131.146 240.484 131.267 239.924 131.41C239.364 131.547 238.909 131.788 238.557 132.133C238.206 132.471 238.03 132.862 238.03 133.305ZM246.672 139.027C246.412 139.027 246.282 138.881 246.282 138.588V135.15C246.282 134.857 246.428 134.711 246.721 134.711H247.346C248.017 134.086 248.45 133.106 248.645 131.771C248.847 130.437 248.948 129.324 248.948 128.432V126.186C248.948 125.893 249.153 125.746 249.563 125.746H255.081C255.374 125.746 255.52 125.893 255.52 126.186V134.711H256.682C256.975 134.711 257.122 134.857 257.122 135.15V138.588C257.122 138.881 256.991 139.027 256.731 139.027H256.008C255.748 139.027 255.618 138.881 255.618 138.588V136H247.786V138.588C247.786 138.881 247.655 139.027 247.395 139.027H246.672ZM249.065 134.711H253.801V127.035H250.452V128.969C250.452 130.674 250.295 132.006 249.983 132.963C249.677 133.92 249.371 134.503 249.065 134.711ZM259.495 139.906C259.202 139.906 259.055 139.76 259.055 139.467V126.186C259.055 125.893 259.202 125.746 259.495 125.746H260.315C260.549 125.746 260.676 125.893 260.696 126.186L260.754 126.967H260.774C261.132 126.537 261.536 126.199 261.985 125.951C262.434 125.704 263.033 125.58 263.782 125.58C265.084 125.58 266.073 126.114 266.75 127.182C267.428 128.243 267.766 129.473 267.766 130.873C267.766 132.273 267.428 133.507 266.75 134.574C266.073 135.635 265.084 136.166 263.782 136.166C263.033 136.166 262.434 136.042 261.985 135.795C261.536 135.548 261.132 135.209 260.774 134.779H260.754C260.767 134.975 260.774 135.173 260.774 135.375V139.467C260.774 139.76 260.627 139.906 260.334 139.906H259.495ZM260.774 131.996C260.774 132.973 261.005 133.702 261.467 134.184C261.936 134.659 262.522 134.896 263.225 134.896C264.215 134.896 264.915 134.525 265.325 133.783C265.741 133.041 265.95 132.071 265.95 130.873C265.95 129.675 265.741 128.705 265.325 127.963C264.915 127.221 264.215 126.85 263.225 126.85C262.522 126.85 261.936 127.09 261.467 127.572C261.005 128.048 260.774 128.773 260.774 129.75V131.996ZM269.436 130.873C269.436 129.258 269.84 127.973 270.647 127.016C271.454 126.059 272.61 125.58 274.114 125.58C275.364 125.58 276.399 126.02 277.219 126.898C278.046 127.771 278.459 129.167 278.459 131.088C278.459 131.381 278.326 131.527 278.059 131.527H271.252C271.363 132.784 271.702 133.66 272.268 134.154C272.834 134.643 273.476 134.887 274.192 134.887C274.947 134.887 275.527 134.76 275.93 134.506C276.334 134.252 276.63 134.001 276.819 133.754C277.027 133.48 277.229 133.428 277.424 133.598L278 134.096C278.15 134.226 278.15 134.405 278 134.633C277.877 134.822 277.522 135.124 276.936 135.541C276.357 135.958 275.442 136.166 274.192 136.166C272.564 136.166 271.363 135.688 270.588 134.73C269.82 133.773 269.436 132.488 269.436 130.873ZM271.213 130.258H276.731C276.705 129.346 276.471 128.549 276.028 127.865C275.585 127.175 274.934 126.83 274.075 126.83C273.319 126.83 272.678 127.084 272.151 127.592C271.624 128.093 271.311 128.982 271.213 130.258ZM280.159 130.873C280.159 129.343 280.536 128.08 281.292 127.084C282.053 126.081 283.215 125.58 284.778 125.58C285.833 125.58 286.637 125.769 287.19 126.146C287.75 126.518 288.153 126.898 288.401 127.289C288.538 127.504 288.508 127.676 288.313 127.807L287.698 128.207C287.502 128.344 287.307 128.256 287.112 127.943C286.923 127.644 286.656 127.387 286.311 127.172C285.972 126.957 285.461 126.85 284.778 126.85C283.886 126.85 283.196 127.178 282.708 127.836C282.219 128.493 281.975 129.506 281.975 130.873C281.975 132.24 282.219 133.253 282.708 133.91C283.196 134.568 283.886 134.896 284.778 134.896C285.5 134.896 286.054 134.76 286.438 134.486C286.822 134.206 287.102 133.904 287.278 133.578C287.447 133.272 287.639 133.184 287.854 133.314L288.508 133.705C288.704 133.822 288.733 133.998 288.596 134.232C288.433 134.512 288.062 134.906 287.483 135.414C286.91 135.915 286.008 136.166 284.778 136.166C283.215 136.166 282.053 135.668 281.292 134.672C280.536 133.669 280.159 132.403 280.159 130.873ZM290.178 133.266C290.178 132.107 290.719 131.257 291.799 130.717C292.887 130.176 294.508 129.861 296.663 129.77V129.105C296.663 128.493 296.523 127.966 296.243 127.523C295.969 127.074 295.422 126.85 294.602 126.85C294.081 126.85 293.665 126.902 293.352 127.006C293.04 127.104 292.753 127.237 292.493 127.406C292.239 127.569 291.995 127.781 291.76 128.041C291.584 128.236 291.418 128.246 291.262 128.07L290.754 127.484C290.611 127.322 290.66 127.126 290.901 126.898C291.246 126.573 291.581 126.329 291.907 126.166C292.232 126.003 292.636 125.867 293.118 125.756C293.606 125.639 294.101 125.58 294.602 125.58C295.963 125.58 296.933 125.932 297.512 126.635C298.092 127.331 298.381 128.288 298.381 129.506V135.561C298.381 135.854 298.235 136 297.942 136H297.063C296.809 136 296.682 135.854 296.682 135.561V135.082H296.663C296.148 135.486 295.644 135.769 295.149 135.932C294.661 136.088 294.114 136.166 293.508 136.166C292.441 136.166 291.617 135.912 291.038 135.404C290.465 134.89 290.178 134.177 290.178 133.266ZM291.956 133.305C291.956 133.708 292.04 134.034 292.209 134.281C292.379 134.522 292.613 134.678 292.913 134.75C293.212 134.815 293.525 134.848 293.85 134.848C294.351 134.848 294.827 134.799 295.276 134.701C295.725 134.604 296.187 134.346 296.663 133.93V131.049C295.347 131.146 294.41 131.267 293.85 131.41C293.29 131.547 292.834 131.788 292.483 132.133C292.131 132.471 291.956 132.862 291.956 133.305ZM307.229 131.234C306.936 131.234 306.79 131.12 306.79 130.893V130.307C306.79 130.079 306.936 129.965 307.229 129.965H325.647C325.94 129.965 326.086 130.079 326.086 130.307V130.893C326.086 131.12 325.94 131.234 325.647 131.234H307.229ZM334.114 134.555C333.944 134.333 333.951 134.154 334.133 134.018L334.709 133.559C334.931 133.383 335.133 133.445 335.315 133.744C335.53 134.076 335.813 134.353 336.165 134.574C336.516 134.789 337.083 134.896 337.864 134.896C338.788 134.896 339.488 134.62 339.963 134.066C340.439 133.507 340.693 132.582 340.725 131.293H336.35C336.057 131.293 335.911 131.179 335.911 130.951V130.365C335.911 130.137 336.057 130.023 336.35 130.023H340.686C340.686 129.047 340.429 128.275 339.915 127.709C339.407 127.136 338.723 126.85 337.864 126.85C337.2 126.85 336.676 126.954 336.292 127.162C335.914 127.364 335.637 127.579 335.461 127.807C335.234 128.093 335.028 128.155 334.846 127.992L334.299 127.504C334.124 127.348 334.153 127.139 334.387 126.879C334.635 126.605 335.035 126.322 335.588 126.029C336.148 125.73 336.907 125.58 337.864 125.58C339.459 125.58 340.637 126.039 341.399 126.957C342.161 127.875 342.542 129.18 342.542 130.873C342.542 132.566 342.161 133.871 341.399 134.789C340.637 135.707 339.459 136.166 337.864 136.166C336.64 136.166 335.761 135.967 335.227 135.57C334.693 135.167 334.322 134.828 334.114 134.555ZM343.225 127.064C342.932 127.064 342.786 126.951 342.786 126.723V126.088C342.786 125.86 342.932 125.746 343.225 125.746H351.096C351.389 125.746 351.536 125.86 351.536 126.088V126.723C351.536 126.951 351.389 127.064 351.096 127.064H348.02V135.561C348.02 135.854 347.874 136 347.581 136H346.741C346.448 136 346.301 135.854 346.301 135.561V127.064H343.225ZM352.034 130.873C352.034 129.343 352.437 128.08 353.245 127.084C354.058 126.081 355.247 125.58 356.809 125.58C358.372 125.58 359.556 126.081 360.364 127.084C361.178 128.08 361.584 129.343 361.584 130.873C361.584 132.403 361.178 133.669 360.364 134.672C359.556 135.668 358.372 136.166 356.809 136.166C355.247 136.166 354.058 135.668 353.245 134.672C352.437 133.669 352.034 132.403 352.034 130.873ZM353.85 130.873C353.85 132.24 354.12 133.253 354.661 133.91C355.201 134.568 355.917 134.896 356.809 134.896C357.701 134.896 358.417 134.568 358.958 133.91C359.498 133.253 359.768 132.24 359.768 130.873C359.768 129.506 359.498 128.493 358.958 127.836C358.417 127.178 357.701 126.85 356.809 126.85C355.917 126.85 355.201 127.178 354.661 127.836C354.12 128.493 353.85 129.506 353.85 130.873ZM369.905 130.873C369.905 129.343 370.282 128.08 371.038 127.084C371.799 126.081 372.961 125.58 374.524 125.58C375.579 125.58 376.383 125.769 376.936 126.146C377.496 126.518 377.9 126.898 378.147 127.289C378.284 127.504 378.254 127.676 378.059 127.807L377.444 128.207C377.249 128.344 377.053 128.256 376.858 127.943C376.669 127.644 376.402 127.387 376.057 127.172C375.719 126.957 375.208 126.85 374.524 126.85C373.632 126.85 372.942 127.178 372.454 127.836C371.965 128.493 371.721 129.506 371.721 130.873C371.721 132.24 371.965 133.253 372.454 133.91C372.942 134.568 373.632 134.896 374.524 134.896C375.247 134.896 375.8 134.76 376.184 134.486C376.568 134.206 376.848 133.904 377.024 133.578C377.193 133.272 377.385 133.184 377.6 133.314L378.254 133.705C378.45 133.822 378.479 133.998 378.342 134.232C378.18 134.512 377.808 134.906 377.229 135.414C376.656 135.915 375.754 136.166 374.524 136.166C372.961 136.166 371.799 135.668 371.038 134.672C370.282 133.669 369.905 132.403 369.905 130.873ZM379.924 133.266C379.924 132.107 380.465 131.257 381.545 130.717C382.633 130.176 384.254 129.861 386.409 129.77V129.105C386.409 128.493 386.269 127.966 385.989 127.523C385.715 127.074 385.168 126.85 384.348 126.85C383.827 126.85 383.411 126.902 383.098 127.006C382.786 127.104 382.499 127.237 382.239 127.406C381.985 127.569 381.741 127.781 381.506 128.041C381.331 128.236 381.165 128.246 381.008 128.07L380.5 127.484C380.357 127.322 380.406 127.126 380.647 126.898C380.992 126.573 381.327 126.329 381.653 126.166C381.978 126.003 382.382 125.867 382.864 125.756C383.352 125.639 383.847 125.58 384.348 125.58C385.709 125.58 386.679 125.932 387.258 126.635C387.838 127.331 388.127 128.288 388.127 129.506V135.561C388.127 135.854 387.981 136 387.688 136H386.809C386.555 136 386.428 135.854 386.428 135.561V135.082H386.409C385.894 135.486 385.39 135.769 384.895 135.932C384.407 136.088 383.86 136.166 383.254 136.166C382.187 136.166 381.363 135.912 380.784 135.404C380.211 134.89 379.924 134.177 379.924 133.266ZM381.702 133.305C381.702 133.708 381.786 134.034 381.956 134.281C382.125 134.522 382.359 134.678 382.659 134.75C382.958 134.815 383.271 134.848 383.596 134.848C384.097 134.848 384.573 134.799 385.022 134.701C385.471 134.604 385.933 134.346 386.409 133.93V131.049C385.094 131.146 384.156 131.267 383.596 131.41C383.036 131.547 382.581 131.788 382.229 132.133C381.877 132.471 381.702 132.862 381.702 133.305ZM391.35 136C391.057 136 390.911 135.854 390.911 135.561V126.186C390.911 125.893 391.057 125.746 391.35 125.746H393.206C393.407 125.746 393.554 125.873 393.645 126.127L395.881 132.572C395.927 132.709 396.012 132.96 396.135 133.324C396.259 133.689 396.363 134.034 396.448 134.359H396.487C396.571 134.034 396.676 133.689 396.799 133.324C396.923 132.96 397.008 132.709 397.053 132.572L399.29 126.127C399.381 125.873 399.527 125.746 399.729 125.746H401.584C401.877 125.746 402.024 125.893 402.024 126.186V135.561C402.024 135.854 401.877 136 401.584 136H400.745C400.452 136 400.305 135.854 400.305 135.561V128.188C400.305 127.992 400.312 127.797 400.325 127.602H400.305L397.375 135.404C397.226 135.801 397.05 136 396.848 136H396.086C395.885 136 395.709 135.801 395.559 135.404L392.629 127.602H392.61C392.623 127.797 392.629 127.992 392.629 128.188V135.561C392.629 135.854 392.483 136 392.19 136H391.35ZM404.241 133.266C404.241 132.107 404.781 131.257 405.862 130.717C406.949 130.176 408.57 129.861 410.725 129.77V129.105C410.725 128.493 410.585 127.966 410.305 127.523C410.032 127.074 409.485 126.85 408.665 126.85C408.144 126.85 407.727 126.902 407.415 127.006C407.102 127.104 406.816 127.237 406.555 127.406C406.301 127.569 406.057 127.781 405.823 128.041C405.647 128.236 405.481 128.246 405.325 128.07L404.817 127.484C404.674 127.322 404.722 127.126 404.963 126.898C405.308 126.573 405.644 126.329 405.969 126.166C406.295 126.003 406.698 125.867 407.18 125.756C407.668 125.639 408.163 125.58 408.665 125.58C410.025 125.58 410.995 125.932 411.575 126.635C412.154 127.331 412.444 128.288 412.444 129.506V135.561C412.444 135.854 412.297 136 412.004 136H411.125C410.872 136 410.745 135.854 410.745 135.561V135.082H410.725C410.211 135.486 409.706 135.769 409.211 135.932C408.723 136.088 408.176 136.166 407.571 136.166C406.503 136.166 405.68 135.912 405.1 135.404C404.527 134.89 404.241 134.177 404.241 133.266ZM406.018 133.305C406.018 133.708 406.103 134.034 406.272 134.281C406.441 134.522 406.676 134.678 406.975 134.75C407.275 134.815 407.587 134.848 407.913 134.848C408.414 134.848 408.889 134.799 409.338 134.701C409.788 134.604 410.25 134.346 410.725 133.93V131.049C409.41 131.146 408.472 131.267 407.913 131.41C407.353 131.547 406.897 131.788 406.545 132.133C406.194 132.471 406.018 132.862 406.018 133.305ZM415.452 136C414.996 136 414.911 135.808 415.198 135.424L417.043 132.934C417.219 132.699 417.47 132.436 417.795 132.143C418.127 131.843 418.417 131.632 418.665 131.508V131.488C417.532 131.254 416.757 130.909 416.34 130.453C415.924 129.997 415.715 129.369 415.715 128.568C415.715 127.657 415.995 126.96 416.555 126.479C417.115 125.99 418.144 125.746 419.641 125.746H423.03C423.323 125.746 423.469 125.893 423.469 126.186V135.561C423.469 135.854 423.323 136 423.03 136H422.19C421.897 136 421.75 135.854 421.75 135.561V131.781H420.833C420.39 131.781 420.028 131.892 419.749 132.113C419.469 132.328 419.153 132.686 418.801 133.188L417.083 135.639C416.913 135.88 416.728 136 416.526 136H415.452ZM417.532 128.568C417.532 129.356 417.782 129.877 418.284 130.131C418.792 130.385 419.39 130.512 420.081 130.512H421.75V127.025H420.09C419.192 127.025 418.541 127.136 418.137 127.357C417.734 127.572 417.532 127.976 417.532 128.568ZM432.102 129.105V126.186C432.102 125.893 432.249 125.746 432.542 125.746H433.381C433.674 125.746 433.821 125.893 433.821 126.186V128.832C433.821 129.639 433.977 130.154 434.29 130.375C434.602 130.59 435.012 130.697 435.52 130.697C436.223 130.697 436.809 130.658 437.278 130.58C437.753 130.502 438.105 130.339 438.333 130.092V126.186C438.333 125.893 438.479 125.746 438.772 125.746H439.612C439.905 125.746 440.051 125.893 440.051 126.186V135.561C440.051 135.854 439.905 136 439.612 136H438.772C438.479 136 438.333 135.854 438.333 135.561V132.006C438.339 131.811 438.346 131.615 438.352 131.42H438.313C438.157 131.583 437.753 131.716 437.102 131.82C436.458 131.918 435.849 131.967 435.276 131.967C434.286 131.967 433.508 131.719 432.942 131.225C432.382 130.73 432.102 130.023 432.102 129.105ZM442.268 133.266C442.268 132.107 442.808 131.257 443.889 130.717C444.976 130.176 446.597 129.861 448.752 129.77V129.105C448.752 128.493 448.612 127.966 448.333 127.523C448.059 127.074 447.512 126.85 446.692 126.85C446.171 126.85 445.754 126.902 445.442 127.006C445.129 127.104 444.843 127.237 444.583 127.406C444.329 127.569 444.084 127.781 443.85 128.041C443.674 128.236 443.508 128.246 443.352 128.07L442.844 127.484C442.701 127.322 442.75 127.126 442.991 126.898C443.336 126.573 443.671 126.329 443.997 126.166C444.322 126.003 444.726 125.867 445.208 125.756C445.696 125.639 446.191 125.58 446.692 125.58C448.053 125.58 449.023 125.932 449.602 126.635C450.181 127.331 450.471 128.288 450.471 129.506V135.561C450.471 135.854 450.325 136 450.032 136H449.153C448.899 136 448.772 135.854 448.772 135.561V135.082H448.752C448.238 135.486 447.734 135.769 447.239 135.932C446.75 136.088 446.204 136.166 445.598 136.166C444.53 136.166 443.707 135.912 443.127 135.404C442.555 134.89 442.268 134.177 442.268 133.266ZM444.045 133.305C444.045 133.708 444.13 134.034 444.299 134.281C444.469 134.522 444.703 134.678 445.002 134.75C445.302 134.815 445.614 134.848 445.94 134.848C446.441 134.848 446.917 134.799 447.366 134.701C447.815 134.604 448.277 134.346 448.752 133.93V131.049C447.437 131.146 446.5 131.267 445.94 131.41C445.38 131.547 444.924 131.788 444.573 132.133C444.221 132.471 444.045 132.862 444.045 133.305ZM452.698 130.873C452.698 129.343 453.075 128.08 453.831 127.084C454.592 126.081 455.754 125.58 457.317 125.58C458.372 125.58 459.176 125.769 459.729 126.146C460.289 126.518 460.693 126.898 460.94 127.289C461.077 127.504 461.047 127.676 460.852 127.807L460.237 128.207C460.042 128.344 459.846 128.256 459.651 127.943C459.462 127.644 459.195 127.387 458.85 127.172C458.512 126.957 458 126.85 457.317 126.85C456.425 126.85 455.735 127.178 455.247 127.836C454.758 128.493 454.514 129.506 454.514 130.873C454.514 132.24 454.758 133.253 455.247 133.91C455.735 134.568 456.425 134.896 457.317 134.896C458.04 134.896 458.593 134.76 458.977 134.486C459.361 134.206 459.641 133.904 459.817 133.578C459.986 133.272 460.178 133.184 460.393 133.314L461.047 133.705C461.243 133.822 461.272 133.998 461.135 134.232C460.972 134.512 460.601 134.906 460.022 135.414C459.449 135.915 458.547 136.166 457.317 136.166C455.754 136.166 454.592 135.668 453.831 134.672C453.075 133.669 452.698 132.403 452.698 130.873ZM462.639 127.064C462.346 127.064 462.2 126.951 462.2 126.723V126.088C462.2 125.86 462.346 125.746 462.639 125.746H470.51C470.803 125.746 470.95 125.86 470.95 126.088V126.723C470.95 126.951 470.803 127.064 470.51 127.064H467.434V135.561C467.434 135.854 467.288 136 466.995 136H466.155C465.862 136 465.715 135.854 465.715 135.561V127.064H462.639ZM472.092 133.266C472.092 132.107 472.633 131.257 473.713 130.717C474.801 130.176 476.422 129.861 478.577 129.77V129.105C478.577 128.493 478.437 127.966 478.157 127.523C477.883 127.074 477.336 126.85 476.516 126.85C475.995 126.85 475.579 126.902 475.266 127.006C474.954 127.104 474.667 127.237 474.407 127.406C474.153 127.569 473.909 127.781 473.674 128.041C473.499 128.236 473.333 128.246 473.176 128.07L472.668 127.484C472.525 127.322 472.574 127.126 472.815 126.898C473.16 126.573 473.495 126.329 473.821 126.166C474.146 126.003 474.55 125.867 475.032 125.756C475.52 125.639 476.015 125.58 476.516 125.58C477.877 125.58 478.847 125.932 479.426 126.635C480.006 127.331 480.295 128.288 480.295 129.506V135.561C480.295 135.854 480.149 136 479.856 136H478.977C478.723 136 478.596 135.854 478.596 135.561V135.082H478.577C478.062 135.486 477.558 135.769 477.063 135.932C476.575 136.088 476.028 136.166 475.422 136.166C474.355 136.166 473.531 135.912 472.952 135.404C472.379 134.89 472.092 134.177 472.092 133.266ZM473.87 133.305C473.87 133.708 473.954 134.034 474.124 134.281C474.293 134.522 474.527 134.678 474.827 134.75C475.126 134.815 475.439 134.848 475.764 134.848C476.265 134.848 476.741 134.799 477.19 134.701C477.639 134.604 478.101 134.346 478.577 133.93V131.049C477.262 131.146 476.324 131.267 475.764 131.41C475.204 131.547 474.749 131.788 474.397 132.133C474.045 132.471 473.87 132.862 473.87 133.305ZM483.303 136C482.847 136 482.763 135.808 483.049 135.424L484.895 132.934C485.071 132.699 485.321 132.436 485.647 132.143C485.979 131.843 486.269 131.632 486.516 131.508V131.488C485.383 131.254 484.609 130.909 484.192 130.453C483.775 129.997 483.567 129.369 483.567 128.568C483.567 127.657 483.847 126.96 484.407 126.479C484.967 125.99 485.995 125.746 487.493 125.746H490.881C491.174 125.746 491.321 125.893 491.321 126.186V135.561C491.321 135.854 491.174 136 490.881 136H490.042C489.749 136 489.602 135.854 489.602 135.561V131.781H488.684C488.241 131.781 487.88 131.892 487.6 132.113C487.32 132.328 487.004 132.686 486.653 133.188L484.934 135.639C484.765 135.88 484.579 136 484.377 136H483.303ZM485.383 128.568C485.383 129.356 485.634 129.877 486.135 130.131C486.643 130.385 487.242 130.512 487.932 130.512H489.602V127.025H487.942C487.043 127.025 486.392 127.136 485.989 127.357C485.585 127.572 485.383 127.976 485.383 128.568ZM37.3462 163.887C37.1899 163.665 37.1802 163.486 37.3169 163.35L37.854 162.822C38.0363 162.64 38.2446 162.686 38.479 162.959C38.5181 163.005 38.7524 163.174 39.1821 163.467C39.6118 163.753 40.1522 163.896 40.8032 163.896C41.884 163.896 42.5773 163.717 42.8833 163.359C43.1893 162.995 43.3423 162.565 43.3423 162.07C43.3423 161.432 43.147 160.977 42.7563 160.703C42.3657 160.423 41.8091 160.283 41.0864 160.283H39.8755C39.5825 160.283 39.436 160.169 39.436 159.941V159.355C39.436 159.128 39.5825 159.014 39.8755 159.014H40.7642C41.5584 159.014 42.1248 158.877 42.4634 158.604C42.8084 158.324 42.981 157.92 42.981 157.393C42.981 156.813 42.7759 156.413 42.3657 156.191C41.9621 155.964 41.4347 155.85 40.7837 155.85C40.4712 155.85 40.1131 155.885 39.7095 155.957C39.3058 156.022 38.9543 156.211 38.6548 156.523C38.3748 156.816 38.1535 156.882 37.9907 156.719L37.4731 156.201C37.2843 156.012 37.3267 155.801 37.6001 155.566C37.9517 155.267 38.3716 155.029 38.8599 154.854C39.3481 154.671 40.0643 154.58 41.0083 154.58C42.3039 154.58 43.2414 154.863 43.8208 155.43C44.4067 155.99 44.6997 156.602 44.6997 157.266C44.6997 157.956 44.5695 158.464 44.3091 158.789C44.0552 159.115 43.7362 159.365 43.3521 159.541V159.57C43.8664 159.72 44.2961 160.033 44.6411 160.508C44.9862 160.977 45.1587 161.471 45.1587 161.992C45.1587 163.125 44.8039 163.939 44.0942 164.434C43.3846 164.922 42.3332 165.166 40.9399 165.166C39.8462 165.166 38.9868 164.974 38.3618 164.59C37.7433 164.206 37.4048 163.971 37.3462 163.887ZM46.7603 162.266C46.7603 161.107 47.3006 160.257 48.3813 159.717C49.4686 159.176 51.0897 158.861 53.2446 158.77V158.105C53.2446 157.493 53.1047 156.966 52.8247 156.523C52.5513 156.074 52.0044 155.85 51.1841 155.85C50.6632 155.85 50.2466 155.902 49.9341 156.006C49.6216 156.104 49.3351 156.237 49.0747 156.406C48.8208 156.569 48.5767 156.781 48.3423 157.041C48.1665 157.236 48.0005 157.246 47.8442 157.07L47.3364 156.484C47.1932 156.322 47.242 156.126 47.4829 155.898C47.828 155.573 48.1632 155.329 48.4888 155.166C48.8143 155.003 49.2179 154.867 49.6997 154.756C50.188 154.639 50.6828 154.58 51.1841 154.58C52.5448 154.58 53.5148 154.932 54.0942 155.635C54.6737 156.331 54.9634 157.288 54.9634 158.506V164.561C54.9634 164.854 54.8169 165 54.5239 165H53.645C53.3911 165 53.2642 164.854 53.2642 164.561V164.082H53.2446C52.7303 164.486 52.2257 164.769 51.731 164.932C51.2427 165.088 50.6958 165.166 50.0903 165.166C49.0226 165.166 48.1991 164.912 47.6196 164.404C47.0467 163.89 46.7603 163.177 46.7603 162.266ZM48.5376 162.305C48.5376 162.708 48.6222 163.034 48.7915 163.281C48.9608 163.522 49.1951 163.678 49.4946 163.75C49.7941 163.815 50.1066 163.848 50.4321 163.848C50.9334 163.848 51.4087 163.799 51.8579 163.701C52.3071 163.604 52.7694 163.346 53.2446 162.93V160.049C51.9295 160.146 50.992 160.267 50.4321 160.41C49.8722 160.547 49.4165 160.788 49.0649 161.133C48.7134 161.471 48.5376 161.862 48.5376 162.305ZM57.1802 168.027C56.9198 168.027 56.7896 167.881 56.7896 167.588V164.15C56.7896 163.857 56.936 163.711 57.229 163.711H57.854C58.5246 163.086 58.9575 162.106 59.1528 160.771C59.3547 159.437 59.4556 158.324 59.4556 157.432V155.186C59.4556 154.893 59.6606 154.746 60.0708 154.746H65.5884C65.8813 154.746 66.0278 154.893 66.0278 155.186V163.711H67.1899C67.4829 163.711 67.6294 163.857 67.6294 164.15V167.588C67.6294 167.881 67.4992 168.027 67.2388 168.027H66.5161C66.2557 168.027 66.1255 167.881 66.1255 167.588V165H58.2935V167.588C58.2935 167.881 58.1632 168.027 57.9028 168.027H57.1802ZM59.5728 163.711H64.3091V156.035H60.9595V157.969C60.9595 159.674 60.8032 161.006 60.4907 161.963C60.1847 162.92 59.8787 163.503 59.5728 163.711ZM69.0063 162.266C69.0063 161.107 69.5467 160.257 70.6274 159.717C71.7147 159.176 73.3358 158.861 75.4907 158.77V158.105C75.4907 157.493 75.3507 156.966 75.0708 156.523C74.7974 156.074 74.2505 155.85 73.4302 155.85C72.9093 155.85 72.4927 155.902 72.1802 156.006C71.8677 156.104 71.5812 156.237 71.3208 156.406C71.0669 156.569 70.8228 156.781 70.5884 157.041C70.4126 157.236 70.2466 157.246 70.0903 157.07L69.5825 156.484C69.4393 156.322 69.4881 156.126 69.729 155.898C70.0741 155.573 70.4093 155.329 70.7349 155.166C71.0604 155.003 71.464 154.867 71.9458 154.756C72.4341 154.639 72.9289 154.58 73.4302 154.58C74.7909 154.58 75.7609 154.932 76.3403 155.635C76.9198 156.331 77.2095 157.288 77.2095 158.506V164.561C77.2095 164.854 77.063 165 76.77 165H75.8911C75.6372 165 75.5103 164.854 75.5103 164.561V164.082H75.4907C74.9764 164.486 74.4718 164.769 73.9771 164.932C73.4888 165.088 72.9419 165.166 72.3364 165.166C71.2687 165.166 70.4451 164.912 69.8657 164.404C69.2928 163.89 69.0063 163.177 69.0063 162.266ZM70.7837 162.305C70.7837 162.708 70.8683 163.034 71.0376 163.281C71.2069 163.522 71.4412 163.678 71.7407 163.75C72.0402 163.815 72.3527 163.848 72.6782 163.848C73.1795 163.848 73.6548 163.799 74.104 163.701C74.5532 163.604 75.0155 163.346 75.4907 162.93V160.049C74.1756 160.146 73.2381 160.267 72.6782 160.41C72.1183 160.547 71.6626 160.788 71.311 161.133C70.9595 161.471 70.7837 161.862 70.7837 162.305ZM79.6216 158.105V155.186C79.6216 154.893 79.7681 154.746 80.061 154.746H80.9009C81.1938 154.746 81.3403 154.893 81.3403 155.186V157.832C81.3403 158.639 81.4966 159.154 81.8091 159.375C82.1216 159.59 82.5317 159.697 83.0396 159.697C83.7427 159.697 84.3286 159.658 84.7974 159.58C85.2726 159.502 85.6242 159.339 85.8521 159.092V155.186C85.8521 154.893 85.9985 154.746 86.2915 154.746H87.1313C87.4243 154.746 87.5708 154.893 87.5708 155.186V164.561C87.5708 164.854 87.4243 165 87.1313 165H86.2915C85.9985 165 85.8521 164.854 85.8521 164.561V161.006C85.8586 160.811 85.8651 160.615 85.8716 160.42H85.8325C85.6763 160.583 85.2726 160.716 84.6216 160.82C83.9771 160.918 83.3683 160.967 82.7954 160.967C81.8058 160.967 81.0278 160.719 80.4614 160.225C79.9015 159.73 79.6216 159.023 79.6216 158.105ZM89.7876 162.266C89.7876 161.107 90.328 160.257 91.4087 159.717C92.4959 159.176 94.117 158.861 96.272 158.77V158.105C96.272 157.493 96.132 156.966 95.8521 156.523C95.5786 156.074 95.0317 155.85 94.2114 155.85C93.6906 155.85 93.2739 155.902 92.9614 156.006C92.6489 156.104 92.3625 156.237 92.1021 156.406C91.8481 156.569 91.604 156.781 91.3696 157.041C91.1938 157.236 91.0278 157.246 90.8716 157.07L90.3638 156.484C90.2205 156.322 90.2694 156.126 90.5103 155.898C90.8553 155.573 91.1906 155.329 91.5161 155.166C91.8416 155.003 92.2453 154.867 92.7271 154.756C93.2153 154.639 93.7101 154.58 94.2114 154.58C95.5721 154.58 96.5422 154.932 97.1216 155.635C97.701 156.331 97.9907 157.288 97.9907 158.506V164.561C97.9907 164.854 97.8442 165 97.5513 165H96.6724C96.4185 165 96.2915 164.854 96.2915 164.561V164.082H96.272C95.7576 164.486 95.2531 164.769 94.7583 164.932C94.27 165.088 93.7231 165.166 93.1177 165.166C92.05 165.166 91.2264 164.912 90.647 164.404C90.0741 163.89 89.7876 163.177 89.7876 162.266ZM91.5649 162.305C91.5649 162.708 91.6496 163.034 91.8188 163.281C91.9881 163.522 92.2225 163.678 92.522 163.75C92.8215 163.815 93.134 163.848 93.4595 163.848C93.9608 163.848 94.436 163.799 94.8853 163.701C95.3345 163.604 95.7967 163.346 96.272 162.93V160.049C94.9569 160.146 94.0194 160.267 93.4595 160.41C92.8996 160.547 92.4438 160.788 92.0923 161.133C91.7407 161.471 91.5649 161.862 91.5649 162.305ZM106.868 168.027C106.607 168.027 106.477 167.881 106.477 167.588V164.15C106.477 163.857 106.624 163.711 106.917 163.711H107.542C108.212 163.086 108.645 162.106 108.84 160.771C109.042 159.437 109.143 158.324 109.143 157.432V155.186C109.143 154.893 109.348 154.746 109.758 154.746H115.276C115.569 154.746 115.715 154.893 115.715 155.186V163.711H116.877C117.17 163.711 117.317 163.857 117.317 164.15V167.588C117.317 167.881 117.187 168.027 116.926 168.027H116.204C115.943 168.027 115.813 167.881 115.813 167.588V165H107.981V167.588C107.981 167.881 107.851 168.027 107.59 168.027H106.868ZM109.26 163.711H113.997V156.035H110.647V157.969C110.647 159.674 110.491 161.006 110.178 161.963C109.872 162.92 109.566 163.503 109.26 163.711ZM118.469 165.078C118.326 165.02 118.271 164.922 118.303 164.785L118.479 163.975C118.505 163.851 118.59 163.805 118.733 163.838C118.883 163.877 119.013 163.896 119.124 163.896C119.709 163.896 120.175 163.451 120.52 162.559C120.872 161.66 121.047 159.993 121.047 157.559V155.186C121.047 154.893 121.252 154.746 121.663 154.746H127.18C127.473 154.746 127.62 154.893 127.62 155.186V164.561C127.62 164.854 127.473 165 127.18 165H126.34C126.047 165 125.901 164.854 125.901 164.561V156.035H122.551V158.057C122.551 160.465 122.288 162.253 121.76 163.418C121.239 164.583 120.432 165.166 119.338 165.166C118.896 165.166 118.606 165.137 118.469 165.078ZM130.569 165C130.113 165 130.028 164.808 130.315 164.424L132.161 161.934C132.336 161.699 132.587 161.436 132.913 161.143C133.245 160.843 133.534 160.632 133.782 160.508V160.488C132.649 160.254 131.874 159.909 131.458 159.453C131.041 158.997 130.833 158.369 130.833 157.568C130.833 156.657 131.112 155.96 131.672 155.479C132.232 154.99 133.261 154.746 134.758 154.746H138.147C138.44 154.746 138.586 154.893 138.586 155.186V164.561C138.586 164.854 138.44 165 138.147 165H137.307C137.014 165 136.868 164.854 136.868 164.561V160.781H135.95C135.507 160.781 135.146 160.892 134.866 161.113C134.586 161.328 134.27 161.686 133.918 162.188L132.2 164.639C132.03 164.88 131.845 165 131.643 165H130.569ZM132.649 157.568C132.649 158.356 132.9 158.877 133.401 159.131C133.909 159.385 134.508 159.512 135.198 159.512H136.868V156.025H135.208C134.309 156.025 133.658 156.136 133.254 156.357C132.851 156.572 132.649 156.976 132.649 157.568ZM148.03 168.906C147.737 168.906 147.59 168.76 147.59 168.467V155.186C147.59 154.893 147.737 154.746 148.03 154.746H148.85C149.084 154.746 149.211 154.893 149.231 155.186L149.29 155.967H149.309C149.667 155.537 150.071 155.199 150.52 154.951C150.969 154.704 151.568 154.58 152.317 154.58C153.619 154.58 154.609 155.114 155.286 156.182C155.963 157.243 156.301 158.473 156.301 159.873C156.301 161.273 155.963 162.507 155.286 163.574C154.609 164.635 153.619 165.166 152.317 165.166C151.568 165.166 150.969 165.042 150.52 164.795C150.071 164.548 149.667 164.209 149.309 163.779H149.29C149.303 163.975 149.309 164.173 149.309 164.375V168.467C149.309 168.76 149.163 168.906 148.87 168.906H148.03ZM149.309 160.996C149.309 161.973 149.54 162.702 150.002 163.184C150.471 163.659 151.057 163.896 151.76 163.896C152.75 163.896 153.45 163.525 153.86 162.783C154.277 162.041 154.485 161.071 154.485 159.873C154.485 158.675 154.277 157.705 153.86 156.963C153.45 156.221 152.75 155.85 151.76 155.85C151.057 155.85 150.471 156.09 150.002 156.572C149.54 157.048 149.309 157.773 149.309 158.75V160.996ZM157.971 159.873C157.971 158.258 158.375 156.973 159.182 156.016C159.989 155.059 161.145 154.58 162.649 154.58C163.899 154.58 164.934 155.02 165.754 155.898C166.581 156.771 166.995 158.167 166.995 160.088C166.995 160.381 166.861 160.527 166.594 160.527H159.788C159.898 161.784 160.237 162.66 160.803 163.154C161.37 163.643 162.011 163.887 162.727 163.887C163.482 163.887 164.062 163.76 164.465 163.506C164.869 163.252 165.165 163.001 165.354 162.754C165.562 162.48 165.764 162.428 165.959 162.598L166.536 163.096C166.685 163.226 166.685 163.405 166.536 163.633C166.412 163.822 166.057 164.124 165.471 164.541C164.892 164.958 163.977 165.166 162.727 165.166C161.099 165.166 159.898 164.688 159.124 163.73C158.355 162.773 157.971 161.488 157.971 159.873ZM159.749 159.258H165.266C165.24 158.346 165.006 157.549 164.563 156.865C164.12 156.175 163.469 155.83 162.61 155.83C161.855 155.83 161.213 156.084 160.686 156.592C160.159 157.093 159.846 157.982 159.749 159.258ZM169.69 165C169.397 165 169.25 164.854 169.25 164.561V155.186C169.25 154.893 169.397 154.746 169.69 154.746H175.588C175.881 154.746 176.028 154.86 176.028 155.088V155.693C176.028 155.921 175.881 156.035 175.588 156.035H170.969V164.561C170.969 164.854 170.823 165 170.53 165H169.69ZM177.014 155.225C176.897 154.906 176.985 154.746 177.278 154.746H178.342C178.557 154.746 178.704 154.873 178.782 155.127L180.833 161.572C180.891 161.748 180.979 162.025 181.096 162.402C181.22 162.773 181.308 163.105 181.36 163.398H181.379C181.431 163.105 181.493 162.842 181.565 162.607C181.643 162.367 181.757 162.021 181.907 161.572L183.977 155.127C184.062 154.873 184.208 154.746 184.417 154.746H185.481C185.774 154.746 185.862 154.906 185.745 155.225L182.454 164.404C181.835 166.13 181.282 167.337 180.793 168.027C180.305 168.724 179.576 169.072 178.606 169.072C178.098 169.072 177.694 168.997 177.395 168.848C177.258 168.783 177.213 168.682 177.258 168.545L177.512 167.754C177.558 167.617 177.646 167.578 177.776 167.637C178.043 167.747 178.3 167.803 178.547 167.803C179.003 167.803 179.374 167.555 179.661 167.061C179.947 166.572 180.175 166.081 180.344 165.586L180.54 165.01L177.014 155.225ZM185.813 165.078C185.67 165.02 185.614 164.922 185.647 164.785L185.823 163.975C185.849 163.851 185.933 163.805 186.077 163.838C186.226 163.877 186.357 163.896 186.467 163.896C187.053 163.896 187.519 163.451 187.864 162.559C188.215 161.66 188.391 159.993 188.391 157.559V155.186C188.391 154.893 188.596 154.746 189.006 154.746H194.524C194.817 154.746 194.963 154.893 194.963 155.186V164.561C194.963 164.854 194.817 165 194.524 165H193.684C193.391 165 193.245 164.854 193.245 164.561V156.035H189.895V158.057C189.895 160.465 189.631 162.253 189.104 163.418C188.583 164.583 187.776 165.166 186.682 165.166C186.239 165.166 185.95 165.137 185.813 165.078ZM197.913 165C197.457 165 197.372 164.808 197.659 164.424L199.504 161.934C199.68 161.699 199.931 161.436 200.256 161.143C200.588 160.843 200.878 160.632 201.125 160.508V160.488C199.993 160.254 199.218 159.909 198.801 159.453C198.385 158.997 198.176 158.369 198.176 157.568C198.176 156.657 198.456 155.96 199.016 155.479C199.576 154.99 200.605 154.746 202.102 154.746H205.491C205.784 154.746 205.93 154.893 205.93 155.186V164.561C205.93 164.854 205.784 165 205.491 165H204.651C204.358 165 204.211 164.854 204.211 164.561V160.781H203.293C202.851 160.781 202.489 160.892 202.209 161.113C201.93 161.328 201.614 161.686 201.262 162.188L199.543 164.639C199.374 164.88 199.189 165 198.987 165H197.913ZM199.993 157.568C199.993 158.356 200.243 158.877 200.745 159.131C201.252 159.385 201.851 159.512 202.542 159.512H204.211V156.025H202.551C201.653 156.025 201.002 156.136 200.598 156.357C200.194 156.572 199.993 156.976 199.993 157.568ZM208.713 168.906C208.42 168.906 208.274 168.76 208.274 168.467V155.186C208.274 154.893 208.42 154.746 208.713 154.746H209.534C209.768 154.746 209.895 154.893 209.915 155.186L209.973 155.967H209.993C210.351 155.537 210.754 155.199 211.204 154.951C211.653 154.704 212.252 154.58 213 154.58C214.303 154.58 215.292 155.114 215.969 156.182C216.646 157.243 216.985 158.473 216.985 159.873C216.985 161.273 216.646 162.507 215.969 163.574C215.292 164.635 214.303 165.166 213 165.166C212.252 165.166 211.653 165.042 211.204 164.795C210.754 164.548 210.351 164.209 209.993 163.779H209.973C209.986 163.975 209.993 164.173 209.993 164.375V168.467C209.993 168.76 209.846 168.906 209.553 168.906H208.713ZM209.993 160.996C209.993 161.973 210.224 162.702 210.686 163.184C211.155 163.659 211.741 163.896 212.444 163.896C213.433 163.896 214.133 163.525 214.543 162.783C214.96 162.041 215.168 161.071 215.168 159.873C215.168 158.675 214.96 157.705 214.543 156.963C214.133 156.221 213.433 155.85 212.444 155.85C211.741 155.85 211.155 156.09 210.686 156.572C210.224 157.048 209.993 157.773 209.993 158.75V160.996ZM219.651 165C219.358 165 219.211 164.854 219.211 164.561V155.186C219.211 154.893 219.358 154.746 219.651 154.746H220.491C220.784 154.746 220.93 154.893 220.93 155.186V159.004H225.657V155.186C225.657 154.893 225.803 154.746 226.096 154.746H226.936C227.229 154.746 227.375 154.893 227.375 155.186V164.561C227.375 164.854 227.229 165 226.936 165H226.096C225.803 165 225.657 164.854 225.657 164.561V160.293H220.93V164.561C220.93 164.854 220.784 165 220.491 165H219.651ZM230.588 165C230.295 165 230.149 164.854 230.149 164.561V155.186C230.149 154.893 230.295 154.746 230.588 154.746H231.428C231.721 154.746 231.868 154.893 231.868 155.186V158.965H234.036C235.533 158.965 236.562 159.242 237.122 159.795C237.681 160.342 237.961 161.071 237.961 161.982C237.961 162.894 237.681 163.626 237.122 164.18C236.562 164.727 235.533 165 234.036 165H230.588ZM231.868 163.721H233.586C234.498 163.721 235.152 163.61 235.549 163.389C235.946 163.167 236.145 162.699 236.145 161.982C236.145 161.266 235.946 160.798 235.549 160.576C235.152 160.348 234.498 160.234 233.586 160.234H231.868V163.721ZM240.081 165C239.788 165 239.641 164.854 239.641 164.561V155.186C239.641 154.893 239.788 154.746 240.081 154.746H240.92C241.213 154.746 241.36 154.893 241.36 155.186V164.561C241.36 164.854 241.213 165 240.92 165H240.081ZM243.889 165C243.453 165 243.368 164.808 243.635 164.424L246.965 159.6L244.006 155.322C243.739 154.938 243.824 154.746 244.26 154.746H245.217C245.452 154.746 245.624 154.831 245.735 155L247.893 158.398L250.042 155C250.146 154.831 250.318 154.746 250.559 154.746H251.526C251.962 154.746 252.047 154.938 251.78 155.322L248.821 159.6L252.151 164.424C252.418 164.808 252.333 165 251.897 165H250.94C250.706 165 250.533 164.915 250.422 164.746L247.893 160.791L245.364 164.746C245.253 164.915 245.081 165 244.846 165H243.889ZM260.745 165C260.452 165 260.305 164.854 260.305 164.561V155.186C260.305 154.893 260.452 154.746 260.745 154.746H263.899C265.396 154.746 266.425 154.99 266.985 155.479C267.545 155.96 267.825 156.602 267.825 157.402C267.825 157.904 267.74 158.33 267.571 158.682C267.402 159.027 267.021 159.336 266.428 159.609V159.619C267.112 159.847 267.597 160.114 267.883 160.42C268.17 160.726 268.313 161.335 268.313 162.246C268.313 163.014 268.03 163.665 267.463 164.199C266.897 164.733 265.872 165 264.387 165H260.745ZM262.024 163.721H263.938C264.849 163.721 265.504 163.623 265.901 163.428C266.298 163.226 266.497 162.767 266.497 162.051C266.497 161.4 266.269 160.957 265.813 160.723C265.357 160.488 264.732 160.371 263.938 160.371H262.024V163.721ZM262.024 159.092H263.547C264.329 159.092 264.95 158.981 265.413 158.76C265.875 158.532 266.106 158.132 266.106 157.559C266.106 156.94 265.907 156.53 265.51 156.328C265.113 156.12 264.459 156.016 263.547 156.016H262.024V159.092ZM271.116 165C270.823 165 270.676 164.854 270.676 164.561V155.186C270.676 154.893 270.823 154.746 271.116 154.746H271.956C272.249 154.746 272.395 154.893 272.395 155.186V158.965H274.563C276.06 158.965 277.089 159.242 277.649 159.795C278.209 160.342 278.489 161.071 278.489 161.982C278.489 162.894 278.209 163.626 277.649 164.18C277.089 164.727 276.06 165 274.563 165H271.116ZM272.395 163.721H274.114C275.025 163.721 275.68 163.61 276.077 163.389C276.474 163.167 276.672 162.699 276.672 161.982C276.672 161.266 276.474 160.798 276.077 160.576C275.68 160.348 275.025 160.234 274.114 160.234H272.395V163.721ZM280.608 165C280.315 165 280.168 164.854 280.168 164.561V155.186C280.168 154.893 280.315 154.746 280.608 154.746H281.448C281.741 154.746 281.887 154.893 281.887 155.186V164.561C281.887 164.854 281.741 165 281.448 165H280.608ZM285.1 168.906C284.807 168.906 284.661 168.76 284.661 168.467V155.186C284.661 154.893 284.807 154.746 285.1 154.746H285.92C286.155 154.746 286.282 154.893 286.301 155.186L286.36 155.967H286.379C286.737 155.537 287.141 155.199 287.59 154.951C288.04 154.704 288.639 154.58 289.387 154.58C290.689 154.58 291.679 155.114 292.356 156.182C293.033 157.243 293.372 158.473 293.372 159.873C293.372 161.273 293.033 162.507 292.356 163.574C291.679 164.635 290.689 165.166 289.387 165.166C288.639 165.166 288.04 165.042 287.59 164.795C287.141 164.548 286.737 164.209 286.379 163.779H286.36C286.373 163.975 286.379 164.173 286.379 164.375V168.467C286.379 168.76 286.233 168.906 285.94 168.906H285.1ZM286.379 160.996C286.379 161.973 286.611 162.702 287.073 163.184C287.542 163.659 288.127 163.896 288.831 163.896C289.82 163.896 290.52 163.525 290.93 162.783C291.347 162.041 291.555 161.071 291.555 159.873C291.555 158.675 291.347 157.705 290.93 156.963C290.52 156.221 289.82 155.85 288.831 155.85C288.127 155.85 287.542 156.09 287.073 156.572C286.611 157.048 286.379 157.773 286.379 158.75V160.996ZM295.042 162.266C295.042 161.107 295.582 160.257 296.663 159.717C297.75 159.176 299.371 158.861 301.526 158.77V158.105C301.526 157.493 301.386 156.966 301.106 156.523C300.833 156.074 300.286 155.85 299.465 155.85C298.944 155.85 298.528 155.902 298.215 156.006C297.903 156.104 297.616 156.237 297.356 156.406C297.102 156.569 296.858 156.781 296.624 157.041C296.448 157.236 296.282 157.246 296.125 157.07L295.618 156.484C295.474 156.322 295.523 156.126 295.764 155.898C296.109 155.573 296.444 155.329 296.77 155.166C297.096 155.003 297.499 154.867 297.981 154.756C298.469 154.639 298.964 154.58 299.465 154.58C300.826 154.58 301.796 154.932 302.375 155.635C302.955 156.331 303.245 157.288 303.245 158.506V164.561C303.245 164.854 303.098 165 302.805 165H301.926C301.672 165 301.545 164.854 301.545 164.561V164.082H301.526C301.012 164.486 300.507 164.769 300.012 164.932C299.524 165.088 298.977 165.166 298.372 165.166C297.304 165.166 296.48 164.912 295.901 164.404C295.328 163.89 295.042 163.177 295.042 162.266ZM296.819 162.305C296.819 162.708 296.903 163.034 297.073 163.281C297.242 163.522 297.476 163.678 297.776 163.75C298.075 163.815 298.388 163.848 298.713 163.848C299.215 163.848 299.69 163.799 300.139 163.701C300.588 163.604 301.051 163.346 301.526 162.93V160.049C300.211 160.146 299.273 160.267 298.713 160.41C298.153 160.547 297.698 160.788 297.346 161.133C296.995 161.471 296.819 161.862 296.819 162.305ZM305.881 165C305.478 165 305.393 164.808 305.627 164.424L307.542 161.25C307.88 160.697 308.173 160.319 308.42 160.117C308.668 159.909 308.954 159.74 309.28 159.609V159.59C308.993 159.512 308.726 159.336 308.479 159.062C308.232 158.789 307.984 158.47 307.737 158.105L305.852 155.322C305.592 154.938 305.676 154.746 306.106 154.746H306.995C307.236 154.746 307.408 154.831 307.512 155L309.124 157.578C309.273 157.819 309.514 158.118 309.846 158.477C310.178 158.828 310.566 159.004 311.008 159.004H311.252V155.186C311.252 154.893 311.399 154.746 311.692 154.746H312.532C312.825 154.746 312.971 154.893 312.971 155.186V159.004H313.215C313.658 159.004 314.045 158.828 314.377 158.477C314.709 158.118 314.95 157.819 315.1 157.578L316.711 155C316.816 154.831 316.988 154.746 317.229 154.746H318.118C318.547 154.746 318.632 154.938 318.372 155.322L316.487 158.105C316.239 158.47 315.992 158.789 315.745 159.062C315.497 159.336 315.23 159.512 314.944 159.59V159.609C315.269 159.74 315.556 159.909 315.803 160.117C316.051 160.319 316.344 160.697 316.682 161.25L318.596 164.424C318.831 164.808 318.746 165 318.342 165H317.395C317.161 165 316.975 164.88 316.838 164.639L315.042 161.504C314.827 161.133 314.56 160.84 314.241 160.625C313.922 160.404 313.583 160.293 313.225 160.293H312.971V164.561C312.971 164.854 312.825 165 312.532 165H311.692C311.399 165 311.252 164.854 311.252 164.561V160.293H310.999C310.64 160.293 310.302 160.404 309.983 160.625C309.664 160.84 309.397 161.133 309.182 161.504L307.385 164.639C307.249 164.88 307.063 165 306.829 165H305.881ZM319.417 159.873C319.417 158.258 319.82 156.973 320.627 156.016C321.435 155.059 322.59 154.58 324.094 154.58C325.344 154.58 326.379 155.02 327.2 155.898C328.027 156.771 328.44 158.167 328.44 160.088C328.44 160.381 328.306 160.527 328.04 160.527H321.233C321.344 161.784 321.682 162.66 322.249 163.154C322.815 163.643 323.456 163.887 324.172 163.887C324.928 163.887 325.507 163.76 325.911 163.506C326.314 163.252 326.611 163.001 326.799 162.754C327.008 162.48 327.209 162.428 327.405 162.598L327.981 163.096C328.131 163.226 328.131 163.405 327.981 163.633C327.857 163.822 327.502 164.124 326.917 164.541C326.337 164.958 325.422 165.166 324.172 165.166C322.545 165.166 321.344 164.688 320.569 163.73C319.801 162.773 319.417 161.488 319.417 159.873ZM321.194 159.258H326.711C326.685 158.346 326.451 157.549 326.008 156.865C325.566 156.175 324.915 155.83 324.055 155.83C323.3 155.83 322.659 156.084 322.131 156.592C321.604 157.093 321.292 157.982 321.194 159.258ZM331.135 165C330.842 165 330.696 164.854 330.696 164.561V155.186C330.696 154.893 330.842 154.746 331.135 154.746H331.975C332.268 154.746 332.415 154.893 332.415 155.186V159.004H337.141V155.186C337.141 154.893 337.288 154.746 337.581 154.746H338.42C338.713 154.746 338.86 154.893 338.86 155.186V164.561C338.86 164.854 338.713 165 338.42 165H337.581C337.288 165 337.141 164.854 337.141 164.561V160.293H332.415V164.561C332.415 164.854 332.268 165 331.975 165H331.135ZM342.073 165C341.78 165 341.633 164.854 341.633 164.561V155.186C341.633 154.893 341.78 154.746 342.073 154.746H342.913C343.206 154.746 343.352 154.893 343.352 155.186V162.393C343.352 162.588 343.346 162.783 343.333 162.979H343.352L347.825 155.225C348.007 154.906 348.287 154.746 348.665 154.746H349.846C350.139 154.746 350.286 154.893 350.286 155.186V164.561C350.286 164.854 350.139 165 349.846 165H349.006C348.713 165 348.567 164.854 348.567 164.561V157.354C348.567 157.158 348.573 156.963 348.586 156.768H348.567L344.094 164.521C343.912 164.84 343.632 165 343.254 165H342.073ZM353.499 165C353.206 165 353.059 164.854 353.059 164.561V155.186C353.059 154.893 353.206 154.746 353.499 154.746H354.338C354.631 154.746 354.778 154.893 354.778 155.186V162.393C354.778 162.588 354.771 162.783 354.758 162.979H354.778L359.25 155.225C359.433 154.906 359.713 154.746 360.09 154.746H361.272C361.565 154.746 361.711 154.893 361.711 155.186V164.561C361.711 164.854 361.565 165 361.272 165H360.432C360.139 165 359.993 164.854 359.993 164.561V157.354C359.993 157.158 359.999 156.963 360.012 156.768H359.993L355.52 164.521C355.338 164.84 355.058 165 354.68 165H353.499ZM353.938 151.279C353.918 150.986 354.065 150.84 354.377 150.84H355.12C355.38 150.84 355.527 150.986 355.559 151.279L355.598 151.611C355.65 152.048 355.839 152.321 356.165 152.432C356.49 152.542 356.897 152.598 357.385 152.598C357.874 152.598 358.28 152.542 358.606 152.432C358.931 152.321 359.12 152.048 359.172 151.611L359.211 151.279C359.244 150.986 359.39 150.84 359.651 150.84H360.393C360.706 150.84 360.852 150.986 360.833 151.279L360.793 151.875C360.748 152.526 360.37 153.011 359.661 153.33C358.958 153.649 358.199 153.809 357.385 153.809C356.571 153.809 355.81 153.649 355.1 153.33C354.397 153.011 354.023 152.526 353.977 151.875L353.938 151.279ZM364.456 153.633C364.254 153.542 364.244 153.262 364.426 152.793C364.602 152.357 364.986 151.901 365.579 151.426C366.178 150.944 367.047 150.703 368.186 150.703C369.586 150.703 370.614 151.038 371.272 151.709C371.93 152.373 372.258 153.262 372.258 154.375C372.258 155.306 371.715 156.374 370.627 157.578C369.547 158.776 369.006 159.824 369.006 160.723V160.947C369.006 161.24 368.86 161.387 368.567 161.387H367.727C367.434 161.387 367.288 161.24 367.288 160.947V160.586C367.288 159.486 367.795 158.356 368.811 157.197C369.833 156.032 370.344 155.072 370.344 154.316C370.344 153.522 370.159 152.965 369.788 152.646C369.417 152.327 368.905 152.168 368.254 152.168C367.538 152.168 366.998 152.298 366.633 152.559C366.275 152.819 366.002 153.174 365.813 153.623C365.663 153.975 365.452 154.089 365.178 153.965L364.456 153.633ZM367.59 165C367.297 165 367.151 164.854 367.151 164.561V163.369C367.151 163.076 367.297 162.93 367.59 162.93H368.684C368.977 162.93 369.124 163.076 369.124 163.369V164.561C369.124 164.854 368.977 165 368.684 165H367.59ZM381.829 165C381.503 165 381.34 164.821 381.34 164.463V151.533C381.34 151.175 381.503 150.996 381.829 150.996H385.637C387.851 150.996 389.342 151.354 390.11 152.07C390.878 152.786 391.262 153.649 391.262 154.658C391.262 155.459 390.943 156.139 390.305 156.699C389.667 157.253 389.049 157.578 388.45 157.676V157.705C389.107 157.764 389.84 158.092 390.647 158.691C391.461 159.284 391.868 160.091 391.868 161.113C391.868 162.22 391.458 163.145 390.637 163.887C389.823 164.629 388.319 165 386.125 165H381.829ZM383.215 163.398H385.813C387.213 163.398 388.238 163.226 388.889 162.881C389.54 162.536 389.866 161.927 389.866 161.055C389.866 160.247 389.534 159.622 388.87 159.18C388.212 158.737 387.193 158.516 385.813 158.516H383.215V163.398ZM383.215 157.109H385.667C386.754 157.109 387.639 156.878 388.323 156.416C389.013 155.947 389.358 155.361 389.358 154.658C389.358 153.988 389.101 153.477 388.586 153.125C388.072 152.773 387.099 152.598 385.667 152.598H383.215V157.109ZM393.772 159.873C393.772 158.343 394.176 157.08 394.983 156.084C395.797 155.081 396.985 154.58 398.547 154.58C400.11 154.58 401.295 155.081 402.102 156.084C402.916 157.08 403.323 158.343 403.323 159.873C403.323 161.403 402.916 162.669 402.102 163.672C401.295 164.668 400.11 165.166 398.547 165.166C396.985 165.166 395.797 164.668 394.983 163.672C394.176 162.669 393.772 161.403 393.772 159.873ZM395.588 159.873C395.588 161.24 395.859 162.253 396.399 162.91C396.939 163.568 397.655 163.896 398.547 163.896C399.439 163.896 400.155 163.568 400.696 162.91C401.236 162.253 401.506 161.24 401.506 159.873C401.506 158.506 401.236 157.493 400.696 156.836C400.155 156.178 399.439 155.85 398.547 155.85C397.655 155.85 396.939 156.178 396.399 156.836C395.859 157.493 395.588 158.506 395.588 159.873ZM404.26 156.064C403.967 156.064 403.821 155.951 403.821 155.723V155.088C403.821 154.86 403.967 154.746 404.26 154.746H412.131C412.424 154.746 412.571 154.86 412.571 155.088V155.723C412.571 155.951 412.424 156.064 412.131 156.064H409.055V164.561C409.055 164.854 408.909 165 408.616 165H407.776C407.483 165 407.336 164.854 407.336 164.561V156.064H404.26ZM421.37 165C421.077 165 420.93 164.854 420.93 164.561V155.186C420.93 154.893 421.077 154.746 421.37 154.746H422.209C422.502 154.746 422.649 154.893 422.649 155.186V162.393C422.649 162.588 422.642 162.783 422.629 162.979H422.649L427.122 155.225C427.304 154.906 427.584 154.746 427.961 154.746H429.143C429.436 154.746 429.583 154.893 429.583 155.186V164.561C429.583 164.854 429.436 165 429.143 165H428.303C428.01 165 427.864 164.854 427.864 164.561V157.354C427.864 157.158 427.87 156.963 427.883 156.768H427.864L423.391 164.521C423.209 164.84 422.929 165 422.551 165H421.37ZM439.241 165C438.785 165 438.7 164.808 438.987 164.424L440.833 161.934C441.008 161.699 441.259 161.436 441.584 161.143C441.917 160.843 442.206 160.632 442.454 160.508V160.488C441.321 160.254 440.546 159.909 440.129 159.453C439.713 158.997 439.504 158.369 439.504 157.568C439.504 156.657 439.784 155.96 440.344 155.479C440.904 154.99 441.933 154.746 443.43 154.746H446.819C447.112 154.746 447.258 154.893 447.258 155.186V164.561C447.258 164.854 447.112 165 446.819 165H445.979C445.686 165 445.54 164.854 445.54 164.561V160.781H444.622C444.179 160.781 443.818 160.892 443.538 161.113C443.258 161.328 442.942 161.686 442.59 162.188L440.872 164.639C440.702 164.88 440.517 165 440.315 165H439.241ZM441.321 157.568C441.321 158.356 441.571 158.877 442.073 159.131C442.581 159.385 443.18 159.512 443.87 159.512H445.54V156.025H443.879C442.981 156.025 442.33 156.136 441.926 156.357C441.523 156.572 441.321 156.976 441.321 157.568ZM37.1606 197.027C36.9002 197.027 36.77 196.881 36.77 196.588V193.15C36.77 192.857 36.9165 192.711 37.2095 192.711H37.8345C38.505 192.086 38.938 191.106 39.1333 189.771C39.3351 188.437 39.436 187.324 39.436 186.432V184.186C39.436 183.893 39.6411 183.746 40.0513 183.746H45.5688C45.8618 183.746 46.0083 183.893 46.0083 184.186V192.711H47.1704C47.4634 192.711 47.6099 192.857 47.6099 193.15V196.588C47.6099 196.881 47.4797 197.027 47.2192 197.027H46.4966C46.2362 197.027 46.106 196.881 46.106 196.588V194H38.2739V196.588C38.2739 196.881 38.1437 197.027 37.8833 197.027H37.1606ZM39.5532 192.711H44.2896V185.035H40.9399V186.969C40.9399 188.674 40.7837 190.006 40.4712 190.963C40.1652 191.92 39.8592 192.503 39.5532 192.711ZM48.8306 184.225C48.7134 183.906 48.8013 183.746 49.0942 183.746H50.1587C50.3735 183.746 50.52 183.873 50.5981 184.127L52.6489 190.572C52.7075 190.748 52.7954 191.025 52.9126 191.402C53.0363 191.773 53.1242 192.105 53.1763 192.398H53.1958C53.2479 192.105 53.3097 191.842 53.3813 191.607C53.4595 191.367 53.5734 191.021 53.7231 190.572L55.7935 184.127C55.8781 183.873 56.0246 183.746 56.2329 183.746H57.2974C57.5903 183.746 57.6782 183.906 57.561 184.225L54.27 193.404C53.6515 195.13 53.0981 196.337 52.6099 197.027C52.1216 197.724 51.3924 198.072 50.4224 198.072C49.9146 198.072 49.5109 197.997 49.2114 197.848C49.0747 197.783 49.0291 197.682 49.0747 197.545L49.3286 196.754C49.3742 196.617 49.4621 196.578 49.5923 196.637C49.8592 196.747 50.1164 196.803 50.3638 196.803C50.8195 196.803 51.1906 196.555 51.4771 196.061C51.7635 195.572 51.9914 195.081 52.1606 194.586L52.356 194.01L48.8306 184.225ZM59.6509 194C59.3579 194 59.2114 193.854 59.2114 193.561V184.186C59.2114 183.893 59.3579 183.746 59.6509 183.746H61.5063C61.7082 183.746 61.8547 183.873 61.9458 184.127L64.1821 190.572C64.2277 190.709 64.3123 190.96 64.436 191.324C64.5597 191.689 64.6639 192.034 64.7485 192.359H64.7876C64.8722 192.034 64.9764 191.689 65.1001 191.324C65.2238 190.96 65.3084 190.709 65.354 190.572L67.5903 184.127C67.6815 183.873 67.828 183.746 68.0298 183.746H69.8853C70.1782 183.746 70.3247 183.893 70.3247 184.186V193.561C70.3247 193.854 70.1782 194 69.8853 194H69.0454C68.7524 194 68.606 193.854 68.606 193.561V186.188C68.606 185.992 68.6125 185.797 68.6255 185.602H68.606L65.6763 193.404C65.5265 193.801 65.3507 194 65.1489 194H64.3872C64.1854 194 64.0096 193.801 63.8599 193.404L60.9302 185.602H60.9106C60.9237 185.797 60.9302 185.992 60.9302 186.188V193.561C60.9302 193.854 60.7837 194 60.4907 194H59.6509ZM72.5415 191.266C72.5415 190.107 73.0819 189.257 74.1626 188.717C75.2498 188.176 76.8709 187.861 79.0259 187.77V187.105C79.0259 186.493 78.8859 185.966 78.606 185.523C78.3325 185.074 77.7856 184.85 76.9653 184.85C76.4445 184.85 76.0278 184.902 75.7153 185.006C75.4028 185.104 75.1164 185.237 74.856 185.406C74.6021 185.569 74.3579 185.781 74.1235 186.041C73.9478 186.236 73.7817 186.246 73.6255 186.07L73.1177 185.484C72.9744 185.322 73.0233 185.126 73.2642 184.898C73.6092 184.573 73.9445 184.329 74.27 184.166C74.5955 184.003 74.9992 183.867 75.481 183.756C75.9692 183.639 76.464 183.58 76.9653 183.58C78.326 183.58 79.2961 183.932 79.8755 184.635C80.4549 185.331 80.7446 186.288 80.7446 187.506V193.561C80.7446 193.854 80.5981 194 80.3052 194H79.4263C79.1724 194 79.0454 193.854 79.0454 193.561V193.082H79.0259C78.5116 193.486 78.007 193.769 77.5122 193.932C77.0239 194.088 76.4771 194.166 75.8716 194.166C74.8039 194.166 73.9803 193.912 73.4009 193.404C72.828 192.89 72.5415 192.177 72.5415 191.266ZM74.3188 191.305C74.3188 191.708 74.4035 192.034 74.5728 192.281C74.742 192.522 74.9764 192.678 75.2759 192.75C75.5754 192.815 75.8879 192.848 76.2134 192.848C76.7147 192.848 77.1899 192.799 77.6392 192.701C78.0884 192.604 78.5506 192.346 79.0259 191.93V189.049C77.7108 189.146 76.7733 189.267 76.2134 189.41C75.6535 189.547 75.1978 189.788 74.8462 190.133C74.4946 190.471 74.3188 190.862 74.3188 191.305ZM83.9673 194C83.6743 194 83.5278 193.854 83.5278 193.561V184.186C83.5278 183.893 83.6743 183.746 83.9673 183.746H84.8071C85.1001 183.746 85.2466 183.893 85.2466 184.186V188.004H87.0435C87.0955 186.962 87.5024 185.966 88.2642 185.016C89.0324 184.059 90.1978 183.58 91.7603 183.58C93.3228 183.58 94.5076 184.081 95.3149 185.084C96.1287 186.08 96.5356 187.343 96.5356 188.873C96.5356 190.403 96.1287 191.669 95.3149 192.672C94.5076 193.668 93.3228 194.166 91.7603 194.166C90.1978 194.166 89.0226 193.681 88.2349 192.711C87.4536 191.734 87.0402 190.595 86.9946 189.293H85.2466V193.561C85.2466 193.854 85.1001 194 84.8071 194H83.9673ZM88.8013 188.873C88.8013 190.24 89.0715 191.253 89.6118 191.91C90.1522 192.568 90.8683 192.896 91.7603 192.896C92.6522 192.896 93.3683 192.568 93.9087 191.91C94.4491 191.253 94.7192 190.24 94.7192 188.873C94.7192 187.506 94.4491 186.493 93.9087 185.836C93.3683 185.178 92.6522 184.85 91.7603 184.85C90.8683 184.85 90.1522 185.178 89.6118 185.836C89.0715 186.493 88.8013 187.506 88.8013 188.873ZM99.231 194C98.938 194 98.7915 193.854 98.7915 193.561V192.369C98.7915 192.076 98.938 191.93 99.231 191.93H100.364C100.657 191.93 100.803 192.076 100.803 192.369V193.561C100.803 194.244 100.728 194.84 100.579 195.348C100.435 195.862 100.149 196.311 99.7192 196.695C99.576 196.819 99.4556 196.835 99.3579 196.744L98.9185 196.334C98.8208 196.243 98.8436 196.132 98.9868 196.002C99.2082 195.807 99.3872 195.523 99.5239 195.152C99.6672 194.788 99.7388 194.404 99.7388 194H99.231ZM110.383 187.105V184.186C110.383 183.893 110.53 183.746 110.823 183.746H111.663C111.956 183.746 112.102 183.893 112.102 184.186V186.832C112.102 187.639 112.258 188.154 112.571 188.375C112.883 188.59 113.293 188.697 113.801 188.697C114.504 188.697 115.09 188.658 115.559 188.58C116.034 188.502 116.386 188.339 116.614 188.092V184.186C116.614 183.893 116.76 183.746 117.053 183.746H117.893C118.186 183.746 118.333 183.893 118.333 184.186V193.561C118.333 193.854 118.186 194 117.893 194H117.053C116.76 194 116.614 193.854 116.614 193.561V190.006C116.62 189.811 116.627 189.615 116.633 189.42H116.594C116.438 189.583 116.034 189.716 115.383 189.82C114.739 189.918 114.13 189.967 113.557 189.967C112.568 189.967 111.79 189.719 111.223 189.225C110.663 188.73 110.383 188.023 110.383 187.105ZM120.471 185.064C120.178 185.064 120.032 184.951 120.032 184.723V184.088C120.032 183.86 120.178 183.746 120.471 183.746H128.342C128.635 183.746 128.782 183.86 128.782 184.088V184.723C128.782 184.951 128.635 185.064 128.342 185.064H125.266V193.561C125.266 193.854 125.12 194 124.827 194H123.987C123.694 194 123.547 193.854 123.547 193.561V185.064H120.471ZM129.28 188.873C129.28 187.343 129.683 186.08 130.491 185.084C131.305 184.081 132.493 183.58 134.055 183.58C135.618 183.58 136.803 184.081 137.61 185.084C138.424 186.08 138.831 187.343 138.831 188.873C138.831 190.403 138.424 191.669 137.61 192.672C136.803 193.668 135.618 194.166 134.055 194.166C132.493 194.166 131.305 193.668 130.491 192.672C129.683 191.669 129.28 190.403 129.28 188.873ZM131.096 188.873C131.096 190.24 131.366 191.253 131.907 191.91C132.447 192.568 133.163 192.896 134.055 192.896C134.947 192.896 135.663 192.568 136.204 191.91C136.744 191.253 137.014 190.24 137.014 188.873C137.014 187.506 136.744 186.493 136.204 185.836C135.663 185.178 134.947 184.85 134.055 184.85C133.163 184.85 132.447 185.178 131.907 185.836C131.366 186.493 131.096 187.506 131.096 188.873ZM141.497 194C141.204 194 141.057 193.854 141.057 193.561V192.369C141.057 192.076 141.204 191.93 141.497 191.93H142.59C142.883 191.93 143.03 192.076 143.03 192.369V193.561C143.03 193.854 142.883 194 142.59 194H141.497ZM147.356 194C147.063 194 146.917 193.854 146.917 193.561V192.369C146.917 192.076 147.063 191.93 147.356 191.93H148.45C148.743 191.93 148.889 192.076 148.889 192.369V193.561C148.889 193.854 148.743 194 148.45 194H147.356ZM153.215 194C152.922 194 152.776 193.854 152.776 193.561V192.369C152.776 192.076 152.922 191.93 153.215 191.93H154.309C154.602 191.93 154.749 192.076 154.749 192.369V193.561C154.749 193.854 154.602 194 154.309 194H153.215Z" fill="black"/>
</svg>
