<svg width="549" height="318" viewBox="0 0 549 318" fill="none" xmlns="http://www.w3.org/2000/svg">
<rect x="1.5" y="1.5" width="546" height="315" rx="41.5" fill="white" stroke="black" stroke-width="3"/>
<rect x="37.8403" y="243.5" width="472.021" height="53" rx="26.5" stroke="black" stroke-width="3"/>
<path d="M217.891 270.112C217.891 272.776 217.435 275.104 216.523 277.096C215.635 279.064 214.315 280.6 212.563 281.704C210.811 282.808 208.639 283.36 206.047 283.36C203.383 283.36 201.163 282.808 199.387 281.704C197.635 280.6 196.327 279.052 195.463 277.06C194.599 275.068 194.167 272.74 194.167 270.076C194.167 267.436 194.599 265.132 195.463 263.164C196.327 261.196 197.635 259.66 199.387 258.556C201.163 257.452 203.395 256.9 206.083 256.9C208.651 256.9 210.811 257.452 212.563 258.556C214.315 259.636 215.635 261.172 216.523 263.164C217.435 265.132 217.891 267.448 217.891 270.112ZM197.587 270.112C197.587 273.352 198.271 275.908 199.639 277.78C201.007 279.628 203.143 280.552 206.047 280.552C208.975 280.552 211.111 279.628 212.455 277.78C213.799 275.908 214.471 273.352 214.471 270.112C214.471 266.872 213.799 264.34 212.455 262.516C211.111 260.668 208.987 259.744 206.083 259.744C203.179 259.744 201.031 260.668 199.639 262.516C198.271 264.34 197.587 266.872 197.587 270.112ZM236.476 266.368H230.176V283H227.044V266.368H220.816V263.704H236.476V266.368ZM255.793 268.564C255.793 269.764 255.433 270.7 254.713 271.372C253.993 272.044 253.069 272.5 251.941 272.74V272.884C253.141 273.052 254.185 273.484 255.073 274.18C255.961 274.852 256.405 275.908 256.405 277.348C256.405 278.98 255.793 280.336 254.569 281.416C253.369 282.472 251.377 283 248.593 283H240.277V263.704H248.557C249.925 263.704 251.149 263.86 252.229 264.172C253.333 264.46 254.197 264.964 254.821 265.684C255.469 266.38 255.793 267.34 255.793 268.564ZM252.589 268.96C252.589 268.048 252.253 267.388 251.581 266.98C250.933 266.548 249.865 266.332 248.377 266.332H243.445V271.624H247.801C250.993 271.624 252.589 270.736 252.589 268.96ZM253.129 277.348C253.129 276.244 252.709 275.452 251.869 274.972C251.029 274.492 249.793 274.252 248.161 274.252H243.445V280.444H248.233C249.817 280.444 251.029 280.216 251.869 279.76C252.709 279.28 253.129 278.476 253.129 277.348ZM268.471 263.344C270.127 263.344 271.543 263.704 272.719 264.424C273.919 265.144 274.831 266.164 275.455 267.484C276.103 268.78 276.427 270.304 276.427 272.056V273.964H263.215C263.263 276.148 263.815 277.816 264.871 278.968C265.951 280.096 267.451 280.66 269.371 280.66C270.595 280.66 271.675 280.552 272.611 280.336C273.571 280.096 274.555 279.76 275.563 279.328V282.1C274.579 282.532 273.607 282.844 272.647 283.036C271.687 283.252 270.547 283.36 269.227 283.36C267.403 283.36 265.783 282.988 264.367 282.244C262.975 281.5 261.883 280.396 261.091 278.932C260.323 277.444 259.939 275.632 259.939 273.496C259.939 271.384 260.287 269.572 260.983 268.06C261.703 266.548 262.699 265.384 263.971 264.568C265.267 263.752 266.767 263.344 268.471 263.344ZM268.435 265.936C266.923 265.936 265.723 266.428 264.835 267.412C263.971 268.372 263.455 269.716 263.287 271.444H273.115C273.091 269.812 272.707 268.492 271.963 267.484C271.219 266.452 270.043 265.936 268.435 265.936ZM294.659 266.368H288.359V283H285.227V266.368H278.999V263.704H294.659V266.368ZM301.448 263.704V275.476C301.448 275.764 301.436 276.196 301.412 276.772C301.388 277.348 301.352 277.924 301.304 278.5C301.28 279.076 301.256 279.532 301.232 279.868L311.564 263.704H315.452V283H312.5V271.624C312.5 271.24 312.5 270.736 312.5 270.112C312.524 269.488 312.548 268.876 312.572 268.276C312.596 267.652 312.62 267.184 312.644 266.872L302.384 283H298.46V263.704H301.448ZM334.913 266.368H328.613V283H325.481V266.368H319.253V263.704H334.913V266.368ZM341.882 271.624H347.606C352.622 271.624 355.13 273.448 355.13 277.096C355.13 278.896 354.518 280.336 353.294 281.416C352.07 282.472 350.126 283 347.462 283H338.714V263.704H341.882V271.624ZM351.962 277.276C351.962 276.1 351.542 275.308 350.702 274.9C349.886 274.468 348.734 274.252 347.246 274.252H341.882V280.444H347.318C348.662 280.444 349.766 280.204 350.63 279.724C351.518 279.244 351.962 278.428 351.962 277.276Z" fill="black"/>
<path d="M50.8483 30.78C48.0883 30.78 45.9163 31.704 44.3323 33.552C42.7483 35.4 41.9563 37.932 41.9563 41.148C41.9563 44.34 42.6883 46.872 44.1523 48.744C45.6403 50.592 47.8603 51.516 50.8123 51.516C51.9403 51.516 53.0083 51.42 54.0163 51.228C55.0243 51.036 56.0083 50.796 56.9683 50.508V53.316C56.0083 53.676 55.0123 53.94 53.9803 54.108C52.9723 54.276 51.7603 54.36 50.3443 54.36C47.7283 54.36 45.5443 53.82 43.7923 52.74C42.0403 51.66 40.7203 50.124 39.8323 48.132C38.9683 46.14 38.5363 43.8 38.5363 41.112C38.5363 38.52 39.0043 36.24 39.9403 34.272C40.9003 32.28 42.3043 30.732 44.1523 29.628C46.0003 28.5 48.2443 27.936 50.8843 27.936C53.5963 27.936 55.9603 28.44 57.9763 29.448L56.6803 32.184C55.8883 31.824 55.0003 31.5 54.0163 31.212C53.0563 30.924 52.0003 30.78 50.8483 30.78ZM62.6864 41.4H69.4004V33.822H72.1904V41.4H78.8864V44.19H72.1904V51.804H69.4004V44.19H62.6864V41.4ZM86.1005 41.4H92.8145V33.822H95.6045V41.4H102.3V44.19H95.6045V51.804H92.8145V44.19H86.1005V41.4ZM50.7403 70.84C50.7403 72.32 50.487 73.6133 49.9803 74.72C49.487 75.8133 48.7537 76.6667 47.7803 77.28C46.807 77.8933 45.6003 78.2 44.1603 78.2C42.6803 78.2 41.447 77.8933 40.4603 77.28C39.487 76.6667 38.7603 75.8067 38.2803 74.7C37.8003 73.5933 37.5603 72.3 37.5603 70.82C37.5603 69.3533 37.8003 68.0733 38.2803 66.98C38.7603 65.8867 39.487 65.0333 40.4603 64.42C41.447 63.8067 42.687 63.5 44.1803 63.5C45.607 63.5 46.807 63.8067 47.7803 64.42C48.7537 65.02 49.487 65.8733 49.9803 66.98C50.487 68.0733 50.7403 69.36 50.7403 70.84ZM39.4603 70.84C39.4603 72.64 39.8403 74.06 40.6003 75.1C41.3603 76.1267 42.547 76.64 44.1603 76.64C45.787 76.64 46.9737 76.1267 47.7203 75.1C48.467 74.06 48.8403 72.64 48.8403 70.84C48.8403 69.04 48.467 67.6333 47.7203 66.62C46.9737 65.5933 45.7937 65.08 44.1803 65.08C42.567 65.08 41.3737 65.5933 40.6003 66.62C39.8403 67.6333 39.4603 69.04 39.4603 70.84ZM53.1053 71.56C53.1053 69.2133 53.4587 67.3867 54.1653 66.08C54.872 64.76 56.012 63.9333 57.5853 63.6C58.452 63.4133 59.2987 63.2467 60.1253 63.1C60.952 62.9533 61.7253 62.82 62.4453 62.7L62.7453 64.24C62.2787 64.3067 61.752 64.3933 61.1653 64.5C60.5787 64.5933 59.9987 64.6933 59.4253 64.8C58.852 64.8933 58.3587 64.9867 57.9453 65.08C57.0787 65.2667 56.392 65.72 55.8853 66.44C55.3787 67.1467 55.092 68.2533 55.0253 69.76H55.1453C55.332 69.5067 55.5853 69.2467 55.9053 68.98C56.2387 68.7133 56.632 68.4867 57.0853 68.3C57.552 68.1133 58.0787 68.02 58.6653 68.02C60.052 68.02 61.0987 68.4667 61.8053 69.36C62.512 70.2533 62.8653 71.4133 62.8653 72.84C62.8653 74.0267 62.6587 75.02 62.2453 75.82C61.832 76.62 61.2587 77.22 60.5253 77.62C59.792 78.0067 58.9387 78.2 57.9653 78.2C56.4853 78.2 55.3053 77.6333 54.4253 76.5C53.5453 75.3667 53.1053 73.72 53.1053 71.56ZM58.1053 76.74C58.972 76.74 59.672 76.46 60.2053 75.9C60.7387 75.34 61.0053 74.38 61.0053 73.02C61.0053 71.9267 60.7987 71.0667 60.3853 70.44C59.9853 69.8 59.3187 69.48 58.3853 69.48C57.7987 69.48 57.2653 69.6133 56.7853 69.88C56.3053 70.1333 55.9053 70.4267 55.5853 70.76C55.2653 71.0933 55.0387 71.3733 54.9053 71.6C54.9053 72.2533 54.952 72.8867 55.0453 73.5C55.1387 74.1133 55.2987 74.6667 55.5253 75.16C55.7653 75.64 56.092 76.0267 56.5053 76.32C56.932 76.6 57.4653 76.74 58.1053 76.74ZM69.478 67.28V71.68H72.438C73.9047 71.68 74.9913 71.94 75.698 72.46C76.418 72.9667 76.778 73.72 76.778 74.72C76.778 75.72 76.438 76.52 75.758 77.12C75.078 77.7067 73.9647 78 72.418 78H67.718V68.76H64.298V67.28H69.478ZM72.378 73.16H69.478V76.58H72.438C73.2247 76.58 73.8513 76.4467 74.318 76.18C74.798 75.9133 75.038 75.46 75.038 74.82C75.038 74.18 74.818 73.7467 74.378 73.52C73.938 73.28 73.2713 73.16 72.378 73.16ZM83.7038 67.08C84.6238 67.08 85.4104 67.28 86.0638 67.68C86.7304 68.08 87.2371 68.6467 87.5838 69.38C87.9438 70.1 88.1238 70.9467 88.1238 71.92V72.98H80.7838C80.8104 74.1933 81.1171 75.12 81.7038 75.76C82.3038 76.3867 83.1371 76.7 84.2038 76.7C84.8838 76.7 85.4838 76.64 86.0038 76.52C86.5371 76.3867 87.0838 76.2 87.6438 75.96V77.5C87.0971 77.74 86.5571 77.9133 86.0238 78.02C85.4904 78.14 84.8571 78.2 84.1238 78.2C83.1104 78.2 82.2104 77.9933 81.4238 77.58C80.6504 77.1667 80.0438 76.5533 79.6038 75.74C79.1771 74.9133 78.9638 73.9067 78.9638 72.72C78.9638 71.5467 79.1571 70.54 79.5438 69.7C79.9438 68.86 80.4971 68.2133 81.2038 67.76C81.9238 67.3067 82.7571 67.08 83.7038 67.08ZM83.6838 68.52C82.8438 68.52 82.1771 68.7933 81.6838 69.34C81.2038 69.8733 80.9171 70.62 80.8238 71.58H86.2838C86.2704 70.6733 86.0571 69.94 85.6438 69.38C85.2304 68.8067 84.5771 68.52 83.6838 68.52ZM97.1928 67.28H99.1128L94.5328 72.44L99.4928 78H97.4528L92.6128 72.56V78H90.8528V67.28H92.6128V72.48L97.1928 67.28ZM108.839 68.76H105.339V78H103.599V68.76H100.139V67.28H108.839V68.76ZM112.71 67.28V71.74H118.53V67.28H120.29V78H118.53V73.22H112.71V78H110.95V67.28H112.71ZM133.005 72.62C133.005 74.3933 132.552 75.7667 131.645 76.74C130.752 77.7133 129.538 78.2 128.005 78.2C127.058 78.2 126.212 77.9867 125.465 77.56C124.732 77.12 124.152 76.4867 123.725 75.66C123.298 74.82 123.085 73.8067 123.085 72.62C123.085 70.8467 123.532 69.48 124.425 68.52C125.318 67.56 126.532 67.08 128.065 67.08C129.038 67.08 129.892 67.3 130.625 67.74C131.372 68.1667 131.952 68.7933 132.365 69.62C132.792 70.4333 133.005 71.4333 133.005 72.62ZM124.905 72.62C124.905 73.8867 125.152 74.8933 125.645 75.64C126.152 76.3733 126.952 76.74 128.045 76.74C129.125 76.74 129.918 76.3733 130.425 75.64C130.932 74.8933 131.185 73.8867 131.185 72.62C131.185 71.3533 130.932 70.36 130.425 69.64C129.918 68.92 129.118 68.56 128.025 68.56C126.932 68.56 126.138 68.92 125.645 69.64C125.152 70.36 124.905 71.3533 124.905 72.62ZM138.094 72H143.094V73.55H138.094V72ZM158.122 72.62C158.122 74.3933 157.669 75.7667 156.762 76.74C155.869 77.7133 154.655 78.2 153.122 78.2C152.175 78.2 151.329 77.9867 150.582 77.56C149.849 77.12 149.269 76.4867 148.842 75.66C148.415 74.82 148.202 73.8067 148.202 72.62C148.202 70.8467 148.649 69.48 149.542 68.52C150.435 67.56 151.649 67.08 153.182 67.08C154.155 67.08 155.009 67.3 155.742 67.74C156.489 68.1667 157.069 68.7933 157.482 69.62C157.909 70.4333 158.122 71.4333 158.122 72.62ZM150.022 72.62C150.022 73.8867 150.269 74.8933 150.762 75.64C151.269 76.3733 152.069 76.74 153.162 76.74C154.242 76.74 155.035 76.3733 155.542 75.64C156.049 74.8933 156.302 73.8867 156.302 72.62C156.302 71.3533 156.049 70.36 155.542 69.64C155.035 68.92 154.235 68.56 153.142 68.56C152.049 68.56 151.255 68.92 150.762 69.64C150.269 70.36 150.022 71.3533 150.022 72.62ZM166.011 67.08C167.331 67.08 168.391 67.54 169.191 68.46C170.005 69.38 170.411 70.7667 170.411 72.62C170.411 74.4467 170.005 75.8333 169.191 76.78C168.391 77.7267 167.325 78.2 165.991 78.2C165.165 78.2 164.478 78.0467 163.931 77.74C163.398 77.42 162.978 77.0533 162.671 76.64H162.551C162.578 76.8667 162.605 77.1533 162.631 77.5C162.658 77.8467 162.671 78.1467 162.671 78.4V82.8H160.911V67.28H162.351L162.591 68.74H162.671C162.991 68.2733 163.411 67.88 163.931 67.56C164.451 67.24 165.145 67.08 166.011 67.08ZM165.691 68.56C164.598 68.56 163.825 68.8667 163.371 69.48C162.931 70.0933 162.698 71.0267 162.671 72.28V72.62C162.671 73.94 162.885 74.96 163.311 75.68C163.751 76.3867 164.558 76.74 165.731 76.74C166.385 76.74 166.918 76.56 167.331 76.2C167.758 75.84 168.071 75.3533 168.271 74.74C168.485 74.1133 168.591 73.4 168.591 72.6C168.591 71.3733 168.351 70.3933 167.871 69.66C167.405 68.9267 166.678 68.56 165.691 68.56ZM174.876 67.28V73.82C174.876 73.98 174.869 74.22 174.856 74.54C174.843 74.86 174.823 75.18 174.796 75.5C174.783 75.82 174.769 76.0733 174.756 76.26L180.496 67.28H182.656V78H181.016V71.68C181.016 71.4667 181.016 71.1867 181.016 70.84C181.029 70.4933 181.043 70.1533 181.056 69.82C181.069 69.4733 181.083 69.2133 181.096 69.04L175.396 78H173.216V67.28H174.876ZM190.208 67.08C191.128 67.08 191.914 67.28 192.568 67.68C193.234 68.08 193.741 68.6467 194.088 69.38C194.448 70.1 194.628 70.9467 194.628 71.92V72.98H187.288C187.314 74.1933 187.621 75.12 188.208 75.76C188.808 76.3867 189.641 76.7 190.708 76.7C191.388 76.7 191.988 76.64 192.508 76.52C193.041 76.3867 193.588 76.2 194.148 75.96V77.5C193.601 77.74 193.061 77.9133 192.528 78.02C191.994 78.14 191.361 78.2 190.628 78.2C189.614 78.2 188.714 77.9933 187.928 77.58C187.154 77.1667 186.548 76.5533 186.108 75.74C185.681 74.9133 185.468 73.9067 185.468 72.72C185.468 71.5467 185.661 70.54 186.048 69.7C186.448 68.86 187.001 68.2133 187.708 67.76C188.428 67.3067 189.261 67.08 190.208 67.08ZM190.188 68.52C189.348 68.52 188.681 68.7933 188.188 69.34C187.708 69.8733 187.421 70.62 187.328 71.58H192.788C192.774 70.6733 192.561 69.94 192.148 69.38C191.734 68.8067 191.081 68.52 190.188 68.52ZM199.117 67.28V71.74H204.937V67.28H206.697V78H204.937V73.22H199.117V78H197.357V67.28H199.117ZM217.491 68.76H213.991V78H212.251V68.76H208.791V67.28H217.491V68.76ZM221.263 67.28V73.82C221.263 73.98 221.256 74.22 221.243 74.54C221.229 74.86 221.209 75.18 221.183 75.5C221.169 75.82 221.156 76.0733 221.143 76.26L226.883 67.28H229.043V78H227.403V71.68C227.403 71.4667 227.403 71.1867 227.403 70.84C227.416 70.4933 227.429 70.1533 227.443 69.82C227.456 69.4733 227.469 69.2133 227.483 69.04L221.783 78H219.603V67.28H221.263ZM237.554 67.08C238.874 67.08 239.934 67.54 240.734 68.46C241.548 69.38 241.954 70.7667 241.954 72.62C241.954 74.4467 241.548 75.8333 240.734 76.78C239.934 77.7267 238.868 78.2 237.534 78.2C236.708 78.2 236.021 78.0467 235.474 77.74C234.941 77.42 234.521 77.0533 234.214 76.64H234.094C234.121 76.8667 234.148 77.1533 234.174 77.5C234.201 77.8467 234.214 78.1467 234.214 78.4V82.8H232.454V67.28H233.894L234.134 68.74H234.214C234.534 68.2733 234.954 67.88 235.474 67.56C235.994 67.24 236.688 67.08 237.554 67.08ZM237.234 68.56C236.141 68.56 235.368 68.8667 234.914 69.48C234.474 70.0933 234.241 71.0267 234.214 72.28V72.62C234.214 73.94 234.428 74.96 234.854 75.68C235.294 76.3867 236.101 76.74 237.274 76.74C237.928 76.74 238.461 76.56 238.874 76.2C239.301 75.84 239.614 75.3533 239.814 74.74C240.028 74.1133 240.134 73.4 240.134 72.6C240.134 71.3733 239.894 70.3933 239.414 69.66C238.948 68.9267 238.221 68.56 237.234 68.56ZM254.079 72.62C254.079 74.3933 253.626 75.7667 252.719 76.74C251.826 77.7133 250.612 78.2 249.079 78.2C248.132 78.2 247.286 77.9867 246.539 77.56C245.806 77.12 245.226 76.4867 244.799 75.66C244.372 74.82 244.159 73.8067 244.159 72.62C244.159 70.8467 244.606 69.48 245.499 68.52C246.392 67.56 247.606 67.08 249.139 67.08C250.112 67.08 250.966 67.3 251.699 67.74C252.446 68.1667 253.026 68.7933 253.439 69.62C253.866 70.4333 254.079 71.4333 254.079 72.62ZM245.979 72.62C245.979 73.8867 246.226 74.8933 246.719 75.64C247.226 76.3733 248.026 76.74 249.119 76.74C250.199 76.74 250.992 76.3733 251.499 75.64C252.006 74.8933 252.259 73.8867 252.259 72.62C252.259 71.3533 252.006 70.36 251.499 69.64C250.992 68.92 250.192 68.56 249.099 68.56C248.006 68.56 247.212 68.92 246.719 69.64C246.226 70.36 245.979 71.3533 245.979 72.62ZM265.488 69.98C265.488 70.6467 265.288 71.1667 264.888 71.54C264.488 71.9133 263.975 72.1667 263.348 72.3V72.38C264.015 72.4733 264.595 72.7133 265.088 73.1C265.582 73.4733 265.828 74.06 265.828 74.86C265.828 75.7667 265.488 76.52 264.808 77.12C264.142 77.7067 263.035 78 261.488 78H256.868V67.28H261.468C262.228 67.28 262.908 67.3667 263.508 67.54C264.122 67.7 264.602 67.98 264.948 68.38C265.308 68.7667 265.488 69.3 265.488 69.98ZM263.708 70.2C263.708 69.6933 263.522 69.3267 263.148 69.1C262.788 68.86 262.195 68.74 261.368 68.74H258.628V71.68H261.048C262.822 71.68 263.708 71.1867 263.708 70.2ZM264.008 74.86C264.008 74.2467 263.775 73.8067 263.308 73.54C262.842 73.2733 262.155 73.14 261.248 73.14H258.628V76.58H261.288C262.168 76.58 262.842 76.4533 263.308 76.2C263.775 75.9333 264.008 75.4867 264.008 74.86ZM272.452 67.1C273.759 67.1 274.725 67.3867 275.352 67.96C275.979 68.5333 276.292 69.4467 276.292 70.7V78H275.012L274.672 76.48H274.592C274.125 77.0667 273.632 77.5 273.112 77.78C272.605 78.06 271.899 78.2 270.992 78.2C270.019 78.2 269.212 77.9467 268.572 77.44C267.932 76.92 267.612 76.1133 267.612 75.02C267.612 73.9533 268.032 73.1333 268.872 72.56C269.712 71.9733 271.005 71.6533 272.752 71.6L274.572 71.54V70.9C274.572 70.0067 274.379 69.3867 273.992 69.04C273.605 68.6933 273.059 68.52 272.352 68.52C271.792 68.52 271.259 68.6067 270.752 68.78C270.245 68.94 269.772 69.1267 269.332 69.34L268.792 68.02C269.259 67.7667 269.812 67.5533 270.452 67.38C271.092 67.1933 271.759 67.1 272.452 67.1ZM274.552 72.76L272.972 72.82C271.639 72.8733 270.712 73.0867 270.192 73.46C269.685 73.8333 269.432 74.36 269.432 75.04C269.432 75.64 269.612 76.08 269.972 76.36C270.345 76.64 270.819 76.78 271.392 76.78C272.299 76.78 273.052 76.5333 273.652 76.04C274.252 75.5333 274.552 74.76 274.552 73.72V72.76ZM281.363 67.28V71.74H287.183V67.28H288.943V78H287.183V73.22H281.363V78H279.603V67.28H281.363ZM294.097 67.28V71.74H299.917V67.28H301.677V78H299.917V73.22H294.097V78H292.337V67.28H294.097ZM314.392 72.62C314.392 74.3933 313.938 75.7667 313.032 76.74C312.138 77.7133 310.925 78.2 309.392 78.2C308.445 78.2 307.598 77.9867 306.852 77.56C306.118 77.12 305.538 76.4867 305.112 75.66C304.685 74.82 304.472 73.8067 304.472 72.62C304.472 70.8467 304.918 69.48 305.812 68.52C306.705 67.56 307.918 67.08 309.452 67.08C310.425 67.08 311.278 67.3 312.012 67.74C312.758 68.1667 313.338 68.7933 313.752 69.62C314.178 70.4333 314.392 71.4333 314.392 72.62ZM306.292 72.62C306.292 73.8867 306.538 74.8933 307.032 75.64C307.538 76.3733 308.338 76.74 309.432 76.74C310.512 76.74 311.305 76.3733 311.812 75.64C312.318 74.8933 312.572 73.8867 312.572 72.62C312.572 71.3533 312.318 70.36 311.812 69.64C311.305 68.92 310.505 68.56 309.412 68.56C308.318 68.56 307.525 68.92 307.032 69.64C306.538 70.36 306.292 71.3533 306.292 72.62ZM321.321 67.08C322.241 67.08 323.028 67.28 323.681 67.68C324.348 68.08 324.854 68.6467 325.201 69.38C325.561 70.1 325.741 70.9467 325.741 71.92V72.98H318.401C318.428 74.1933 318.734 75.12 319.321 75.76C319.921 76.3867 320.754 76.7 321.821 76.7C322.501 76.7 323.101 76.64 323.621 76.52C324.154 76.3867 324.701 76.2 325.261 75.96V77.5C324.714 77.74 324.174 77.9133 323.641 78.02C323.108 78.14 322.474 78.2 321.741 78.2C320.728 78.2 319.828 77.9933 319.041 77.58C318.268 77.1667 317.661 76.5533 317.221 75.74C316.794 74.9133 316.581 73.9067 316.581 72.72C316.581 71.5467 316.774 70.54 317.161 69.7C317.561 68.86 318.114 68.2133 318.821 67.76C319.541 67.3067 320.374 67.08 321.321 67.08ZM321.301 68.52C320.461 68.52 319.794 68.7933 319.301 69.34C318.821 69.8733 318.534 70.62 318.441 71.58H323.901C323.888 70.6733 323.674 69.94 323.261 69.38C322.848 68.8067 322.194 68.52 321.301 68.52ZM47.1003 91.28V102H45.3403V92.78H39.8003V102H38.0403V91.28H47.1003ZM55.6208 91.08C56.9408 91.08 58.0008 91.54 58.8008 92.46C59.6141 93.38 60.0208 94.7667 60.0208 96.62C60.0208 98.4467 59.6141 99.8333 58.8008 100.78C58.0008 101.727 56.9341 102.2 55.6008 102.2C54.7741 102.2 54.0875 102.047 53.5408 101.74C53.0075 101.42 52.5875 101.053 52.2808 100.64H52.1608C52.1875 100.867 52.2141 101.153 52.2408 101.5C52.2675 101.847 52.2808 102.147 52.2808 102.4V106.8H50.5208V91.28H51.9608L52.2008 92.74H52.2808C52.6008 92.2733 53.0208 91.88 53.5408 91.56C54.0608 91.24 54.7541 91.08 55.6208 91.08ZM55.3008 92.56C54.2075 92.56 53.4341 92.8667 52.9808 93.48C52.5408 94.0933 52.3075 95.0267 52.2808 96.28V96.62C52.2808 97.94 52.4941 98.96 52.9208 99.68C53.3608 100.387 54.1675 100.74 55.3408 100.74C55.9941 100.74 56.5275 100.56 56.9408 100.2C57.3675 99.84 57.6808 99.3533 57.8808 98.74C58.0941 98.1133 58.2008 97.4 58.2008 96.6C58.2008 95.3733 57.9608 94.3933 57.4808 93.66C57.0141 92.9267 56.2875 92.56 55.3008 92.56ZM72.1455 96.62C72.1455 98.3933 71.6922 99.7667 70.7855 100.74C69.8922 101.713 68.6788 102.2 67.1455 102.2C66.1988 102.2 65.3522 101.987 64.6055 101.56C63.8722 101.12 63.2922 100.487 62.8655 99.66C62.4388 98.82 62.2255 97.8067 62.2255 96.62C62.2255 94.8467 62.6722 93.48 63.5655 92.52C64.4588 91.56 65.6722 91.08 67.2055 91.08C68.1788 91.08 69.0322 91.3 69.7655 91.74C70.5122 92.1667 71.0922 92.7933 71.5055 93.62C71.9322 94.4333 72.1455 95.4333 72.1455 96.62ZM64.0455 96.62C64.0455 97.8867 64.2922 98.8933 64.7855 99.64C65.2922 100.373 66.0922 100.74 67.1855 100.74C68.2655 100.74 69.0588 100.373 69.5655 99.64C70.0722 98.8933 70.3255 97.8867 70.3255 96.62C70.3255 95.3533 70.0722 94.36 69.5655 93.64C69.0588 92.92 68.2588 92.56 67.1655 92.56C66.0722 92.56 65.2788 92.92 64.7855 93.64C64.2922 94.36 64.0455 95.3533 64.0455 96.62ZM81.4749 91.28V92.76H76.6949V102H74.9349V91.28H81.4749ZM88.6872 91.08C90.0072 91.08 91.0672 91.54 91.8672 92.46C92.6805 93.38 93.0872 94.7667 93.0872 96.62C93.0872 98.4467 92.6805 99.8333 91.8672 100.78C91.0672 101.727 90.0005 102.2 88.6672 102.2C87.8405 102.2 87.1539 102.047 86.6072 101.74C86.0739 101.42 85.6539 101.053 85.3472 100.64H85.2272C85.2539 100.867 85.2805 101.153 85.3072 101.5C85.3339 101.847 85.3472 102.147 85.3472 102.4V106.8H83.5872V91.28H85.0272L85.2672 92.74H85.3472C85.6672 92.2733 86.0872 91.88 86.6072 91.56C87.1272 91.24 87.8205 91.08 88.6872 91.08ZM88.3672 92.56C87.2739 92.56 86.5005 92.8667 86.0472 93.48C85.6072 94.0933 85.3739 95.0267 85.3472 96.28V96.62C85.3472 97.94 85.5605 98.96 85.9872 99.68C86.4272 100.387 87.2339 100.74 88.4072 100.74C89.0605 100.74 89.5939 100.56 90.0072 100.2C90.4339 99.84 90.7472 99.3533 90.9472 98.74C91.1605 98.1133 91.2672 97.4 91.2672 96.6C91.2672 95.3733 91.0272 94.3933 90.5472 93.66C90.0805 92.9267 89.3539 92.56 88.3672 92.56ZM99.9519 91.1C101.259 91.1 102.225 91.3867 102.852 91.96C103.479 92.5333 103.792 93.4467 103.792 94.7V102H102.512L102.172 100.48H102.092C101.625 101.067 101.132 101.5 100.612 101.78C100.105 102.06 99.3986 102.2 98.4919 102.2C97.5186 102.2 96.7119 101.947 96.0719 101.44C95.4319 100.92 95.1119 100.113 95.1119 99.02C95.1119 97.9533 95.5319 97.1333 96.3719 96.56C97.2119 95.9733 98.5052 95.6533 100.252 95.6L102.072 95.54V94.9C102.072 94.0067 101.879 93.3867 101.492 93.04C101.105 92.6933 100.559 92.52 99.8519 92.52C99.2919 92.52 98.7586 92.6067 98.2519 92.78C97.7452 92.94 97.2719 93.1267 96.8319 93.34L96.2919 92.02C96.7586 91.7667 97.3119 91.5533 97.9519 91.38C98.5919 91.1933 99.2586 91.1 99.9519 91.1ZM102.052 96.76L100.472 96.82C99.1386 96.8733 98.2119 97.0867 97.6919 97.46C97.1852 97.8333 96.9319 98.36 96.9319 99.04C96.9319 99.64 97.1119 100.08 97.4719 100.36C97.8452 100.64 98.3186 100.78 98.8919 100.78C99.7986 100.78 100.552 100.533 101.152 100.04C101.752 99.5333 102.052 98.76 102.052 97.72V96.76ZM118.603 91.28V102H117.023V95.16C117.023 94.88 117.029 94.5867 117.043 94.28C117.069 93.9733 117.096 93.6733 117.123 93.38H117.063L113.563 102H112.083L108.683 93.38H108.623C108.663 93.98 108.683 94.5933 108.683 95.22V102H107.103V91.28H109.443L112.823 99.9L116.263 91.28H118.603ZM133.525 91.28V102H131.945V95.16C131.945 94.88 131.951 94.5867 131.965 94.28C131.991 93.9733 132.018 93.6733 132.045 93.38H131.985L128.485 102H127.005L123.605 93.38H123.545C123.585 93.98 123.605 94.5933 123.605 95.22V102H122.025V91.28H124.365L127.745 99.9L131.185 91.28H133.525ZM138.607 91.28V97.82C138.607 97.98 138.6 98.22 138.587 98.54C138.573 98.86 138.553 99.18 138.527 99.5C138.513 99.82 138.5 100.073 138.487 100.26L144.227 91.28H146.387V102H144.747V95.68C144.747 95.4667 144.747 95.1867 144.747 94.84C144.76 94.4933 144.773 94.1533 144.787 93.82C144.8 93.4733 144.813 93.2133 144.827 93.04L139.127 102H136.947V91.28H138.607ZM154.898 91.08C156.218 91.08 157.278 91.54 158.078 92.46C158.891 93.38 159.298 94.7667 159.298 96.62C159.298 98.4467 158.891 99.8333 158.078 100.78C157.278 101.727 156.211 102.2 154.878 102.2C154.051 102.2 153.365 102.047 152.818 101.74C152.285 101.42 151.865 101.053 151.558 100.64H151.438C151.465 100.867 151.491 101.153 151.518 101.5C151.545 101.847 151.558 102.147 151.558 102.4V106.8H149.798V91.28H151.238L151.478 92.74H151.558C151.878 92.2733 152.298 91.88 152.818 91.56C153.338 91.24 154.031 91.08 154.898 91.08ZM154.578 92.56C153.485 92.56 152.711 92.8667 152.258 93.48C151.818 94.0933 151.585 95.0267 151.558 96.28V96.62C151.558 97.94 151.771 98.96 152.198 99.68C152.638 100.387 153.445 100.74 154.618 100.74C155.271 100.74 155.805 100.56 156.218 100.2C156.645 99.84 156.958 99.3533 157.158 98.74C157.371 98.1133 157.478 97.4 157.478 96.6C157.478 95.3733 157.238 94.3933 156.758 93.66C156.291 92.9267 155.565 92.56 154.578 92.56ZM171.423 96.62C171.423 98.3933 170.969 99.7667 170.063 100.74C169.169 101.713 167.956 102.2 166.423 102.2C165.476 102.2 164.629 101.987 163.883 101.56C163.149 101.12 162.569 100.487 162.143 99.66C161.716 98.82 161.503 97.8067 161.503 96.62C161.503 94.8467 161.949 93.48 162.843 92.52C163.736 91.56 164.949 91.08 166.483 91.08C167.456 91.08 168.309 91.3 169.043 91.74C169.789 92.1667 170.369 92.7933 170.783 93.62C171.209 94.4333 171.423 95.4333 171.423 96.62ZM163.323 96.62C163.323 97.8867 163.569 98.8933 164.063 99.64C164.569 100.373 165.369 100.74 166.463 100.74C167.543 100.74 168.336 100.373 168.843 99.64C169.349 98.8933 169.603 97.8867 169.603 96.62C169.603 95.3533 169.349 94.36 168.843 93.64C168.336 92.92 167.536 92.56 166.443 92.56C165.349 92.56 164.556 92.92 164.063 93.64C163.569 94.36 163.323 95.3533 163.323 96.62ZM182.832 93.98C182.832 94.6467 182.632 95.1667 182.232 95.54C181.832 95.9133 181.319 96.1667 180.692 96.3V96.38C181.359 96.4733 181.939 96.7133 182.432 97.1C182.926 97.4733 183.172 98.06 183.172 98.86C183.172 99.7667 182.832 100.52 182.152 101.12C181.486 101.707 180.379 102 178.832 102H174.212V91.28H178.812C179.572 91.28 180.252 91.3667 180.852 91.54C181.466 91.7 181.946 91.98 182.292 92.38C182.652 92.7667 182.832 93.3 182.832 93.98ZM181.052 94.2C181.052 93.6933 180.866 93.3267 180.492 93.1C180.132 92.86 179.539 92.74 178.712 92.74H175.972V95.68H178.392C180.166 95.68 181.052 95.1867 181.052 94.2ZM181.352 98.86C181.352 98.2467 181.119 97.8067 180.652 97.54C180.186 97.2733 179.499 97.14 178.592 97.14H175.972V100.58H178.632C179.512 100.58 180.186 100.453 180.652 100.2C181.119 99.9333 181.352 99.4867 181.352 98.86ZM189.796 91.1C191.102 91.1 192.069 91.3867 192.696 91.96C193.322 92.5333 193.636 93.4467 193.636 94.7V102H192.356L192.016 100.48H191.936C191.469 101.067 190.976 101.5 190.456 101.78C189.949 102.06 189.242 102.2 188.336 102.2C187.362 102.2 186.556 101.947 185.916 101.44C185.276 100.92 184.956 100.113 184.956 99.02C184.956 97.9533 185.376 97.1333 186.216 96.56C187.056 95.9733 188.349 95.6533 190.096 95.6L191.916 95.54V94.9C191.916 94.0067 191.722 93.3867 191.336 93.04C190.949 92.6933 190.402 92.52 189.696 92.52C189.136 92.52 188.602 92.6067 188.096 92.78C187.589 92.94 187.116 93.1267 186.676 93.34L186.136 92.02C186.602 91.7667 187.156 91.5533 187.796 91.38C188.436 91.1933 189.102 91.1 189.796 91.1ZM191.896 96.76L190.316 96.82C188.982 96.8733 188.056 97.0867 187.536 97.46C187.029 97.8333 186.776 98.36 186.776 99.04C186.776 99.64 186.956 100.08 187.316 100.36C187.689 100.64 188.162 100.78 188.736 100.78C189.642 100.78 190.396 100.533 190.996 100.04C191.596 99.5333 191.896 98.76 191.896 97.72V96.76ZM198.707 91.28V95.74H204.527V91.28H206.287V102H204.527V97.22H198.707V102H196.947V91.28H198.707ZM211.341 91.28V97.82C211.341 97.98 211.334 98.22 211.321 98.54C211.308 98.86 211.288 99.18 211.261 99.5C211.248 99.82 211.234 100.073 211.221 100.26L216.961 91.28H219.121V102H217.481V95.68C217.481 95.4667 217.481 95.1867 217.481 94.84C217.494 94.4933 217.508 94.1533 217.521 93.82C217.534 93.4733 217.548 93.2133 217.561 93.04L211.861 102H209.681V91.28H211.341ZM226.673 91.08C227.593 91.08 228.379 91.28 229.033 91.68C229.699 92.08 230.206 92.6467 230.553 93.38C230.913 94.1 231.093 94.9467 231.093 95.92V96.98H223.753C223.779 98.1933 224.086 99.12 224.673 99.76C225.273 100.387 226.106 100.7 227.173 100.7C227.853 100.7 228.453 100.64 228.973 100.52C229.506 100.387 230.053 100.2 230.613 99.96V101.5C230.066 101.74 229.526 101.913 228.993 102.02C228.459 102.14 227.826 102.2 227.093 102.2C226.079 102.2 225.179 101.993 224.393 101.58C223.619 101.167 223.013 100.553 222.573 99.74C222.146 98.9133 221.933 97.9067 221.933 96.72C221.933 95.5467 222.126 94.54 222.513 93.7C222.913 92.86 223.466 92.2133 224.173 91.76C224.893 91.3067 225.726 91.08 226.673 91.08ZM226.653 92.52C225.813 92.52 225.146 92.7933 224.653 93.34C224.173 93.8733 223.886 94.62 223.793 95.58H229.253C229.239 94.6733 229.026 93.94 228.613 93.38C228.199 92.8067 227.546 92.52 226.653 92.52Z" fill="black"/>
<path d="M37.2388 128.998C37.2388 126.719 37.7987 124.936 38.9185 123.646C40.0448 122.351 41.6659 121.703 43.7817 121.703C45.8976 121.703 47.5155 122.351 48.6353 123.646C49.7616 124.936 50.3247 126.719 50.3247 128.998C50.3247 131.277 49.7616 133.064 48.6353 134.359C47.5155 135.648 45.8976 136.293 43.7817 136.293C41.6659 136.293 40.0448 135.648 38.9185 134.359C37.7987 133.064 37.2388 131.277 37.2388 128.998ZM39.2407 128.998C39.2407 130.821 39.6151 132.24 40.3638 133.256C41.1125 134.265 42.2518 134.77 43.7817 134.77C45.3117 134.77 46.451 134.265 47.1997 133.256C47.9484 132.24 48.3228 130.821 48.3228 128.998C48.3228 127.175 47.9484 125.759 47.1997 124.75C46.451 123.734 45.3117 123.227 43.7817 123.227C42.2518 123.227 41.1125 123.734 40.3638 124.75C39.6151 125.759 39.2407 127.175 39.2407 128.998ZM52.0923 130.141C52.0923 129.398 52.1541 128.52 52.2778 127.504C52.4015 126.488 52.6034 125.674 52.8833 125.062C53.1632 124.444 53.4627 123.949 53.7817 123.578C54.1073 123.207 54.5467 122.872 55.1001 122.572C55.66 122.266 56.259 122.087 56.897 122.035C57.6717 121.97 58.2381 121.934 58.5962 121.928C58.9543 121.921 59.2798 121.859 59.5728 121.742C59.8267 121.638 59.9797 121.524 60.0317 121.4C60.0903 121.277 60.2303 121.215 60.4517 121.215H60.686C60.9139 121.215 61.0278 121.329 61.0278 121.557C61.0278 121.902 60.8879 122.257 60.6079 122.621C60.328 122.979 59.8625 123.223 59.2114 123.354C58.925 123.412 58.4985 123.461 57.9321 123.5C57.3657 123.539 56.8677 123.581 56.438 123.627C56.0148 123.666 55.6405 123.773 55.3149 123.949C54.0259 124.62 53.313 125.961 53.1763 127.973L53.2544 128.012C53.3846 127.53 53.7655 127.006 54.397 126.439C55.0285 125.867 55.839 125.58 56.8286 125.58C58.3911 125.58 59.576 126.081 60.3833 127.084C61.1971 128.08 61.604 129.343 61.604 130.873C61.604 132.403 61.1971 133.669 60.3833 134.672C59.576 135.668 58.3911 136.166 56.8286 136.166C55.1619 136.166 53.9543 135.613 53.2056 134.506C52.4634 133.393 52.0923 131.938 52.0923 130.141ZM53.8696 130.873C53.8696 132.24 54.1398 133.253 54.6802 133.91C55.2205 134.568 55.9367 134.896 56.8286 134.896C57.7205 134.896 58.4367 134.568 58.9771 133.91C59.5174 133.253 59.7876 132.24 59.7876 130.873C59.7876 129.506 59.5174 128.493 58.9771 127.836C58.4367 127.178 57.7205 126.85 56.8286 126.85C55.9367 126.85 55.2205 127.178 54.6802 127.836C54.1398 128.493 53.8696 129.506 53.8696 130.873ZM63.3618 127.016C63.0688 127.016 62.9224 126.902 62.9224 126.674V126.088C62.9224 125.86 63.0688 125.746 63.3618 125.746H67.7173C68.0103 125.746 68.1567 125.893 68.1567 126.186V129.965H70.3247C71.8221 129.965 72.8507 130.242 73.4106 130.795C73.9705 131.342 74.2505 132.071 74.2505 132.982C74.2505 133.894 73.9705 134.626 73.4106 135.18C72.8507 135.727 71.8221 136 70.3247 136H66.8774C66.5845 136 66.438 135.854 66.438 135.561V127.016H63.3618ZM68.1567 134.721H69.8755C70.7869 134.721 71.4412 134.61 71.8384 134.389C72.2355 134.167 72.4341 133.699 72.4341 132.982C72.4341 132.266 72.2355 131.798 71.8384 131.576C71.4412 131.348 70.7869 131.234 69.8755 131.234H68.1567V134.721ZM76.604 136C76.1483 136 76.0636 135.808 76.3501 135.424L78.1958 132.934C78.3716 132.699 78.6222 132.436 78.9478 132.143C79.2798 131.843 79.5695 131.632 79.8169 131.508V131.488C78.6841 131.254 77.9093 130.909 77.4927 130.453C77.076 129.997 76.8677 129.369 76.8677 128.568C76.8677 127.657 77.1476 126.96 77.7075 126.479C78.2674 125.99 79.2961 125.746 80.7935 125.746H84.1821C84.4751 125.746 84.6216 125.893 84.6216 126.186V135.561C84.6216 135.854 84.4751 136 84.1821 136H83.3423C83.0493 136 82.9028 135.854 82.9028 135.561V131.781H81.9849C81.5422 131.781 81.1808 131.892 80.9009 132.113C80.6209 132.328 80.3052 132.686 79.9536 133.188L78.2349 135.639C78.0656 135.88 77.88 136 77.6782 136H76.604ZM78.6841 128.568C78.6841 129.356 78.9347 129.877 79.436 130.131C79.9438 130.385 80.5428 130.512 81.2329 130.512H82.9028V127.025H81.2427C80.3442 127.025 79.6932 127.136 79.2896 127.357C78.8859 127.572 78.6841 127.976 78.6841 128.568ZM86.4087 130.873C86.4087 129.343 86.7863 128.08 87.5415 127.084C88.3032 126.081 89.4653 125.58 91.0278 125.58C92.0825 125.58 92.8866 125.769 93.4399 126.146C93.9998 126.518 94.4035 126.898 94.6509 127.289C94.7876 127.504 94.7583 127.676 94.563 127.807L93.9478 128.207C93.7524 128.344 93.5571 128.256 93.3618 127.943C93.173 127.644 92.9061 127.387 92.561 127.172C92.2225 126.957 91.7114 126.85 91.0278 126.85C90.1359 126.85 89.4458 127.178 88.9575 127.836C88.4692 128.493 88.2251 129.506 88.2251 130.873C88.2251 132.24 88.4692 133.253 88.9575 133.91C89.4458 134.568 90.1359 134.896 91.0278 134.896C91.7505 134.896 92.3039 134.76 92.688 134.486C93.0721 134.206 93.3521 133.904 93.5278 133.578C93.6971 133.272 93.8892 133.184 94.104 133.314L94.7583 133.705C94.9536 133.822 94.9829 133.998 94.8462 134.232C94.6834 134.512 94.3123 134.906 93.7329 135.414C93.16 135.915 92.2583 136.166 91.0278 136.166C89.4653 136.166 88.3032 135.668 87.5415 134.672C86.7863 133.669 86.4087 132.403 86.4087 130.873ZM97.4243 136C97.1313 136 96.9849 135.854 96.9849 135.561V126.186C96.9849 125.893 97.1313 125.746 97.4243 125.746H98.2642C98.5571 125.746 98.7036 125.893 98.7036 126.186V130.004H103.43V126.186C103.43 125.893 103.577 125.746 103.87 125.746H104.709C105.002 125.746 105.149 125.893 105.149 126.186V135.561C105.149 135.854 105.002 136 104.709 136H103.87C103.577 136 103.43 135.854 103.43 135.561V131.293H98.7036V135.561C98.7036 135.854 98.5571 136 98.2642 136H97.4243ZM108.362 136C108.069 136 107.922 135.854 107.922 135.561V126.186C107.922 125.893 108.069 125.746 108.362 125.746H109.202C109.495 125.746 109.641 125.893 109.641 126.186V133.393C109.641 133.588 109.635 133.783 109.622 133.979H109.641L114.114 126.225C114.296 125.906 114.576 125.746 114.954 125.746H116.135C116.428 125.746 116.575 125.893 116.575 126.186V135.561C116.575 135.854 116.428 136 116.135 136H115.295C115.002 136 114.856 135.854 114.856 135.561V128.354C114.856 128.158 114.862 127.963 114.875 127.768H114.856L110.383 135.521C110.201 135.84 109.921 136 109.543 136H108.362ZM118.713 127.064C118.42 127.064 118.274 126.951 118.274 126.723V126.088C118.274 125.86 118.42 125.746 118.713 125.746H126.584C126.877 125.746 127.024 125.86 127.024 126.088V126.723C127.024 126.951 126.877 127.064 126.584 127.064H123.508V135.561C123.508 135.854 123.362 136 123.069 136H122.229C121.936 136 121.79 135.854 121.79 135.561V127.064H118.713ZM129.163 136C128.87 136 128.723 135.854 128.723 135.561V126.186C128.723 125.893 128.87 125.746 129.163 125.746H130.002C130.295 125.746 130.442 125.893 130.442 126.186V129.965H132.61C134.107 129.965 135.136 130.242 135.696 130.795C136.256 131.342 136.536 132.071 136.536 132.982C136.536 133.894 136.256 134.626 135.696 135.18C135.136 135.727 134.107 136 132.61 136H129.163ZM130.442 134.721H132.161C133.072 134.721 133.726 134.61 134.124 134.389C134.521 134.167 134.719 133.699 134.719 132.982C134.719 132.266 134.521 131.798 134.124 131.576C133.726 131.348 133.072 131.234 132.161 131.234H130.442V134.721ZM139.661 136C139.368 136 139.221 135.854 139.221 135.561V134.369C139.221 134.076 139.368 133.93 139.661 133.93H140.793C141.086 133.93 141.233 134.076 141.233 134.369V135.561C141.233 136.244 141.158 136.84 141.008 137.348C140.865 137.862 140.579 138.311 140.149 138.695C140.006 138.819 139.885 138.835 139.788 138.744L139.348 138.334C139.25 138.243 139.273 138.132 139.417 138.002C139.638 137.807 139.817 137.523 139.954 137.152C140.097 136.788 140.168 136.404 140.168 136H139.661ZM150.813 129.105V126.186C150.813 125.893 150.959 125.746 151.252 125.746H152.092C152.385 125.746 152.532 125.893 152.532 126.186V128.832C152.532 129.639 152.688 130.154 153 130.375C153.313 130.59 153.723 130.697 154.231 130.697C154.934 130.697 155.52 130.658 155.989 130.58C156.464 130.502 156.816 130.339 157.043 130.092V126.186C157.043 125.893 157.19 125.746 157.483 125.746H158.323C158.616 125.746 158.762 125.893 158.762 126.186V135.561C158.762 135.854 158.616 136 158.323 136H157.483C157.19 136 157.043 135.854 157.043 135.561V132.006C157.05 131.811 157.056 131.615 157.063 131.42H157.024C156.868 131.583 156.464 131.716 155.813 131.82C155.168 131.918 154.56 131.967 153.987 131.967C152.997 131.967 152.219 131.719 151.653 131.225C151.093 130.73 150.813 130.023 150.813 129.105ZM160.901 127.064C160.608 127.064 160.461 126.951 160.461 126.723V126.088C160.461 125.86 160.608 125.746 160.901 125.746H168.772C169.065 125.746 169.211 125.86 169.211 126.088V126.723C169.211 126.951 169.065 127.064 168.772 127.064H165.696V135.561C165.696 135.854 165.549 136 165.256 136H164.417C164.124 136 163.977 135.854 163.977 135.561V127.064H160.901ZM169.709 130.873C169.709 129.343 170.113 128.08 170.92 127.084C171.734 126.081 172.922 125.58 174.485 125.58C176.047 125.58 177.232 126.081 178.04 127.084C178.853 128.08 179.26 129.343 179.26 130.873C179.26 132.403 178.853 133.669 178.04 134.672C177.232 135.668 176.047 136.166 174.485 136.166C172.922 136.166 171.734 135.668 170.92 134.672C170.113 133.669 169.709 132.403 169.709 130.873ZM171.526 130.873C171.526 132.24 171.796 133.253 172.336 133.91C172.877 134.568 173.593 134.896 174.485 134.896C175.377 134.896 176.093 134.568 176.633 133.91C177.174 133.253 177.444 132.24 177.444 130.873C177.444 129.506 177.174 128.493 176.633 127.836C176.093 127.178 175.377 126.85 174.485 126.85C173.593 126.85 172.877 127.178 172.336 127.836C171.796 128.493 171.526 129.506 171.526 130.873ZM188.577 136C188.284 136 188.137 135.854 188.137 135.561V126.186C188.137 125.893 188.284 125.746 188.577 125.746H191.731C193.228 125.746 194.257 125.99 194.817 126.479C195.377 126.96 195.657 127.602 195.657 128.402C195.657 128.904 195.572 129.33 195.403 129.682C195.234 130.027 194.853 130.336 194.26 130.609V130.619C194.944 130.847 195.429 131.114 195.715 131.42C196.002 131.726 196.145 132.335 196.145 133.246C196.145 134.014 195.862 134.665 195.295 135.199C194.729 135.733 193.704 136 192.219 136H188.577ZM189.856 134.721H191.77C192.681 134.721 193.336 134.623 193.733 134.428C194.13 134.226 194.329 133.767 194.329 133.051C194.329 132.4 194.101 131.957 193.645 131.723C193.189 131.488 192.564 131.371 191.77 131.371H189.856V134.721ZM189.856 130.092H191.379C192.161 130.092 192.782 129.981 193.245 129.76C193.707 129.532 193.938 129.132 193.938 128.559C193.938 127.94 193.739 127.53 193.342 127.328C192.945 127.12 192.291 127.016 191.379 127.016H189.856V130.092ZM198.948 136C198.655 136 198.508 135.854 198.508 135.561V126.186C198.508 125.893 198.655 125.746 198.948 125.746H199.788C200.081 125.746 200.227 125.893 200.227 126.186V129.965H202.395C203.892 129.965 204.921 130.242 205.481 130.795C206.041 131.342 206.321 132.071 206.321 132.982C206.321 133.894 206.041 134.626 205.481 135.18C204.921 135.727 203.892 136 202.395 136H198.948ZM200.227 134.721H201.946C202.857 134.721 203.512 134.61 203.909 134.389C204.306 134.167 204.504 133.699 204.504 132.982C204.504 132.266 204.306 131.798 203.909 131.576C203.512 131.348 202.857 131.234 201.946 131.234H200.227V134.721ZM208.44 136C208.147 136 208 135.854 208 135.561V126.186C208 125.893 208.147 125.746 208.44 125.746H209.28C209.573 125.746 209.719 125.893 209.719 126.186V135.561C209.719 135.854 209.573 136 209.28 136H208.44ZM212.932 136C212.639 136 212.493 135.854 212.493 135.561V126.186C212.493 125.893 212.639 125.746 212.932 125.746H216.086C217.584 125.746 218.612 125.99 219.172 126.479C219.732 126.96 220.012 127.602 220.012 128.402C220.012 128.904 219.928 129.33 219.758 129.682C219.589 130.027 219.208 130.336 218.616 130.609V130.619C219.299 130.847 219.784 131.114 220.071 131.42C220.357 131.726 220.5 132.335 220.5 133.246C220.5 134.014 220.217 134.665 219.651 135.199C219.084 135.733 218.059 136 216.575 136H212.932ZM214.211 134.721H216.125C217.037 134.721 217.691 134.623 218.088 134.428C218.486 134.226 218.684 133.767 218.684 133.051C218.684 132.4 218.456 131.957 218 131.723C217.545 131.488 216.92 131.371 216.125 131.371H214.211V134.721ZM214.211 130.092H215.735C216.516 130.092 217.138 129.981 217.6 129.76C218.062 129.532 218.293 129.132 218.293 128.559C218.293 127.94 218.095 127.53 217.698 127.328C217.301 127.12 216.646 127.016 215.735 127.016H214.211V130.092ZM222.307 130.873C222.307 129.258 222.711 127.973 223.518 127.016C224.325 126.059 225.481 125.58 226.985 125.58C228.235 125.58 229.27 126.02 230.09 126.898C230.917 127.771 231.331 129.167 231.331 131.088C231.331 131.381 231.197 131.527 230.93 131.527H224.124C224.234 132.784 224.573 133.66 225.139 134.154C225.706 134.643 226.347 134.887 227.063 134.887C227.818 134.887 228.398 134.76 228.801 134.506C229.205 134.252 229.501 134.001 229.69 133.754C229.898 133.48 230.1 133.428 230.295 133.598L230.872 134.096C231.021 134.226 231.021 134.405 230.872 134.633C230.748 134.822 230.393 135.124 229.807 135.541C229.228 135.958 228.313 136.166 227.063 136.166C225.435 136.166 224.234 135.688 223.459 134.73C222.691 133.773 222.307 132.488 222.307 130.873ZM224.084 130.258H229.602C229.576 129.346 229.342 128.549 228.899 127.865C228.456 127.175 227.805 126.83 226.946 126.83C226.191 126.83 225.549 127.084 225.022 127.592C224.495 128.093 224.182 128.982 224.084 130.258ZM232.434 139.027C232.174 139.027 232.043 138.881 232.043 138.588V135.15C232.043 134.857 232.19 134.711 232.483 134.711H233.108C233.778 134.086 234.211 133.106 234.407 131.771C234.609 130.437 234.709 129.324 234.709 128.432V126.186C234.709 125.893 234.915 125.746 235.325 125.746H240.842C241.135 125.746 241.282 125.893 241.282 126.186V134.711H242.444C242.737 134.711 242.883 134.857 242.883 135.15V138.588C242.883 138.881 242.753 139.027 242.493 139.027H241.77C241.51 139.027 241.379 138.881 241.379 138.588V136H233.547V138.588C233.547 138.881 233.417 139.027 233.157 139.027H232.434ZM234.827 134.711H239.563V127.035H236.213V128.969C236.213 130.674 236.057 132.006 235.745 132.963C235.439 133.92 235.133 134.503 234.827 134.711ZM244.26 130.873C244.26 129.258 244.664 127.973 245.471 127.016C246.278 126.059 247.434 125.58 248.938 125.58C250.188 125.58 251.223 126.02 252.043 126.898C252.87 127.771 253.284 129.167 253.284 131.088C253.284 131.381 253.15 131.527 252.883 131.527H246.077C246.187 132.784 246.526 133.66 247.092 134.154C247.659 134.643 248.3 134.887 249.016 134.887C249.771 134.887 250.351 134.76 250.754 134.506C251.158 134.252 251.454 134.001 251.643 133.754C251.851 133.48 252.053 133.428 252.249 133.598L252.825 134.096C252.974 134.226 252.974 134.405 252.825 134.633C252.701 134.822 252.346 135.124 251.76 135.541C251.181 135.958 250.266 136.166 249.016 136.166C247.389 136.166 246.187 135.688 245.413 134.73C244.644 133.773 244.26 132.488 244.26 130.873ZM246.038 130.258H251.555C251.529 129.346 251.295 128.549 250.852 127.865C250.409 127.175 249.758 126.83 248.899 126.83C248.144 126.83 247.502 127.084 246.975 127.592C246.448 128.093 246.135 128.982 246.038 130.258ZM254.417 127.064C254.124 127.064 253.977 126.951 253.977 126.723V126.088C253.977 125.86 254.124 125.746 254.417 125.746H262.288C262.581 125.746 262.727 125.86 262.727 126.088V126.723C262.727 126.951 262.581 127.064 262.288 127.064H259.211V135.561C259.211 135.854 259.065 136 258.772 136H257.932C257.639 136 257.493 135.854 257.493 135.561V127.064H254.417ZM263.225 130.873C263.225 129.343 263.603 128.08 264.358 127.084C265.12 126.081 266.282 125.58 267.844 125.58C268.899 125.58 269.703 125.769 270.256 126.146C270.816 126.518 271.22 126.898 271.467 127.289C271.604 127.504 271.575 127.676 271.379 127.807L270.764 128.207C270.569 128.344 270.374 128.256 270.178 127.943C269.989 127.644 269.722 127.387 269.377 127.172C269.039 126.957 268.528 126.85 267.844 126.85C266.952 126.85 266.262 127.178 265.774 127.836C265.286 128.493 265.042 129.506 265.042 130.873C265.042 132.24 265.286 133.253 265.774 133.91C266.262 134.568 266.952 134.896 267.844 134.896C268.567 134.896 269.12 134.76 269.504 134.486C269.889 134.206 270.168 133.904 270.344 133.578C270.514 133.272 270.706 133.184 270.92 133.314L271.575 133.705C271.77 133.822 271.799 133.998 271.663 134.232C271.5 134.512 271.129 134.906 270.549 135.414C269.976 135.915 269.075 136.166 267.844 136.166C266.282 136.166 265.12 135.668 264.358 134.672C263.603 133.669 263.225 132.403 263.225 130.873ZM274.026 136C273.57 136 273.486 135.808 273.772 135.424L275.618 132.934C275.793 132.699 276.044 132.436 276.37 132.143C276.702 131.843 276.991 131.632 277.239 131.508V131.488C276.106 131.254 275.331 130.909 274.915 130.453C274.498 129.997 274.29 129.369 274.29 128.568C274.29 127.657 274.569 126.96 275.129 126.479C275.689 125.99 276.718 125.746 278.215 125.746H281.604C281.897 125.746 282.043 125.893 282.043 126.186V135.561C282.043 135.854 281.897 136 281.604 136H280.764C280.471 136 280.325 135.854 280.325 135.561V131.781H279.407C278.964 131.781 278.603 131.892 278.323 132.113C278.043 132.328 277.727 132.686 277.375 133.188L275.657 135.639C275.487 135.88 275.302 136 275.1 136H274.026ZM276.106 128.568C276.106 129.356 276.357 129.877 276.858 130.131C277.366 130.385 277.965 130.512 278.655 130.512H280.325V127.025H278.665C277.766 127.025 277.115 127.136 276.711 127.357C276.308 127.572 276.106 127.976 276.106 128.568ZM291.487 136C291.194 136 291.047 135.854 291.047 135.561V126.186C291.047 125.893 291.194 125.746 291.487 125.746H298.713C299.006 125.746 299.153 125.893 299.153 126.186V135.561C299.153 135.854 299.006 136 298.713 136H297.874C297.581 136 297.434 135.854 297.434 135.561V127.035H292.766V135.561C292.766 135.854 292.62 136 292.327 136H291.487ZM302.366 139.906C302.073 139.906 301.926 139.76 301.926 139.467V126.186C301.926 125.893 302.073 125.746 302.366 125.746H303.186C303.42 125.746 303.547 125.893 303.567 126.186L303.625 126.967H303.645C304.003 126.537 304.407 126.199 304.856 125.951C305.305 125.704 305.904 125.58 306.653 125.58C307.955 125.58 308.944 126.114 309.622 127.182C310.299 128.243 310.637 129.473 310.637 130.873C310.637 132.273 310.299 133.507 309.622 134.574C308.944 135.635 307.955 136.166 306.653 136.166C305.904 136.166 305.305 136.042 304.856 135.795C304.407 135.548 304.003 135.209 303.645 134.779H303.625C303.639 134.975 303.645 135.173 303.645 135.375V139.467C303.645 139.76 303.499 139.906 303.206 139.906H302.366ZM303.645 131.996C303.645 132.973 303.876 133.702 304.338 134.184C304.807 134.659 305.393 134.896 306.096 134.896C307.086 134.896 307.786 134.525 308.196 133.783C308.612 133.041 308.821 132.071 308.821 130.873C308.821 129.675 308.612 128.705 308.196 127.963C307.786 127.221 307.086 126.85 306.096 126.85C305.393 126.85 304.807 127.09 304.338 127.572C303.876 128.048 303.645 128.773 303.645 129.75V131.996ZM313.303 136C313.01 136 312.864 135.854 312.864 135.561V126.186C312.864 125.893 313.01 125.746 313.303 125.746H314.143C314.436 125.746 314.583 125.893 314.583 126.186V133.393C314.583 133.588 314.576 133.783 314.563 133.979H314.583L319.055 126.225C319.237 125.906 319.517 125.746 319.895 125.746H321.077C321.37 125.746 321.516 125.893 321.516 126.186V135.561C321.516 135.854 321.37 136 321.077 136H320.237C319.944 136 319.797 135.854 319.797 135.561V128.354C319.797 128.158 319.804 127.963 319.817 127.768H319.797L315.325 135.521C315.142 135.84 314.862 136 314.485 136H313.303ZM331.389 136C331.096 136 330.95 135.854 330.95 135.561V126.186C330.95 125.893 331.096 125.746 331.389 125.746H334.543C336.041 125.746 337.069 125.99 337.629 126.479C338.189 126.96 338.469 127.602 338.469 128.402C338.469 128.904 338.385 129.33 338.215 129.682C338.046 130.027 337.665 130.336 337.073 130.609V130.619C337.756 130.847 338.241 131.114 338.528 131.42C338.814 131.726 338.958 132.335 338.958 133.246C338.958 134.014 338.674 134.665 338.108 135.199C337.542 135.733 336.516 136 335.032 136H331.389ZM332.668 134.721H334.583C335.494 134.721 336.148 134.623 336.545 134.428C336.943 134.226 337.141 133.767 337.141 133.051C337.141 132.4 336.913 131.957 336.458 131.723C336.002 131.488 335.377 131.371 334.583 131.371H332.668V134.721ZM332.668 130.092H334.192C334.973 130.092 335.595 129.981 336.057 129.76C336.519 129.532 336.75 129.132 336.75 128.559C336.75 127.94 336.552 127.53 336.155 127.328C335.758 127.12 335.103 127.016 334.192 127.016H332.668V130.092ZM341.76 136C341.467 136 341.321 135.854 341.321 135.561V126.186C341.321 125.893 341.467 125.746 341.76 125.746H342.6C342.893 125.746 343.04 125.893 343.04 126.186V129.965H345.208C346.705 129.965 347.734 130.242 348.293 130.795C348.853 131.342 349.133 132.071 349.133 132.982C349.133 133.894 348.853 134.626 348.293 135.18C347.734 135.727 346.705 136 345.208 136H341.76ZM343.04 134.721H344.758C345.67 134.721 346.324 134.61 346.721 134.389C347.118 134.167 347.317 133.699 347.317 132.982C347.317 132.266 347.118 131.798 346.721 131.576C346.324 131.348 345.67 131.234 344.758 131.234H343.04V134.721ZM351.252 136C350.959 136 350.813 135.854 350.813 135.561V126.186C350.813 125.893 350.959 125.746 351.252 125.746H352.092C352.385 125.746 352.532 125.893 352.532 126.186V135.561C352.532 135.854 352.385 136 352.092 136H351.252ZM355.745 136C355.452 136 355.305 135.854 355.305 135.561V126.186C355.305 125.893 355.452 125.746 355.745 125.746H362.971C363.264 125.746 363.411 125.893 363.411 126.186V135.561C363.411 135.854 363.264 136 362.971 136H362.131C361.838 136 361.692 135.854 361.692 135.561V127.035H357.024V135.561C357.024 135.854 356.877 136 356.584 136H355.745ZM365.627 130.873C365.627 129.343 366.031 128.08 366.838 127.084C367.652 126.081 368.84 125.58 370.403 125.58C371.965 125.58 373.15 126.081 373.958 127.084C374.771 128.08 375.178 129.343 375.178 130.873C375.178 132.403 374.771 133.669 373.958 134.672C373.15 135.668 371.965 136.166 370.403 136.166C368.84 136.166 367.652 135.668 366.838 134.672C366.031 133.669 365.627 132.403 365.627 130.873ZM367.444 130.873C367.444 132.24 367.714 133.253 368.254 133.91C368.795 134.568 369.511 134.896 370.403 134.896C371.295 134.896 372.011 134.568 372.551 133.91C373.092 133.253 373.362 132.24 373.362 130.873C373.362 129.506 373.092 128.493 372.551 127.836C372.011 127.178 371.295 126.85 370.403 126.85C369.511 126.85 368.795 127.178 368.254 127.836C367.714 128.493 367.444 129.506 367.444 130.873ZM375.774 136.078C375.631 136.02 375.575 135.922 375.608 135.785L375.784 134.975C375.81 134.851 375.894 134.805 376.038 134.838C376.187 134.877 376.318 134.896 376.428 134.896C377.014 134.896 377.48 134.451 377.825 133.559C378.176 132.66 378.352 130.993 378.352 128.559V126.186C378.352 125.893 378.557 125.746 378.967 125.746H384.485C384.778 125.746 384.924 125.893 384.924 126.186V135.561C384.924 135.854 384.778 136 384.485 136H383.645C383.352 136 383.206 135.854 383.206 135.561V127.035H379.856V129.057C379.856 131.465 379.592 133.253 379.065 134.418C378.544 135.583 377.737 136.166 376.643 136.166C376.2 136.166 375.911 136.137 375.774 136.078ZM388.088 136C387.795 136 387.649 135.854 387.649 135.561V126.186C387.649 125.893 387.795 125.746 388.088 125.746H388.928C389.221 125.746 389.368 125.893 389.368 126.186V130.004H394.094V126.186C394.094 125.893 394.241 125.746 394.534 125.746H395.374C395.667 125.746 395.813 125.893 395.813 126.186V135.561C395.813 135.854 395.667 136 395.374 136H394.534C394.241 136 394.094 135.854 394.094 135.561V131.293H389.368V135.561C389.368 135.854 389.221 136 388.928 136H388.088ZM398.03 130.873C398.03 129.258 398.433 127.973 399.241 127.016C400.048 126.059 401.204 125.58 402.708 125.58C403.958 125.58 404.993 126.02 405.813 126.898C406.64 127.771 407.053 129.167 407.053 131.088C407.053 131.381 406.92 131.527 406.653 131.527H399.846C399.957 132.784 400.295 133.66 400.862 134.154C401.428 134.643 402.069 134.887 402.786 134.887C403.541 134.887 404.12 134.76 404.524 134.506C404.928 134.252 405.224 134.001 405.413 133.754C405.621 133.48 405.823 133.428 406.018 133.598L406.594 134.096C406.744 134.226 406.744 134.405 406.594 134.633C406.471 134.822 406.116 135.124 405.53 135.541C404.95 135.958 404.036 136.166 402.786 136.166C401.158 136.166 399.957 135.688 399.182 134.73C398.414 133.773 398.03 132.488 398.03 130.873ZM399.807 130.258H405.325C405.299 129.346 405.064 128.549 404.622 127.865C404.179 127.175 403.528 126.83 402.668 126.83C401.913 126.83 401.272 127.084 400.745 127.592C400.217 128.093 399.905 128.982 399.807 130.258ZM409.749 136C409.456 136 409.309 135.854 409.309 135.561V126.186C409.309 125.893 409.456 125.746 409.749 125.746H410.588C410.881 125.746 411.028 125.893 411.028 126.186V130.004H415.754V126.186C415.754 125.893 415.901 125.746 416.194 125.746H417.034C417.327 125.746 417.473 125.893 417.473 126.186V135.561C417.473 135.854 417.327 136 417.034 136H416.194C415.901 136 415.754 135.854 415.754 135.561V131.293H411.028V135.561C411.028 135.854 410.881 136 410.588 136H409.749ZM420.686 136C420.393 136 420.247 135.854 420.247 135.561V126.186C420.247 125.893 420.393 125.746 420.686 125.746H421.526C421.819 125.746 421.965 125.893 421.965 126.186V133.393C421.965 133.588 421.959 133.783 421.946 133.979H421.965L426.438 126.225C426.62 125.906 426.9 125.746 427.278 125.746H428.459C428.752 125.746 428.899 125.893 428.899 126.186V135.561C428.899 135.854 428.752 136 428.459 136H427.62C427.327 136 427.18 135.854 427.18 135.561V128.354C427.18 128.158 427.187 127.963 427.2 127.768H427.18L422.708 135.521C422.525 135.84 422.245 136 421.868 136H420.686ZM432.112 136C431.819 136 431.672 135.854 431.672 135.561V126.186C431.672 125.893 431.819 125.746 432.112 125.746H432.952C433.245 125.746 433.391 125.893 433.391 126.186V133.393C433.391 133.588 433.385 133.783 433.372 133.979H433.391L437.864 126.225C438.046 125.906 438.326 125.746 438.704 125.746H439.885C440.178 125.746 440.325 125.893 440.325 126.186V135.561C440.325 135.854 440.178 136 439.885 136H439.045C438.752 136 438.606 135.854 438.606 135.561V128.354C438.606 128.158 438.612 127.963 438.625 127.768H438.606L434.133 135.521C433.951 135.84 433.671 136 433.293 136H432.112ZM449.202 130.873C449.202 129.343 449.579 128.08 450.334 127.084C451.096 126.081 452.258 125.58 453.821 125.58C454.875 125.58 455.68 125.769 456.233 126.146C456.793 126.518 457.196 126.898 457.444 127.289C457.581 127.504 457.551 127.676 457.356 127.807L456.741 128.207C456.545 128.344 456.35 128.256 456.155 127.943C455.966 127.644 455.699 127.387 455.354 127.172C455.015 126.957 454.504 126.85 453.821 126.85C452.929 126.85 452.239 127.178 451.75 127.836C451.262 128.493 451.018 129.506 451.018 130.873C451.018 132.24 451.262 133.253 451.75 133.91C452.239 134.568 452.929 134.896 453.821 134.896C454.543 134.896 455.097 134.76 455.481 134.486C455.865 134.206 456.145 133.904 456.321 133.578C456.49 133.272 456.682 133.184 456.897 133.314L457.551 133.705C457.747 133.822 457.776 133.998 457.639 134.232C457.476 134.512 457.105 134.906 456.526 135.414C455.953 135.915 455.051 136.166 453.821 136.166C452.258 136.166 451.096 135.668 450.334 134.672C449.579 133.669 449.202 132.403 449.202 130.873ZM459.143 127.064C458.85 127.064 458.704 126.951 458.704 126.723V126.088C458.704 125.86 458.85 125.746 459.143 125.746H467.014C467.307 125.746 467.454 125.86 467.454 126.088V126.723C467.454 126.951 467.307 127.064 467.014 127.064H463.938V135.561C463.938 135.854 463.792 136 463.499 136H462.659C462.366 136 462.219 135.854 462.219 135.561V127.064H459.143ZM469.592 139.906C469.299 139.906 469.153 139.76 469.153 139.467V126.186C469.153 125.893 469.299 125.746 469.592 125.746H470.413C470.647 125.746 470.774 125.893 470.793 126.186L470.852 126.967H470.872C471.23 126.537 471.633 126.199 472.083 125.951C472.532 125.704 473.131 125.58 473.879 125.58C475.181 125.58 476.171 126.114 476.848 127.182C477.525 128.243 477.864 129.473 477.864 130.873C477.864 132.273 477.525 133.507 476.848 134.574C476.171 135.635 475.181 136.166 473.879 136.166C473.131 136.166 472.532 136.042 472.083 135.795C471.633 135.548 471.23 135.209 470.872 134.779H470.852C470.865 134.975 470.872 135.173 470.872 135.375V139.467C470.872 139.76 470.725 139.906 470.432 139.906H469.592ZM470.872 131.996C470.872 132.973 471.103 133.702 471.565 134.184C472.034 134.659 472.62 134.896 473.323 134.896C474.312 134.896 475.012 134.525 475.422 133.783C475.839 133.041 476.047 132.071 476.047 130.873C476.047 129.675 475.839 128.705 475.422 127.963C475.012 127.221 474.312 126.85 473.323 126.85C472.62 126.85 472.034 127.09 471.565 127.572C471.103 128.048 470.872 128.773 470.872 129.75V131.996ZM479.534 130.873C479.534 129.343 479.937 128.08 480.745 127.084C481.558 126.081 482.747 125.58 484.309 125.58C485.872 125.58 487.056 126.081 487.864 127.084C488.678 128.08 489.084 129.343 489.084 130.873C489.084 132.403 488.678 133.669 487.864 134.672C487.056 135.668 485.872 136.166 484.309 136.166C482.747 136.166 481.558 135.668 480.745 134.672C479.937 133.669 479.534 132.403 479.534 130.873ZM481.35 130.873C481.35 132.24 481.62 133.253 482.161 133.91C482.701 134.568 483.417 134.896 484.309 134.896C485.201 134.896 485.917 134.568 486.458 133.91C486.998 133.253 487.268 132.24 487.268 130.873C487.268 129.506 486.998 128.493 486.458 127.836C485.917 127.178 485.201 126.85 484.309 126.85C483.417 126.85 482.701 127.178 482.161 127.836C481.62 128.493 481.35 129.506 481.35 130.873ZM491.741 136C491.448 136 491.301 135.854 491.301 135.561V126.186C491.301 125.893 491.448 125.746 491.741 125.746H492.581C492.874 125.746 493.02 125.893 493.02 126.186V130.004H493.42C493.876 130.004 494.277 129.831 494.622 129.486C494.973 129.141 495.234 128.839 495.403 128.578L497.053 126C497.164 125.831 497.336 125.746 497.571 125.746H498.459C498.896 125.746 498.98 125.938 498.713 126.322L496.731 129.164C496.601 129.353 496.37 129.62 496.038 129.965C495.712 130.31 495.406 130.518 495.12 130.59V130.609C495.491 130.733 495.806 130.896 496.067 131.098C496.327 131.299 496.633 131.684 496.985 132.25L498.938 135.424C499.172 135.808 499.088 136 498.684 136H497.727C497.499 136 497.314 135.88 497.17 135.639L495.344 132.504C495.129 132.133 494.846 131.84 494.495 131.625C494.143 131.404 493.788 131.293 493.43 131.293H493.02V135.561C493.02 135.854 492.874 136 492.581 136H491.741ZM37.1704 159.873C37.1704 158.343 37.548 157.08 38.3032 156.084C39.0649 155.081 40.2271 154.58 41.7896 154.58C42.8442 154.58 43.6483 154.769 44.2017 155.146C44.7616 155.518 45.1652 155.898 45.4126 156.289C45.5493 156.504 45.52 156.676 45.3247 156.807L44.7095 157.207C44.5142 157.344 44.3188 157.256 44.1235 156.943C43.9347 156.644 43.6678 156.387 43.3228 156.172C42.9842 155.957 42.4731 155.85 41.7896 155.85C40.8976 155.85 40.2075 156.178 39.7192 156.836C39.231 157.493 38.9868 158.506 38.9868 159.873C38.9868 161.24 39.231 162.253 39.7192 162.91C40.2075 163.568 40.8976 163.896 41.7896 163.896C42.5122 163.896 43.0656 163.76 43.4497 163.486C43.8338 163.206 44.1138 162.904 44.2896 162.578C44.4588 162.272 44.6509 162.184 44.8657 162.314L45.52 162.705C45.7153 162.822 45.7446 162.998 45.6079 163.232C45.4451 163.512 45.0741 163.906 44.4946 164.414C43.9217 164.915 43.02 165.166 41.7896 165.166C40.2271 165.166 39.0649 164.668 38.3032 163.672C37.548 162.669 37.1704 161.403 37.1704 159.873ZM54.8462 165C54.5532 165 54.4067 164.854 54.4067 164.561V155.186C54.4067 154.893 54.5532 154.746 54.8462 154.746H55.686C55.979 154.746 56.1255 154.893 56.1255 155.186V159.004H56.5259C56.9816 159.004 57.382 158.831 57.7271 158.486C58.0786 158.141 58.339 157.839 58.5083 157.578L60.1587 155C60.2694 154.831 60.4419 154.746 60.6763 154.746H61.5649C62.0011 154.746 62.0858 154.938 61.8188 155.322L59.8364 158.164C59.7062 158.353 59.4751 158.62 59.1431 158.965C58.8175 159.31 58.5116 159.518 58.2251 159.59V159.609C58.5962 159.733 58.9119 159.896 59.1724 160.098C59.4328 160.299 59.7388 160.684 60.0903 161.25L62.0435 164.424C62.2778 164.808 62.1932 165 61.7896 165H60.8325C60.6047 165 60.4191 164.88 60.2759 164.639L58.4497 161.504C58.2349 161.133 57.9517 160.84 57.6001 160.625C57.2485 160.404 56.8937 160.293 56.5356 160.293H56.1255V164.561C56.1255 164.854 55.979 165 55.686 165H54.8462ZM63.2251 159.873C63.2251 158.343 63.6287 157.08 64.436 156.084C65.2498 155.081 66.438 154.58 68.0005 154.58C69.563 154.58 70.7479 155.081 71.5552 156.084C72.369 157.08 72.7759 158.343 72.7759 159.873C72.7759 161.403 72.369 162.669 71.5552 163.672C70.7479 164.668 69.563 165.166 68.0005 165.166C66.438 165.166 65.2498 164.668 64.436 163.672C63.6287 162.669 63.2251 161.403 63.2251 159.873ZM65.0415 159.873C65.0415 161.24 65.3117 162.253 65.8521 162.91C66.3924 163.568 67.1086 163.896 68.0005 163.896C68.8924 163.896 69.6086 163.568 70.1489 162.91C70.6893 162.253 70.9595 161.24 70.9595 159.873C70.9595 158.506 70.6893 157.493 70.1489 156.836C69.6086 156.178 68.8924 155.85 68.0005 155.85C67.1086 155.85 66.3924 156.178 65.8521 156.836C65.3117 157.493 65.0415 158.506 65.0415 159.873ZM75.4321 165C75.1392 165 74.9927 164.854 74.9927 164.561V155.186C74.9927 154.893 75.1392 154.746 75.4321 154.746H77.2876C77.4894 154.746 77.6359 154.873 77.7271 155.127L79.9634 161.572C80.009 161.709 80.0936 161.96 80.2173 162.324C80.341 162.689 80.4451 163.034 80.5298 163.359H80.5688C80.6535 163.034 80.7576 162.689 80.8813 162.324C81.005 161.96 81.0897 161.709 81.1353 161.572L83.3716 155.127C83.4627 154.873 83.6092 154.746 83.811 154.746H85.6665C85.9595 154.746 86.106 154.893 86.106 155.186V164.561C86.106 164.854 85.9595 165 85.6665 165H84.8267C84.5337 165 84.3872 164.854 84.3872 164.561V157.188C84.3872 156.992 84.3937 156.797 84.4067 156.602H84.3872L81.4575 164.404C81.3078 164.801 81.132 165 80.9302 165H80.1685C79.9666 165 79.7909 164.801 79.6411 164.404L76.7114 156.602H76.6919C76.7049 156.797 76.7114 156.992 76.7114 157.188V164.561C76.7114 164.854 76.5649 165 76.272 165H75.4321ZM89.3188 165C89.0259 165 88.8794 164.854 88.8794 164.561V155.186C88.8794 154.893 89.0259 154.746 89.3188 154.746H91.1743C91.3761 154.746 91.5226 154.873 91.6138 155.127L93.8501 161.572C93.8957 161.709 93.9803 161.96 94.104 162.324C94.2277 162.689 94.3319 163.034 94.4165 163.359H94.4556C94.5402 163.034 94.6444 162.689 94.7681 162.324C94.8918 161.96 94.9764 161.709 95.022 161.572L97.2583 155.127C97.3494 154.873 97.4959 154.746 97.6978 154.746H99.5532C99.8462 154.746 99.9927 154.893 99.9927 155.186V164.561C99.9927 164.854 99.8462 165 99.5532 165H98.7134C98.4204 165 98.2739 164.854 98.2739 164.561V157.188C98.2739 156.992 98.2804 156.797 98.2935 156.602H98.2739L95.3442 164.404C95.1945 164.801 95.0187 165 94.8169 165H94.0552C93.8534 165 93.6776 164.801 93.5278 164.404L90.5981 156.602H90.5786C90.5916 156.797 90.5981 156.992 90.5981 157.188V164.561C90.5981 164.854 90.4517 165 90.1587 165H89.3188ZM102.209 159.873C102.209 158.258 102.613 156.973 103.42 156.016C104.228 155.059 105.383 154.58 106.887 154.58C108.137 154.58 109.172 155.02 109.993 155.898C110.819 156.771 111.233 158.167 111.233 160.088C111.233 160.381 111.099 160.527 110.833 160.527H104.026C104.137 161.784 104.475 162.66 105.042 163.154C105.608 163.643 106.249 163.887 106.965 163.887C107.721 163.887 108.3 163.76 108.704 163.506C109.107 163.252 109.403 163.001 109.592 162.754C109.801 162.48 110.002 162.428 110.198 162.598L110.774 163.096C110.924 163.226 110.924 163.405 110.774 163.633C110.65 163.822 110.295 164.124 109.709 164.541C109.13 164.958 108.215 165.166 106.965 165.166C105.338 165.166 104.137 164.688 103.362 163.73C102.594 162.773 102.209 161.488 102.209 159.873ZM103.987 159.258H109.504C109.478 158.346 109.244 157.549 108.801 156.865C108.359 156.175 107.708 155.83 106.848 155.83C106.093 155.83 105.452 156.084 104.924 156.592C104.397 157.093 104.084 157.982 103.987 159.258ZM113.928 165C113.635 165 113.489 164.854 113.489 164.561V155.186C113.489 154.893 113.635 154.746 113.928 154.746H114.768C115.061 154.746 115.208 154.893 115.208 155.186V159.004H119.934V155.186C119.934 154.893 120.081 154.746 120.374 154.746H121.213C121.506 154.746 121.653 154.893 121.653 155.186V164.561C121.653 164.854 121.506 165 121.213 165H120.374C120.081 165 119.934 164.854 119.934 164.561V160.293H115.208V164.561C115.208 164.854 115.061 165 114.768 165H113.928ZM123.792 156.064C123.499 156.064 123.352 155.951 123.352 155.723V155.088C123.352 154.86 123.499 154.746 123.792 154.746H131.663C131.956 154.746 132.102 154.86 132.102 155.088V155.723C132.102 155.951 131.956 156.064 131.663 156.064H128.586V164.561C128.586 164.854 128.44 165 128.147 165H127.307C127.014 165 126.868 164.854 126.868 164.561V156.064H123.792ZM133.245 162.266C133.245 161.107 133.785 160.257 134.866 159.717C135.953 159.176 137.574 158.861 139.729 158.77V158.105C139.729 157.493 139.589 156.966 139.309 156.523C139.036 156.074 138.489 155.85 137.668 155.85C137.148 155.85 136.731 155.902 136.418 156.006C136.106 156.104 135.819 156.237 135.559 156.406C135.305 156.569 135.061 156.781 134.827 157.041C134.651 157.236 134.485 157.246 134.329 157.07L133.821 156.484C133.678 156.322 133.726 156.126 133.967 155.898C134.312 155.573 134.648 155.329 134.973 155.166C135.299 155.003 135.702 154.867 136.184 154.756C136.672 154.639 137.167 154.58 137.668 154.58C139.029 154.58 139.999 154.932 140.579 155.635C141.158 156.331 141.448 157.288 141.448 158.506V164.561C141.448 164.854 141.301 165 141.008 165H140.129C139.875 165 139.749 164.854 139.749 164.561V164.082H139.729C139.215 164.486 138.71 164.769 138.215 164.932C137.727 165.088 137.18 165.166 136.575 165.166C135.507 165.166 134.683 164.912 134.104 164.404C133.531 163.89 133.245 163.177 133.245 162.266ZM135.022 162.305C135.022 162.708 135.107 163.034 135.276 163.281C135.445 163.522 135.68 163.678 135.979 163.75C136.278 163.815 136.591 163.848 136.917 163.848C137.418 163.848 137.893 163.799 138.342 163.701C138.792 163.604 139.254 163.346 139.729 162.93V160.049C138.414 160.146 137.476 160.267 136.917 160.41C136.357 160.547 135.901 160.788 135.549 161.133C135.198 161.471 135.022 161.862 135.022 162.305ZM144.67 168.906C144.377 168.906 144.231 168.76 144.231 168.467V155.186C144.231 154.893 144.377 154.746 144.67 154.746H145.491C145.725 154.746 145.852 154.893 145.872 155.186L145.93 155.967H145.95C146.308 155.537 146.711 155.199 147.161 154.951C147.61 154.704 148.209 154.58 148.958 154.58C150.26 154.58 151.249 155.114 151.926 156.182C152.603 157.243 152.942 158.473 152.942 159.873C152.942 161.273 152.603 162.507 151.926 163.574C151.249 164.635 150.26 165.166 148.958 165.166C148.209 165.166 147.61 165.042 147.161 164.795C146.711 164.548 146.308 164.209 145.95 163.779H145.93C145.943 163.975 145.95 164.173 145.95 164.375V168.467C145.95 168.76 145.803 168.906 145.51 168.906H144.67ZM145.95 160.996C145.95 161.973 146.181 162.702 146.643 163.184C147.112 163.659 147.698 163.896 148.401 163.896C149.39 163.896 150.09 163.525 150.5 162.783C150.917 162.041 151.125 161.071 151.125 159.873C151.125 158.675 150.917 157.705 150.5 156.963C150.09 156.221 149.39 155.85 148.401 155.85C147.698 155.85 147.112 156.09 146.643 156.572C146.181 157.048 145.95 157.773 145.95 158.75V160.996ZM155.608 165C155.315 165 155.168 164.854 155.168 164.561V155.186C155.168 154.893 155.315 154.746 155.608 154.746H156.448C156.741 154.746 156.887 154.893 156.887 155.186V162.393C156.887 162.588 156.881 162.783 156.868 162.979H156.887L161.36 155.225C161.542 154.906 161.822 154.746 162.2 154.746H163.381C163.674 154.746 163.821 154.893 163.821 155.186V164.561C163.821 164.854 163.674 165 163.381 165H162.542C162.249 165 162.102 164.854 162.102 164.561V157.354C162.102 157.158 162.109 156.963 162.122 156.768H162.102L157.629 164.521C157.447 164.84 157.167 165 156.79 165H155.608ZM166.819 165C166.363 165 166.278 164.808 166.565 164.424L168.411 161.934C168.586 161.699 168.837 161.436 169.163 161.143C169.495 160.843 169.784 160.632 170.032 160.508V160.488C168.899 160.254 168.124 159.909 167.708 159.453C167.291 158.997 167.083 158.369 167.083 157.568C167.083 156.657 167.362 155.96 167.922 155.479C168.482 154.99 169.511 154.746 171.008 154.746H174.397C174.69 154.746 174.836 154.893 174.836 155.186V164.561C174.836 164.854 174.69 165 174.397 165H173.557C173.264 165 173.118 164.854 173.118 164.561V160.781H172.2C171.757 160.781 171.396 160.892 171.116 161.113C170.836 161.328 170.52 161.686 170.168 162.188L168.45 164.639C168.28 164.88 168.095 165 167.893 165H166.819ZM168.899 157.568C168.899 158.356 169.15 158.877 169.651 159.131C170.159 159.385 170.758 159.512 171.448 159.512H173.118V156.025H171.458C170.559 156.025 169.908 156.136 169.504 156.357C169.101 156.572 168.899 156.976 168.899 157.568ZM177.62 165C177.327 165 177.18 164.854 177.18 164.561V155.186C177.18 154.893 177.327 154.746 177.62 154.746H179.475C179.677 154.746 179.823 154.873 179.915 155.127L182.151 161.572C182.196 161.709 182.281 161.96 182.405 162.324C182.528 162.689 182.633 163.034 182.717 163.359H182.756C182.841 163.034 182.945 162.689 183.069 162.324C183.193 161.96 183.277 161.709 183.323 161.572L185.559 155.127C185.65 154.873 185.797 154.746 185.999 154.746H187.854C188.147 154.746 188.293 154.893 188.293 155.186V164.561C188.293 164.854 188.147 165 187.854 165H187.014C186.721 165 186.575 164.854 186.575 164.561V157.188C186.575 156.992 186.581 156.797 186.594 156.602H186.575L183.645 164.404C183.495 164.801 183.319 165 183.118 165H182.356C182.154 165 181.978 164.801 181.829 164.404L178.899 156.602H178.879C178.892 156.797 178.899 156.992 178.899 157.188V164.561C178.899 164.854 178.752 165 178.459 165H177.62ZM191.506 165C191.213 165 191.067 164.854 191.067 164.561V155.186C191.067 154.893 191.213 154.746 191.506 154.746H192.346C192.639 154.746 192.786 154.893 192.786 155.186V162.393C192.786 162.588 192.779 162.783 192.766 162.979H192.786L197.258 155.225C197.441 154.906 197.721 154.746 198.098 154.746H199.28C199.573 154.746 199.719 154.893 199.719 155.186V164.561C199.719 164.854 199.573 165 199.28 165H198.44C198.147 165 198 164.854 198 164.561V157.354C198 157.158 198.007 156.963 198.02 156.768H198L193.528 164.521C193.346 164.84 193.066 165 192.688 165H191.506ZM208.977 159.688C208.977 157.682 209.316 155.924 209.993 154.414C210.67 152.904 211.526 151.572 212.561 150.42C212.808 150.14 213.03 150.075 213.225 150.225L213.567 150.488C213.769 150.645 213.762 150.837 213.547 151.064C212.961 151.689 212.372 152.744 211.78 154.229C211.187 155.706 210.891 157.526 210.891 159.688C210.891 161.849 211.187 163.669 211.78 165.146C212.372 166.631 212.961 167.686 213.547 168.311C213.762 168.538 213.769 168.73 213.567 168.887L213.225 169.15C213.03 169.3 212.808 169.235 212.561 168.955C211.526 167.803 210.67 166.471 209.993 164.961C209.316 163.451 208.977 161.693 208.977 159.688ZM215.266 165C214.928 165 214.84 164.785 215.002 164.355L219.866 151.592C220.015 151.195 220.23 150.996 220.51 150.996H221.877C222.157 150.996 222.372 151.195 222.522 151.592L227.385 164.355C227.548 164.785 227.46 165 227.122 165H226.125C225.78 165 225.546 164.84 225.422 164.521L224.202 161.289H218.186L216.965 164.521C216.842 164.84 216.607 165 216.262 165H215.266ZM218.801 159.688H223.586L222.092 155.781C221.956 155.417 221.819 155.013 221.682 154.57C221.552 154.128 221.396 153.499 221.213 152.686H221.174C220.992 153.499 220.833 154.128 220.696 154.57C220.566 155.013 220.432 155.417 220.295 155.781L218.801 159.688ZM228.635 168.887C228.433 168.73 228.44 168.538 228.655 168.311C229.241 167.686 229.83 166.631 230.422 165.146C231.015 163.669 231.311 161.849 231.311 159.688C231.311 157.526 231.015 155.706 230.422 154.229C229.83 152.744 229.241 151.689 228.655 151.064C228.44 150.837 228.433 150.645 228.635 150.488L228.977 150.225C229.172 150.075 229.394 150.14 229.641 150.42C230.676 151.572 231.532 152.904 232.209 154.414C232.887 155.924 233.225 157.682 233.225 159.688C233.225 161.693 232.887 163.451 232.209 164.961C231.532 166.471 230.676 167.803 229.641 168.955C229.394 169.235 229.172 169.3 228.977 169.15L228.635 168.887ZM242.62 165C242.327 165 242.18 164.854 242.18 164.561V155.186C242.18 154.893 242.327 154.746 242.62 154.746H243.459C243.752 154.746 243.899 154.893 243.899 155.186V162.393C243.899 162.588 243.892 162.783 243.879 162.979H243.899L248.372 155.225C248.554 154.906 248.834 154.746 249.211 154.746H250.393C250.686 154.746 250.833 154.893 250.833 155.186V164.561C250.833 164.854 250.686 165 250.393 165H249.553C249.26 165 249.114 164.854 249.114 164.561V157.354C249.114 157.158 249.12 156.963 249.133 156.768H249.114L244.641 164.521C244.459 164.84 244.179 165 243.801 165H242.62ZM260.09 159.688C260.09 157.682 260.429 155.924 261.106 154.414C261.783 152.904 262.639 151.572 263.674 150.42C263.922 150.14 264.143 150.075 264.338 150.225L264.68 150.488C264.882 150.645 264.875 150.837 264.661 151.064C264.075 151.689 263.486 152.744 262.893 154.229C262.301 155.706 262.004 157.526 262.004 159.688C262.004 161.849 262.301 163.669 262.893 165.146C263.486 166.631 264.075 167.686 264.661 168.311C264.875 168.538 264.882 168.73 264.68 168.887L264.338 169.15C264.143 169.3 263.922 169.235 263.674 168.955C262.639 167.803 261.783 166.471 261.106 164.961C260.429 163.451 260.09 161.693 260.09 159.688ZM267.571 165C267.245 165 267.083 164.821 267.083 164.463V151.533C267.083 151.175 267.245 150.996 267.571 150.996H271.174C273.935 150.996 275.852 151.608 276.926 152.832C278.007 154.049 278.547 155.765 278.547 157.979C278.547 160.192 278.007 161.917 276.926 163.154C275.852 164.385 273.935 165 271.174 165H267.571ZM268.958 163.398H271.086C273.235 163.398 274.68 162.943 275.422 162.031C276.171 161.12 276.545 159.769 276.545 157.979C276.545 156.188 276.171 154.84 275.422 153.936C274.68 153.031 273.235 152.578 271.086 152.578H268.958V163.398ZM280.491 168.887C280.289 168.73 280.295 168.538 280.51 168.311C281.096 167.686 281.685 166.631 282.278 165.146C282.87 163.669 283.167 161.849 283.167 159.688C283.167 157.526 282.87 155.706 282.278 154.229C281.685 152.744 281.096 151.689 280.51 151.064C280.295 150.837 280.289 150.645 280.491 150.488L280.833 150.225C281.028 150.075 281.249 150.14 281.497 150.42C282.532 151.572 283.388 152.904 284.065 154.414C284.742 155.924 285.081 157.682 285.081 159.688C285.081 161.693 284.742 163.451 284.065 164.961C283.388 166.471 282.532 167.803 281.497 168.955C281.249 169.235 281.028 169.3 280.833 169.15L280.491 168.887ZM294.475 165C294.182 165 294.036 164.854 294.036 164.561V155.186C294.036 154.893 294.182 154.746 294.475 154.746H297.629C299.127 154.746 300.155 154.99 300.715 155.479C301.275 155.96 301.555 156.602 301.555 157.402C301.555 157.904 301.471 158.33 301.301 158.682C301.132 159.027 300.751 159.336 300.159 159.609V159.619C300.842 159.847 301.327 160.114 301.614 160.42C301.9 160.726 302.043 161.335 302.043 162.246C302.043 163.014 301.76 163.665 301.194 164.199C300.627 164.733 299.602 165 298.118 165H294.475ZM295.754 163.721H297.668C298.58 163.721 299.234 163.623 299.631 163.428C300.028 163.226 300.227 162.767 300.227 162.051C300.227 161.4 299.999 160.957 299.543 160.723C299.088 160.488 298.463 160.371 297.668 160.371H295.754V163.721ZM295.754 159.092H297.278C298.059 159.092 298.681 158.981 299.143 158.76C299.605 158.532 299.836 158.132 299.836 157.559C299.836 156.94 299.638 156.53 299.241 156.328C298.844 156.12 298.189 156.016 297.278 156.016H295.754V159.092ZM311.506 165C311.213 165 311.067 164.854 311.067 164.561V155.186C311.067 154.893 311.213 154.746 311.506 154.746H312.327C312.62 154.746 312.766 154.893 312.766 155.186V155.967H312.805C313.228 155.498 313.687 155.15 314.182 154.922C314.677 154.694 315.152 154.58 315.608 154.58C316.448 154.58 317.092 154.792 317.542 155.215C317.997 155.632 318.29 156.051 318.42 156.475H318.459C318.818 155.941 319.27 155.492 319.817 155.127C320.364 154.762 320.946 154.58 321.565 154.58C322.6 154.58 323.381 154.915 323.909 155.586C324.436 156.25 324.7 157.161 324.7 158.32V164.561C324.7 164.854 324.553 165 324.26 165H323.42C323.127 165 322.981 164.854 322.981 164.561V158.887C322.981 157.611 322.821 156.787 322.502 156.416C322.183 156.038 321.692 155.85 321.028 155.85C320.377 155.85 319.833 156.13 319.397 156.689C318.961 157.243 318.743 158.079 318.743 159.199V164.561C318.743 164.854 318.596 165 318.303 165H317.463C317.17 165 317.024 164.854 317.024 164.561V158.887C317.024 157.611 316.864 156.787 316.545 156.416C316.226 156.038 315.735 155.85 315.071 155.85C314.42 155.85 313.876 156.104 313.44 156.611C313.004 157.113 312.786 157.975 312.786 159.199V164.561C312.786 164.854 312.639 165 312.346 165H311.506ZM326.897 162.266C326.897 161.107 327.437 160.257 328.518 159.717C329.605 159.176 331.226 158.861 333.381 158.77V158.105C333.381 157.493 333.241 156.966 332.961 156.523C332.688 156.074 332.141 155.85 331.321 155.85C330.8 155.85 330.383 155.902 330.071 156.006C329.758 156.104 329.472 156.237 329.211 156.406C328.958 156.569 328.713 156.781 328.479 157.041C328.303 157.236 328.137 157.246 327.981 157.07L327.473 156.484C327.33 156.322 327.379 156.126 327.62 155.898C327.965 155.573 328.3 155.329 328.625 155.166C328.951 155.003 329.355 154.867 329.836 154.756C330.325 154.639 330.819 154.58 331.321 154.58C332.681 154.58 333.652 154.932 334.231 155.635C334.81 156.331 335.1 157.288 335.1 158.506V164.561C335.1 164.854 334.954 165 334.661 165H333.782C333.528 165 333.401 164.854 333.401 164.561V164.082H333.381C332.867 164.486 332.362 164.769 331.868 164.932C331.379 165.088 330.833 165.166 330.227 165.166C329.159 165.166 328.336 164.912 327.756 164.404C327.183 163.89 326.897 163.177 326.897 162.266ZM328.674 162.305C328.674 162.708 328.759 163.034 328.928 163.281C329.097 163.522 329.332 163.678 329.631 163.75C329.931 163.815 330.243 163.848 330.569 163.848C331.07 163.848 331.545 163.799 331.995 163.701C332.444 163.604 332.906 163.346 333.381 162.93V160.049C332.066 160.146 331.129 160.267 330.569 160.41C330.009 160.547 329.553 160.788 329.202 161.133C328.85 161.471 328.674 161.862 328.674 162.305ZM338.323 165C338.03 165 337.883 164.854 337.883 164.561V155.186C337.883 154.893 338.03 154.746 338.323 154.746H339.163C339.456 154.746 339.602 154.893 339.602 155.186V164.561C339.602 164.854 339.456 165 339.163 165H338.323ZM338.323 152.891C338.03 152.891 337.883 152.744 337.883 152.451V151.611C337.883 151.318 338.03 151.172 338.323 151.172H339.163C339.456 151.172 339.602 151.318 339.602 151.611V152.451C339.602 152.744 339.456 152.891 339.163 152.891H338.323ZM342.815 165C342.522 165 342.375 164.854 342.375 164.561V155.186C342.375 154.893 342.522 154.746 342.815 154.746H343.635C343.928 154.746 344.075 154.893 344.075 155.186V155.967H344.114C344.537 155.498 344.993 155.15 345.481 154.922C345.969 154.694 346.578 154.58 347.307 154.58C348.492 154.58 349.342 154.915 349.856 155.586C350.377 156.25 350.637 157.161 350.637 158.32V164.561C350.637 164.854 350.491 165 350.198 165H349.358C349.065 165 348.918 164.854 348.918 164.561V158.789C348.918 157.513 348.707 156.706 348.284 156.367C347.861 156.022 347.323 155.85 346.672 155.85C345.826 155.85 345.185 156.104 344.749 156.611C344.312 157.113 344.094 157.975 344.094 159.199V164.561C344.094 164.854 343.948 165 343.655 165H342.815ZM354.387 165C354.094 165 353.948 164.854 353.948 164.561V163.369C353.948 163.076 354.094 162.93 354.387 162.93H355.481C355.774 162.93 355.92 163.076 355.92 163.369V164.561C355.92 164.854 355.774 165 355.481 165H354.387ZM358.694 159.873C358.694 158.343 359.071 157.08 359.827 156.084C360.588 155.081 361.75 154.58 363.313 154.58C364.368 154.58 365.172 154.769 365.725 155.146C366.285 155.518 366.689 155.898 366.936 156.289C367.073 156.504 367.043 156.676 366.848 156.807L366.233 157.207C366.038 157.344 365.842 157.256 365.647 156.943C365.458 156.644 365.191 156.387 364.846 156.172C364.508 155.957 363.997 155.85 363.313 155.85C362.421 155.85 361.731 156.178 361.243 156.836C360.754 157.493 360.51 158.506 360.51 159.873C360.51 161.24 360.754 162.253 361.243 162.91C361.731 163.568 362.421 163.896 363.313 163.896C364.036 163.896 364.589 163.76 364.973 163.486C365.357 163.206 365.637 162.904 365.813 162.578C365.982 162.272 366.174 162.184 366.389 162.314L367.043 162.705C367.239 162.822 367.268 162.998 367.131 163.232C366.969 163.512 366.597 163.906 366.018 164.414C365.445 164.915 364.543 165.166 363.313 165.166C361.75 165.166 360.588 164.668 359.827 163.672C359.071 162.669 358.694 161.403 358.694 159.873ZM369.709 168.906C369.417 168.906 369.27 168.76 369.27 168.467V155.186C369.27 154.893 369.417 154.746 369.709 154.746H370.53C370.764 154.746 370.891 154.893 370.911 155.186L370.969 155.967H370.989C371.347 155.537 371.75 155.199 372.2 154.951C372.649 154.704 373.248 154.58 373.997 154.58C375.299 154.58 376.288 155.114 376.965 156.182C377.642 157.243 377.981 158.473 377.981 159.873C377.981 161.273 377.642 162.507 376.965 163.574C376.288 164.635 375.299 165.166 373.997 165.166C373.248 165.166 372.649 165.042 372.2 164.795C371.75 164.548 371.347 164.209 370.989 163.779H370.969C370.982 163.975 370.989 164.173 370.989 164.375V168.467C370.989 168.76 370.842 168.906 370.549 168.906H369.709ZM370.989 160.996C370.989 161.973 371.22 162.702 371.682 163.184C372.151 163.659 372.737 163.896 373.44 163.896C374.43 163.896 375.129 163.525 375.54 162.783C375.956 162.041 376.165 161.071 376.165 159.873C376.165 158.675 375.956 157.705 375.54 156.963C375.129 156.221 374.43 155.85 373.44 155.85C372.737 155.85 372.151 156.09 371.682 156.572C371.22 157.048 370.989 157.773 370.989 158.75V160.996ZM380.647 168.906C380.354 168.906 380.208 168.76 380.208 168.467V155.186C380.208 154.893 380.354 154.746 380.647 154.746H381.467C381.702 154.746 381.829 154.893 381.848 155.186L381.907 155.967H381.926C382.284 155.537 382.688 155.199 383.137 154.951C383.586 154.704 384.185 154.58 384.934 154.58C386.236 154.58 387.226 155.114 387.903 156.182C388.58 157.243 388.918 158.473 388.918 159.873C388.918 161.273 388.58 162.507 387.903 163.574C387.226 164.635 386.236 165.166 384.934 165.166C384.185 165.166 383.586 165.042 383.137 164.795C382.688 164.548 382.284 164.209 381.926 163.779H381.907C381.92 163.975 381.926 164.173 381.926 164.375V168.467C381.926 168.76 381.78 168.906 381.487 168.906H380.647ZM381.926 160.996C381.926 161.973 382.157 162.702 382.62 163.184C383.088 163.659 383.674 163.896 384.377 163.896C385.367 163.896 386.067 163.525 386.477 162.783C386.894 162.041 387.102 161.071 387.102 159.873C387.102 158.675 386.894 157.705 386.477 156.963C386.067 156.221 385.367 155.85 384.377 155.85C383.674 155.85 383.088 156.09 382.62 156.572C382.157 157.048 381.926 157.773 381.926 158.75V160.996Z" fill="black"/>
</svg>
